<svg width="37" height="30" viewBox="0 0 37 30" fill="none" xmlns="http://www.w3.org/2000/svg">
<g filter="url(#filter0_d)">
<path d="M32.4961 10H30.4961V2H15.4961V0H30.4961C31.0264 0.000529477 31.5348 0.211413 31.9097 0.586371C32.2847 0.961329 32.4956 1.46973 32.4961 2V10Z" fill="#828282"/>
<path d="M27.4961 15H25.4961V7H10.4961V5H25.4961C26.0264 5.00053 26.5348 5.21141 26.9097 5.58637C27.2847 5.96133 27.4956 6.46973 27.4961 7V15Z" fill="#828282"/>
<path d="M20.4961 22H6.49609C5.96582 21.9995 5.45742 21.7886 5.08246 21.4136C4.70751 21.0387 4.49662 20.5303 4.49609 20V12C4.49662 11.4697 4.70751 10.9613 5.08246 10.5864C5.45742 10.2114 5.96582 10.0005 6.49609 10H20.4961C21.0264 10.0005 21.5348 10.2114 21.9097 10.5864C22.2847 10.9613 22.4956 11.4697 22.4961 12V20C22.4956 20.5303 22.2847 21.0387 21.9097 21.4136C21.5348 21.7886 21.0264 21.9995 20.4961 22ZM6.49609 12V20H20.4971L20.4961 12H6.49609Z" fill="#828282"/>
</g>
<defs>
<filter id="filter0_d" x="0.496094" y="0" width="36" height="30" filterUnits="userSpaceOnUse" color-interpolation-filters="sRGB">
<feFlood flood-opacity="0" result="BackgroundImageFix"/>
<feColorMatrix in="SourceAlpha" type="matrix" values="0 0 0 0 0 0 0 0 0 0 0 0 0 0 0 0 0 0 127 0" result="hardAlpha"/>
<feOffset dy="4"/>
<feGaussianBlur stdDeviation="2"/>
<feComposite in2="hardAlpha" operator="out"/>
<feColorMatrix type="matrix" values="0 0 0 0 0 0 0 0 0 0 0 0 0 0 0 0 0 0 0.25 0"/>
<feBlend mode="normal" in2="BackgroundImageFix" result="effect1_dropShadow"/>
<feBlend mode="normal" in="SourceGraphic" in2="effect1_dropShadow" result="shape"/>
</filter>
</defs>
</svg>
