<svg width="300" height="56" viewBox="0 0 300 56" fill="none" xmlns="http://www.w3.org/2000/svg">
<rect width="300" height="56" rx="3" fill="url(#paint0_linear)"/>
<path d="M68.4798 46.5C68.3734 46.5 68.2536 46.4601 68.1738 46.367L63.1445 40.9922L45.3957 42.2428C45.3026 42.2428 45.2094 42.2561 45.1163 42.2561C42.921 42.2561 41.1381 40.4335 41.1381 38.1984L41.1381 14.5576C41.1381 12.3226 42.921 10.5 45.1163 10.5C45.2627 10.5 45.409 10.5133 45.5554 10.5266L73.3095 13.5865C75.3318 13.8126 76.8619 15.5421 76.8619 17.6175L76.8619 36.2561C76.8619 37.2805 76.4761 38.265 75.7975 39.0233C75.1057 39.7816 74.1743 40.2339 73.1631 40.3004L68.2403 40.6463L68.9055 46.0477C68.9322 46.2206 68.8257 46.3936 68.6661 46.4734C68.5995 46.4867 68.533 46.5 68.4798 46.5ZM63.3175 40.1541C63.4372 40.1541 63.5437 40.2073 63.6235 40.2871L67.9077 44.8769L67.3489 40.3137C67.3356 40.194 67.3622 40.0876 67.442 39.9945C67.5085 39.9013 67.615 39.8481 67.7347 39.8481L73.0966 39.4756C73.8949 39.4224 74.64 39.0632 75.1855 38.4645C75.731 37.8659 76.037 37.0809 76.037 36.2561L76.037 17.6175C76.037 15.9678 74.8263 14.5843 73.2164 14.4113L45.4622 11.3647C45.3425 11.3514 45.236 11.3514 45.1163 11.3514C43.3867 11.3514 41.9763 12.8016 41.9763 14.571L41.9763 38.1984C41.9763 39.9812 43.3867 41.418 45.1296 41.418C45.1961 41.418 45.276 41.418 45.3558 41.4047L63.3042 40.1408C63.2909 40.1541 63.3042 40.1541 63.3175 40.1541Z" fill="#A8DDFF"/>
<path d="M92.0259 31.5234L94.9166 22.625H97.0884L92.9947 34H91.0806L87.0025 22.625H89.1666L92.0259 31.5234ZM100.463 34H98.4947V22.625H100.463V34ZM109.542 28.9219H104.87V32.4219H110.331V34H102.893V22.625H110.276V24.2188H104.87V27.3594H109.542V28.9219ZM105.995 19.9297H107.253L109.526 21.8828H107.87L106.628 20.7734L105.385 21.8828H103.721L105.995 19.9297ZM110.12 18.5625H111.854L110.167 20.6484H108.94L110.12 18.5625ZM120.315 24.2188H116.768V34H114.807V24.2188H111.292V22.625H120.315V24.2188ZM125.331 34V22.625H129.229C130.516 22.625 131.495 22.8828 132.167 23.3984C132.838 23.9141 133.174 24.6823 133.174 25.7031C133.174 26.224 133.034 26.6927 132.753 27.1094C132.471 27.526 132.06 27.849 131.518 28.0781C132.133 28.2448 132.607 28.5599 132.94 29.0234C133.279 29.4818 133.448 30.0339 133.448 30.6797C133.448 31.7474 133.104 32.5677 132.417 33.1406C131.734 33.7135 130.755 34 129.479 34H125.331ZM127.307 28.8672V32.4219H129.503C130.122 32.4219 130.607 32.2682 130.956 31.9609C131.305 31.6536 131.479 31.2266 131.479 30.6797C131.479 29.4974 130.875 28.8932 129.667 28.8672H127.307ZM127.307 27.4141H129.245C129.859 27.4141 130.338 27.276 130.682 27C131.031 26.7188 131.206 26.3229 131.206 25.8125C131.206 25.25 131.044 24.8438 130.721 24.5938C130.404 24.3438 129.906 24.2188 129.229 24.2188H127.307V27.4141ZM141.792 31.3516H137.385L136.463 34H134.409L138.706 22.625H140.479L144.784 34H142.721L141.792 31.3516ZM137.94 29.7578H141.237L139.588 25.0391L137.94 29.7578ZM140.612 21.9453H139.034L136.924 19.5781H139.088L140.612 21.9453ZM148.167 34H146.198V22.625H148.167V34ZM158.081 29.9297H153.979V28.3984H158.081V29.9297ZM164.049 34V28.9062H162.588V27.5781H164.049V22.625H167.409C168.414 22.625 169.305 22.849 170.081 23.2969C170.862 23.7448 171.466 24.3802 171.893 25.2031C172.32 26.026 172.534 26.9688 172.534 28.0312V28.6016C172.534 29.6797 172.318 30.6276 171.885 31.4453C171.458 32.263 170.846 32.8932 170.049 33.3359C169.258 33.7786 168.349 34 167.323 34H164.049ZM167.815 28.9062H166.026V32.4219H167.299C168.357 32.4219 169.161 32.0938 169.713 31.4375C170.271 30.776 170.549 29.8203 170.549 28.5703V28.0234C170.549 26.7891 170.281 25.8464 169.745 25.1953C169.208 24.5443 168.43 24.2188 167.409 24.2188H166.026V27.5781H167.815V28.9062ZM180.698 31.3516H176.292L175.37 34H173.315L177.612 22.625H179.385L183.69 34H181.628L180.698 31.3516ZM176.846 29.7578H180.143L178.495 25.0391L176.846 29.7578ZM181.057 19.7812C181.057 20.4375 180.828 20.9688 180.37 21.375C179.911 21.7812 179.299 21.9844 178.534 21.9844C177.768 21.9844 177.156 21.7812 176.698 21.375C176.239 20.9688 176.01 20.4375 176.01 19.7812H177.432C177.432 20.125 177.529 20.3932 177.721 20.5859C177.919 20.7734 178.19 20.8672 178.534 20.8672C178.878 20.8672 179.146 20.7734 179.338 20.5859C179.531 20.3932 179.628 20.125 179.628 19.7812H181.057ZM177.495 35.8594C177.495 35.5833 177.586 35.3516 177.768 35.1641C177.956 34.9818 178.221 34.8906 178.565 34.8906C178.909 34.8906 179.174 34.9818 179.362 35.1641C179.549 35.3516 179.643 35.5833 179.643 35.8594C179.643 36.1354 179.549 36.3646 179.362 36.5469C179.174 36.7292 178.909 36.8203 178.565 36.8203C178.221 36.8203 177.956 36.7292 177.768 36.5469C177.586 36.3646 177.495 36.1354 177.495 35.8594ZM192.268 24.2188H188.721V34H186.76V24.2188H183.245V22.625H192.268V24.2188ZM205.963 30.2969C205.849 31.5104 205.401 32.4583 204.62 33.1406C203.838 33.8177 202.799 34.1562 201.503 34.1562C200.596 34.1562 199.797 33.9427 199.104 33.5156C198.417 33.0833 197.885 32.4714 197.51 31.6797C197.135 30.888 196.94 29.9688 196.924 28.9219V27.8594C196.924 26.7865 197.114 25.8411 197.495 25.0234C197.875 24.2057 198.419 23.5755 199.128 23.1328C199.841 22.6901 200.664 22.4688 201.596 22.4688C202.851 22.4688 203.862 22.8099 204.628 23.4922C205.393 24.1745 205.838 25.138 205.963 26.3828H203.995C203.901 25.5651 203.661 24.9766 203.276 24.6172C202.896 24.2526 202.336 24.0703 201.596 24.0703C200.737 24.0703 200.075 24.3854 199.612 25.0156C199.154 25.6406 198.919 26.5599 198.909 27.7734V28.7812C198.909 30.0104 199.128 30.9479 199.565 31.5938C200.008 32.2396 200.654 32.5625 201.503 32.5625C202.279 32.5625 202.862 32.388 203.253 32.0391C203.643 31.6901 203.891 31.1094 203.995 30.2969H205.963ZM214.104 31.3516H209.698L208.776 34H206.721L211.018 22.625H212.792L217.096 34H215.034L214.104 31.3516ZM210.253 29.7578H213.549L211.901 25.0391L210.253 29.7578ZM214.628 21.7422V21.8281H213.104L211.932 20.6094L210.768 21.8281H209.26V21.7266L211.378 19.5703H212.495L214.628 21.7422ZM226.573 22.625V30.2266C226.573 31.4349 226.185 32.3932 225.409 33.1016C224.638 33.8047 223.609 34.1562 222.323 34.1562C221.021 34.1562 219.987 33.8099 219.221 33.1172C218.456 32.4193 218.073 31.4531 218.073 30.2188V22.625H220.042V30.2344C220.042 30.9948 220.234 31.5755 220.62 31.9766C221.005 32.3776 221.573 32.5781 222.323 32.5781C223.844 32.5781 224.604 31.776 224.604 30.1719V22.625H226.573ZM241.706 34H239.737V28.9453H234.651V34H232.674V22.625H234.651V27.3594H239.737V22.625H241.706V34ZM253.128 28.6094C253.128 29.724 252.935 30.7031 252.549 31.5469C252.164 32.3854 251.612 33.0312 250.893 33.4844C250.18 33.9323 249.357 34.1562 248.424 34.1562C247.503 34.1562 246.68 33.9323 245.956 33.4844C245.237 33.0312 244.68 32.388 244.284 31.5547C243.893 30.7214 243.695 29.7604 243.69 28.6719V28.0312C243.69 26.9219 243.885 25.9427 244.276 25.0938C244.672 24.2448 245.226 23.5964 245.94 23.1484C246.659 22.6953 247.482 22.4688 248.409 22.4688C249.336 22.4688 250.156 22.6927 250.87 23.1406C251.588 23.5833 252.143 24.224 252.534 25.0625C252.924 25.8958 253.122 26.8672 253.128 27.9766V28.6094ZM251.151 28.0156C251.151 26.7552 250.911 25.7891 250.432 25.1172C249.958 24.4453 249.284 24.1094 248.409 24.1094C247.555 24.1094 246.885 24.4453 246.401 25.1172C245.922 25.7839 245.677 26.7292 245.667 27.9531V28.6094C245.667 29.8594 245.909 30.8255 246.393 31.5078C246.883 32.1901 247.56 32.5312 248.424 32.5312C249.299 32.5312 249.971 32.1979 250.44 31.5312C250.914 30.8646 251.151 29.8906 251.151 28.6094V28.0156ZM247.745 21.7344L247.69 20.5938C248.07 20.5677 248.344 20.5182 248.51 20.4453C248.682 20.3724 248.768 20.2448 248.768 20.0625C248.768 19.6875 248.378 19.5 247.596 19.5L247.651 18.5391C248.531 18.5391 249.193 18.6745 249.635 18.9453C250.083 19.2161 250.307 19.5807 250.307 20.0391C250.307 20.3516 250.206 20.6094 250.003 20.8125C249.799 21.0156 249.51 21.1432 249.135 21.1953V21.7344H247.745ZM257.182 34H255.213V22.625H257.182V34Z" fill="white"/>
<defs>
<linearGradient id="paint0_linear" x1="2.23517e-06" y1="20" x2="300" y2="20" gradientUnits="userSpaceOnUse">
<stop stop-color="#1580C3"/>
<stop offset="1" stop-color="#004E80"/>
</linearGradient>
</defs>
</svg>
