<svg width="23" height="22" viewBox="0 0 23 22" fill="none" xmlns="http://www.w3.org/2000/svg">
<path d="M7.32267 6.27217C5.92353 4.84146 5.98665 2.95841 7.08071 1.83278C7.3445 1.56877 7.65772 1.35933 8.00249 1.21644C8.34726 1.07355 8.7168 1 9.09001 1C9.46322 1 9.83276 1.07355 10.1775 1.21644C10.5223 1.35933 10.8355 1.56877 11.0993 1.83278L11.5201 2.25357L11.9409 1.85382C12.4732 1.32384 13.1938 1.02629 13.9449 1.02629C14.6961 1.02629 15.4167 1.32384 15.949 1.85382C17.0746 2.95841 17.1377 4.84146 15.7386 6.27217M7.32267 6.27217L11.5306 10.4801L15.7386 6.27217M7.32267 6.27217C5.89197 4.87302 4.00891 4.93614 2.90432 6.06177C2.37434 6.59408 2.07679 7.31465 2.07679 8.06581C2.07679 8.81696 2.37434 9.53753 2.90432 10.0698L3.30408 10.4906L2.88328 10.9114C2.61927 11.1752 2.40984 11.4884 2.26694 11.8332C2.12405 12.178 2.0505 12.5475 2.0505 12.9207C2.0505 13.2939 2.12405 13.6635 2.26694 14.0083C2.40984 14.353 2.61927 14.6662 2.88328 14.93C4.00891 16.0241 5.89197 16.0872 7.32267 14.6881M15.7386 6.27217C17.1693 4.87302 19.0523 4.93614 20.178 6.03021C20.442 6.29399 20.6514 6.60722 20.7943 6.95199C20.9372 7.29675 21.0107 7.6663 21.0107 8.03951C21.0107 8.41271 20.9372 8.78226 20.7943 9.12703C20.6514 9.47179 20.442 9.78502 20.178 10.0488L19.7572 10.4696L20.1569 10.8904C20.6869 11.4227 20.9845 12.1433 20.9845 12.8944C20.9845 13.6456 20.6869 14.3662 20.1569 14.8985C19.0523 16.0241 17.1693 16.0872 15.7386 14.6881M6.27068 15.7401L1.01074 21M7.11227 19.1064C7.64458 19.6364 8.36515 19.934 9.11631 19.934C9.86747 19.934 10.588 19.6364 11.1203 19.1064L11.5411 18.7067L11.9619 19.1275C12.2257 19.3915 12.5389 19.6009 12.8837 19.7438C13.2285 19.8867 13.598 19.9602 13.9712 19.9602C14.3444 19.9602 14.714 19.8867 15.0588 19.7438C15.4035 19.6009 15.7167 19.3915 15.9805 19.1275C17.0956 18.0124 17.1588 16.1293 15.7596 14.6986L11.5517 10.4906L7.34371 14.6986C5.94457 16.1293 6.00768 18.0124 7.13331 19.1169L7.11227 19.1064Z" stroke="#828282" stroke-width="2" stroke-linecap="round" stroke-linejoin="round"/>
</svg>
