<svg width="17" height="17" viewBox="0 0 17 17" fill="none" xmlns="http://www.w3.org/2000/svg">
<path d="M16.5 8.5C16.5 10.6217 15.6571 12.6566 14.1569 14.1569C12.6566 15.6571 10.6217 16.5 8.5 16.5C6.37827 16.5 4.34344 15.6571 2.84315 14.1569C1.34285 12.6566 0.5 10.6217 0.5 8.5C0.5 6.37827 1.34285 4.34344 2.84315 2.84315C4.34344 1.34285 6.37827 0.5 8.5 0.5C10.6217 0.5 12.6566 1.34285 14.1569 2.84315C15.6571 4.34344 16.5 6.37827 16.5 8.5ZM9 5C9 4.86739 8.94732 4.74021 8.85355 4.64645C8.75979 4.55268 8.63261 4.5 8.5 4.5C8.36739 4.5 8.24021 4.55268 8.14645 4.64645C8.05268 4.74021 8 4.86739 8 5V10.793L5.854 8.646C5.76011 8.55211 5.63278 8.49937 5.5 8.49937C5.36722 8.49937 5.23989 8.55211 5.146 8.646C5.05211 8.73989 4.99937 8.86722 4.99937 9C4.99937 9.13278 5.05211 9.26011 5.146 9.354L8.146 12.354C8.19245 12.4006 8.24762 12.4375 8.30837 12.4627C8.36911 12.4879 8.43423 12.5009 8.5 12.5009C8.56577 12.5009 8.63089 12.4879 8.69163 12.4627C8.75238 12.4375 8.80755 12.4006 8.854 12.354L11.854 9.354C11.9479 9.26011 12.0006 9.13278 12.0006 9C12.0006 8.86722 11.9479 8.73989 11.854 8.646C11.7601 8.55211 11.6328 8.49937 11.5 8.49937C11.3672 8.49937 11.2399 8.55211 11.146 8.646L9 10.793V5Z" fill="white"/>
</svg>
