<svg width="149" height="36" viewBox="0 0 149 36" fill="none" xmlns="http://www.w3.org/2000/svg">
<rect x="2" width="147" height="36" fill="#087CCE"/>
<rect width="36" height="36" fill="#3B5999"/>
<path d="M21.6316 15.6789L21.339 18.0092H19.3885V25H16.7554V18.0092H15V15.6789H16.7554V14.2225C16.7554 13.3487 16.9505 12.5719 17.3406 11.7952C17.9257 11.2126 18.8034 10.9213 19.5836 11.0184H21.5341V13.4458H20.3638C20.0712 13.3487 19.7786 13.4458 19.5836 13.6399C19.3885 13.9312 19.3885 14.2225 19.3885 14.4167V15.5818H21.6316V15.6789Z" fill="white"/>
<path d="M51.2656 20.293C51.1602 21.1953 50.8262 21.8926 50.2637 22.3848C49.7051 22.873 48.9609 23.1172 48.0312 23.1172C47.0234 23.1172 46.2148 22.7559 45.6055 22.0332C45 21.3105 44.6973 20.3438 44.6973 19.1328V18.3125C44.6973 17.5195 44.8379 16.8223 45.1191 16.2207C45.4043 15.6191 45.8066 15.1582 46.3262 14.8379C46.8457 14.5137 47.4473 14.3516 48.1309 14.3516C49.0371 14.3516 49.7637 14.6055 50.3105 15.1133C50.8574 15.6172 51.1758 16.3164 51.2656 17.2109H50.1348C50.0371 16.5312 49.8242 16.0391 49.4961 15.7344C49.1719 15.4297 48.7168 15.2773 48.1309 15.2773C47.4121 15.2773 46.8477 15.543 46.4375 16.0742C46.0312 16.6055 45.8281 17.3613 45.8281 18.3418V19.168C45.8281 20.0938 46.0215 20.8301 46.4082 21.377C46.7949 21.9238 47.3359 22.1973 48.0312 22.1973C48.6562 22.1973 49.1348 22.0566 49.4668 21.7754C49.8027 21.4902 50.0254 20.9961 50.1348 20.293H51.2656ZM53.7207 17.4277C54.2012 16.8379 54.8262 16.543 55.5957 16.543C56.9355 16.543 57.6113 17.2988 57.623 18.8105V23H56.5391V18.8047C56.5352 18.3477 56.4297 18.0098 56.2227 17.791C56.0195 17.5723 55.7012 17.4629 55.2676 17.4629C54.916 17.4629 54.6074 17.5566 54.3418 17.7441C54.0762 17.9316 53.8691 18.1777 53.7207 18.4824V23H52.6367V14H53.7207V17.4277ZM60.4238 23H59.3398V16.6602H60.4238V23ZM59.252 14.9785C59.252 14.8027 59.3047 14.6543 59.4102 14.5332C59.5195 14.4121 59.6797 14.3516 59.8906 14.3516C60.1016 14.3516 60.2617 14.4121 60.3711 14.5332C60.4805 14.6543 60.5352 14.8027 60.5352 14.9785C60.5352 15.1543 60.4805 15.3008 60.3711 15.418C60.2617 15.5352 60.1016 15.5938 59.8906 15.5938C59.6797 15.5938 59.5195 15.5352 59.4102 15.418C59.3047 15.3008 59.252 15.1543 59.252 14.9785ZM66.0781 23C66.0156 22.875 65.9648 22.6523 65.9258 22.332C65.4219 22.8555 64.8203 23.1172 64.1211 23.1172C63.4961 23.1172 62.9824 22.9414 62.5801 22.5898C62.1816 22.2344 61.9824 21.7852 61.9824 21.2422C61.9824 20.582 62.2324 20.0703 62.7324 19.707C63.2363 19.3398 63.9434 19.1562 64.8535 19.1562H65.9082V18.6582C65.9082 18.2793 65.7949 17.9785 65.5684 17.7559C65.3418 17.5293 65.0078 17.416 64.5664 17.416C64.1797 17.416 63.8555 17.5137 63.5938 17.709C63.332 17.9043 63.2012 18.1406 63.2012 18.418H62.1113C62.1113 18.1016 62.2227 17.7969 62.4453 17.5039C62.6719 17.207 62.9766 16.9727 63.3594 16.8008C63.7461 16.6289 64.1699 16.543 64.6309 16.543C65.3613 16.543 65.9336 16.7266 66.3477 17.0938C66.7617 17.457 66.9766 17.959 66.9922 18.5996V21.5176C66.9922 22.0996 67.0664 22.5625 67.2148 22.9062V23H66.0781ZM64.2793 22.1738C64.6191 22.1738 64.9414 22.0859 65.2461 21.9102C65.5508 21.7344 65.7715 21.5059 65.9082 21.2246V19.9238H65.0586C63.7305 19.9238 63.0664 20.3125 63.0664 21.0898C63.0664 21.4297 63.1797 21.6953 63.4062 21.8867C63.6328 22.0781 63.9238 22.1738 64.2793 22.1738ZM75.3594 21.3184C75.3594 21.0254 75.248 20.7988 75.0254 20.6387C74.8066 20.4746 74.4219 20.334 73.8711 20.2168C73.3242 20.0996 72.8887 19.959 72.5645 19.7949C72.2441 19.6309 72.0059 19.4355 71.8496 19.209C71.6973 18.9824 71.6211 18.7129 71.6211 18.4004C71.6211 17.8809 71.8398 17.4414 72.2773 17.082C72.7188 16.7227 73.2812 16.543 73.9648 16.543C74.6836 16.543 75.2656 16.7285 75.7109 17.0996C76.1602 17.4707 76.3848 17.9453 76.3848 18.5234H75.2949C75.2949 18.2266 75.168 17.9707 74.9141 17.7559C74.6641 17.541 74.3477 17.4336 73.9648 17.4336C73.5703 17.4336 73.2617 17.5195 73.0391 17.6914C72.8164 17.8633 72.7051 18.0879 72.7051 18.3652C72.7051 18.627 72.8086 18.8242 73.0156 18.957C73.2227 19.0898 73.5957 19.2168 74.1348 19.3379C74.6777 19.459 75.1172 19.6035 75.4531 19.7715C75.7891 19.9395 76.0371 20.1426 76.1973 20.3809C76.3613 20.6152 76.4434 20.9023 76.4434 21.2422C76.4434 21.8086 76.2168 22.2637 75.7637 22.6074C75.3105 22.9473 74.7227 23.1172 74 23.1172C73.4922 23.1172 73.043 23.0273 72.6523 22.8477C72.2617 22.668 71.9551 22.418 71.7324 22.0977C71.5137 21.7734 71.4043 21.4238 71.4043 21.0488H72.4883C72.5078 21.4121 72.6523 21.7012 72.9219 21.916C73.1953 22.127 73.5547 22.2324 74 22.2324C74.4102 22.2324 74.7383 22.1504 74.9844 21.9863C75.2344 21.8184 75.3594 21.5957 75.3594 21.3184ZM80.4863 23.1172C79.627 23.1172 78.9277 22.8359 78.3887 22.2734C77.8496 21.707 77.5801 20.9512 77.5801 20.0059V19.8066C77.5801 19.1777 77.6992 18.6172 77.9375 18.125C78.1797 17.6289 78.5156 17.2422 78.9453 16.9648C79.3789 16.6836 79.8477 16.543 80.3516 16.543C81.1758 16.543 81.8164 16.8145 82.2734 17.3574C82.7305 17.9004 82.959 18.6777 82.959 19.6895V20.1406H78.6641C78.6797 20.7656 78.8613 21.2715 79.209 21.6582C79.5605 22.041 80.0059 22.2324 80.5449 22.2324C80.9277 22.2324 81.252 22.1543 81.5176 21.998C81.7832 21.8418 82.0156 21.6348 82.2148 21.377L82.877 21.8926C82.3457 22.709 81.5488 23.1172 80.4863 23.1172ZM80.3516 17.4336C79.9141 17.4336 79.5469 17.5938 79.25 17.9141C78.9531 18.2305 78.7695 18.6758 78.6992 19.25H81.875V19.168C81.8438 18.6172 81.6953 18.1914 81.4297 17.8906C81.1641 17.5859 80.8047 17.4336 80.3516 17.4336ZM79.9824 15.6348L79.9766 14.7383C80.2695 14.7188 80.4844 14.6797 80.6211 14.6211C80.7578 14.5625 80.8262 14.457 80.8262 14.3047C80.8262 14.1523 80.7363 14.0391 80.5566 13.9648C80.3809 13.8867 80.1465 13.8477 79.8535 13.8477L79.8945 13.2266C80.4766 13.2266 80.918 13.3281 81.2188 13.5312C81.5195 13.7305 81.6699 13.9961 81.6699 14.3281C81.6699 14.5664 81.5938 14.7637 81.4414 14.9199C81.2891 15.0762 81.0625 15.1758 80.7617 15.2188L80.7559 15.6348H79.9824ZM92.0703 19.2324H88.4902V23H87.3652V14.4688H92.6504V15.3945H88.4902V18.3125H92.0703V19.2324ZM97.543 23C97.4805 22.875 97.4297 22.6523 97.3906 22.332C96.8867 22.8555 96.2852 23.1172 95.5859 23.1172C94.9609 23.1172 94.4473 22.9414 94.0449 22.5898C93.6465 22.2344 93.4473 21.7852 93.4473 21.2422C93.4473 20.582 93.6973 20.0703 94.1973 19.707C94.7012 19.3398 95.4082 19.1562 96.3184 19.1562H97.373V18.6582C97.373 18.2793 97.2598 17.9785 97.0332 17.7559C96.8066 17.5293 96.4727 17.416 96.0312 17.416C95.6445 17.416 95.3203 17.5137 95.0586 17.709C94.7969 17.9043 94.666 18.1406 94.666 18.418H93.5762C93.5762 18.1016 93.6875 17.7969 93.9102 17.5039C94.1367 17.207 94.4414 16.9727 94.8242 16.8008C95.2109 16.6289 95.6348 16.543 96.0957 16.543C96.8262 16.543 97.3984 16.7266 97.8125 17.0938C98.2266 17.457 98.4414 17.959 98.457 18.5996V21.5176C98.457 22.0996 98.5312 22.5625 98.6797 22.9062V23H97.543ZM95.7441 22.1738C96.084 22.1738 96.4062 22.0859 96.7109 21.9102C97.0156 21.7344 97.2363 21.5059 97.373 21.2246V19.9238H96.5234C95.1953 19.9238 94.5312 20.3125 94.5312 21.0898C94.5312 21.4297 94.6445 21.6953 94.8711 21.8867C95.0977 22.0781 95.3887 22.1738 95.7441 22.1738ZM102.699 22.2324C103.086 22.2324 103.424 22.1152 103.713 21.8809C104.002 21.6465 104.162 21.3535 104.193 21.002H105.219C105.199 21.3652 105.074 21.7109 104.844 22.0391C104.613 22.3672 104.305 22.6289 103.918 22.8242C103.535 23.0195 103.129 23.1172 102.699 23.1172C101.836 23.1172 101.148 22.8301 100.637 22.2559C100.129 21.6777 99.875 20.8887 99.875 19.8887V19.707C99.875 19.0898 99.9883 18.541 100.215 18.0605C100.441 17.5801 100.766 17.207 101.188 16.9414C101.613 16.6758 102.115 16.543 102.693 16.543C103.404 16.543 103.994 16.7559 104.463 17.1816C104.936 17.6074 105.188 18.1602 105.219 18.8398H104.193C104.162 18.4297 104.006 18.0938 103.725 17.832C103.447 17.5664 103.104 17.4336 102.693 17.4336C102.143 17.4336 101.715 17.6328 101.41 18.0312C101.109 18.4258 100.959 18.998 100.959 19.748V19.9531C100.959 20.6836 101.109 21.2461 101.41 21.6406C101.711 22.0352 102.141 22.2324 102.699 22.2324ZM109.068 23.1172C108.209 23.1172 107.51 22.8359 106.971 22.2734C106.432 21.707 106.162 20.9512 106.162 20.0059V19.8066C106.162 19.1777 106.281 18.6172 106.52 18.125C106.762 17.6289 107.098 17.2422 107.527 16.9648C107.961 16.6836 108.43 16.543 108.934 16.543C109.758 16.543 110.398 16.8145 110.855 17.3574C111.312 17.9004 111.541 18.6777 111.541 19.6895V20.1406H107.246C107.262 20.7656 107.443 21.2715 107.791 21.6582C108.143 22.041 108.588 22.2324 109.127 22.2324C109.51 22.2324 109.834 22.1543 110.1 21.998C110.365 21.8418 110.598 21.6348 110.797 21.377L111.459 21.8926C110.928 22.709 110.131 23.1172 109.068 23.1172ZM108.934 17.4336C108.496 17.4336 108.129 17.5938 107.832 17.9141C107.535 18.2305 107.352 18.6758 107.281 19.25H110.457V19.168C110.426 18.6172 110.277 18.1914 110.012 17.8906C109.746 17.5859 109.387 17.4336 108.934 17.4336ZM118.168 19.9004C118.168 20.8691 117.945 21.6484 117.5 22.2383C117.055 22.8242 116.457 23.1172 115.707 23.1172C114.906 23.1172 114.287 22.834 113.85 22.2676L113.797 23H112.801V14H113.885V17.3574C114.322 16.8145 114.926 16.543 115.695 16.543C116.465 16.543 117.068 16.834 117.506 17.416C117.947 17.998 118.168 18.7949 118.168 19.8066V19.9004ZM117.084 19.7773C117.084 19.0391 116.941 18.4688 116.656 18.0664C116.371 17.6641 115.961 17.4629 115.426 17.4629C114.711 17.4629 114.197 17.7949 113.885 18.459V21.2012C114.217 21.8652 114.734 22.1973 115.438 22.1973C115.957 22.1973 116.361 21.9961 116.65 21.5938C116.939 21.1914 117.084 20.5859 117.084 19.7773ZM119.252 19.7715C119.252 19.1504 119.373 18.5918 119.615 18.0957C119.861 17.5996 120.201 17.2168 120.635 16.9473C121.072 16.6777 121.57 16.543 122.129 16.543C122.992 16.543 123.689 16.8418 124.221 17.4395C124.756 18.0371 125.023 18.832 125.023 19.8242V19.9004C125.023 20.5176 124.904 21.0723 124.666 21.5645C124.432 22.0527 124.094 22.4336 123.652 22.707C123.215 22.9805 122.711 23.1172 122.141 23.1172C121.281 23.1172 120.584 22.8184 120.049 22.2207C119.518 21.623 119.252 20.832 119.252 19.8477V19.7715ZM120.342 19.9004C120.342 20.6035 120.504 21.168 120.828 21.5938C121.156 22.0195 121.594 22.2324 122.141 22.2324C122.691 22.2324 123.129 22.0176 123.453 21.5879C123.777 21.1543 123.939 20.5488 123.939 19.7715C123.939 19.0762 123.773 18.5137 123.441 18.084C123.113 17.6504 122.676 17.4336 122.129 17.4336C121.594 17.4336 121.162 17.6465 120.834 18.0723C120.506 18.498 120.342 19.1074 120.342 19.9004ZM126.096 19.7715C126.096 19.1504 126.217 18.5918 126.459 18.0957C126.705 17.5996 127.045 17.2168 127.479 16.9473C127.916 16.6777 128.414 16.543 128.973 16.543C129.836 16.543 130.533 16.8418 131.064 17.4395C131.6 18.0371 131.867 18.832 131.867 19.8242V19.9004C131.867 20.5176 131.748 21.0723 131.51 21.5645C131.275 22.0527 130.938 22.4336 130.496 22.707C130.059 22.9805 129.555 23.1172 128.984 23.1172C128.125 23.1172 127.428 22.8184 126.893 22.2207C126.361 21.623 126.096 20.832 126.096 19.8477V19.7715ZM127.186 19.9004C127.186 20.6035 127.348 21.168 127.672 21.5938C128 22.0195 128.438 22.2324 128.984 22.2324C129.535 22.2324 129.973 22.0176 130.297 21.5879C130.621 21.1543 130.783 20.5488 130.783 19.7715C130.783 19.0762 130.617 18.5137 130.285 18.084C129.957 17.6504 129.52 17.4336 128.973 17.4336C128.438 17.4336 128.006 17.6465 127.678 18.0723C127.35 18.498 127.186 19.1074 127.186 19.9004ZM134.996 20.0645L134.316 20.7734V23H133.232V14H134.316V19.4434L134.896 18.7461L136.871 16.6602H138.189L135.723 19.3086L138.477 23H137.205L134.996 20.0645Z" fill="#FCFAF6"/>
</svg>
