<svg width="30" height="30" viewBox="0 0 30 30" fill="none" xmlns="http://www.w3.org/2000/svg">
<circle cx="15" cy="15" r="15" fill="#FF564F"/>
<path d="M11.3119 10.2722C9.91278 8.84146 9.9759 6.95841 11.07 5.83278C11.3338 5.56877 11.647 5.35933 11.9917 5.21644C12.3365 5.07355 12.7061 5 13.0793 5C13.4525 5 13.822 5.07355 14.1668 5.21644C14.5116 5.35933 14.8248 5.56877 15.0886 5.83278L15.5094 6.25357L15.9302 5.85382C16.4625 5.32384 17.183 5.02629 17.9342 5.02629C18.6853 5.02629 19.4059 5.32384 19.9382 5.85382C21.0639 6.95841 21.127 8.84146 19.7278 10.2722M11.3119 10.2722L15.5199 14.4801L19.7278 10.2722M11.3119 10.2722C9.88122 8.87302 7.99817 8.93614 6.89358 10.0618C6.3636 10.5941 6.06605 11.3147 6.06605 12.0658C6.06605 12.817 6.3636 13.5375 6.89358 14.0698L7.29333 14.4906L6.87254 14.9114C6.60853 15.1752 6.39909 15.4884 6.2562 15.8332C6.11331 16.178 6.03976 16.5475 6.03976 16.9207C6.03976 17.2939 6.11331 17.6635 6.2562 18.0083C6.39909 18.353 6.60853 18.6662 6.87254 18.93C7.99817 20.0241 9.88122 20.0872 11.3119 18.6881M19.7278 10.2722C21.1585 8.87302 23.0416 8.93614 24.1672 10.0302C24.4312 10.294 24.6407 10.6072 24.7836 10.952C24.9265 11.2968 25 11.6663 25 12.0395C25 12.4127 24.9265 12.7823 24.7836 13.127C24.6407 13.4718 24.4312 13.785 24.1672 14.0488L23.7464 14.4696L24.1462 14.8904C24.6762 15.4227 24.9737 16.1433 24.9737 16.8944C24.9737 17.6456 24.6762 18.3662 24.1462 18.8985C23.0416 20.0241 21.1585 20.0872 19.7278 18.6881M10.2599 19.7401L5 25M11.1015 23.1064C11.6338 23.6364 12.3544 23.934 13.1056 23.934C13.8567 23.934 14.5773 23.6364 15.1096 23.1064L15.5304 22.7067L15.9512 23.1275C16.215 23.3915 16.5282 23.6009 16.873 23.7438C17.2177 23.8867 17.5873 23.9602 17.9605 23.9602C18.3337 23.9602 18.7032 23.8867 19.048 23.7438C19.3928 23.6009 19.706 23.3915 19.9698 23.1275C21.0849 22.0124 21.148 20.1293 19.7489 18.6986L15.5409 14.4906L11.333 18.6986C9.93382 20.1293 9.99694 22.0124 11.1226 23.1169L11.1015 23.1064Z" stroke="white" stroke-width="2" stroke-linecap="round" stroke-linejoin="round"/>
</svg>
