<svg width="16" height="16" viewBox="0 0 16 16" fill="none" xmlns="http://www.w3.org/2000/svg">
<path d="M10.9483 16L12.9471 16C13.5468 16 13.9465 15.6006 13.9465 15.0016L13.9465 7.91264L14.946 7.91264C15.2458 7.91264 15.5456 7.81279 15.7455 7.6131C16.1453 7.21373 16.0453 6.61466 15.6456 6.21529L8.64962 0.224647C8.24985 -0.0748849 7.75014 -0.0748849 7.35037 0.224647L0.354428 6.21529C-0.04534 6.61466 -0.145282 7.21373 0.254486 7.6131C0.354428 7.81279 0.654254 7.91264 0.95408 7.91264C1.15396 7.91264 1.9535 7.91264 1.9535 7.91264L1.9535 15.0016C1.9535 15.6006 2.35327 16 2.95292 16L4.95176 16C5.55141 16 5.95118 15.6006 5.95118 15.0016L5.95118 11.9064L9.94886 11.9064L9.94886 15.0016C9.94886 15.6006 10.3486 16 10.9483 16Z" fill="#FFDA01"/>
</svg>
