<svg width="80" height="36" viewBox="0 0 80 36" fill="none" xmlns="http://www.w3.org/2000/svg">
<path d="M0 0H80V36H0V0Z" fill="#087CCE"/>
<path d="M43.4585 14.7607H40.4878V23H39.2754V14.7607H36.311V13.7578H43.4585V14.7607ZM45.8198 16.9634C46.3403 16.3244 47.0174 16.0049 47.8511 16.0049C49.3026 16.0049 50.0347 16.8237 50.0474 18.4614V23H48.873V18.4551C48.8688 17.96 48.7546 17.5939 48.5303 17.3569C48.3102 17.12 47.9653 17.0015 47.4956 17.0015C47.1147 17.0015 46.7804 17.103 46.4927 17.3062C46.2049 17.5093 45.9806 17.7759 45.8198 18.106V23H44.6455V13.25H45.8198V16.9634ZM53.0815 23H51.9009V16.1318H53.0815V23ZM53.0942 13.2563H54.5161L52.8149 15.1226H51.8691L53.0942 13.2563ZM57.7725 22.1685C58.1914 22.1685 58.5575 22.0415 58.8706 21.7876C59.1838 21.5337 59.3573 21.2163 59.3911 20.8354H60.502C60.4808 21.229 60.3454 21.6035 60.0957 21.959C59.846 22.3145 59.5117 22.598 59.0928 22.8096C58.6781 23.0212 58.238 23.127 57.7725 23.127C56.8372 23.127 56.0924 22.8159 55.5381 22.1938C54.988 21.5675 54.7129 20.7127 54.7129 19.6294V19.4326C54.7129 18.764 54.8356 18.1694 55.0811 17.6489C55.3265 17.1284 55.6777 16.7243 56.1348 16.4365C56.596 16.1488 57.1398 16.0049 57.7661 16.0049C58.5363 16.0049 59.1753 16.2355 59.6831 16.6968C60.1951 17.158 60.4681 17.7568 60.502 18.4932H59.3911C59.3573 18.0488 59.188 17.6849 58.8833 17.4014C58.5828 17.1136 58.2104 16.9697 57.7661 16.9697C57.1694 16.9697 56.7061 17.1855 56.376 17.6172C56.0501 18.0446 55.8872 18.6646 55.8872 19.4771V19.6992C55.8872 20.4906 56.0501 21.0999 56.376 21.5273C56.7018 21.9548 57.1673 22.1685 57.7725 22.1685ZM62.9966 16.9634C63.5171 16.3244 64.1942 16.0049 65.0278 16.0049C66.4793 16.0049 67.2114 16.8237 67.2241 18.4614V23H66.0498V18.4551C66.0456 17.96 65.9313 17.5939 65.707 17.3569C65.487 17.12 65.1421 17.0015 64.6724 17.0015C64.2915 17.0015 63.9572 17.103 63.6694 17.3062C63.3817 17.5093 63.1574 17.7759 62.9966 18.106V23H61.8223V13.25H62.9966V16.9634Z" fill="#FCFAF6"/>
<path d="M24.4493 14.6162H20.4243V10.8721C20.4243 9.46802 19.6755 9 18.5523 9C18.2714 9 17.9906 9.18721 17.9906 9.46802C17.9906 9.46802 15.8377 16.4883 15.7441 16.4883V23.9766H23.7941C25.0109 23.9766 26.0406 23.0406 26.2278 21.8237L26.9766 17.5179C27.0702 16.7691 26.883 16.0203 26.415 15.5523C25.947 14.897 25.1981 14.6162 24.4493 14.6162Z" fill="white"/>
<path d="M12 16.4883H13.8721V23.9766H12L12 16.4883Z" fill="white"/>
</svg>
