<svg width="296" height="65" viewBox="0 0 296 65" fill="none" xmlns="http://www.w3.org/2000/svg">
<path d="M0.467315 48.9016H3.01581C5.55344 48.9016 7.08579 47.2931 7.08579 44.962C7.08579 42.6254 5.48823 41.0007 2.98321 41.0007H0.467315V48.9016ZM1.80949 47.7007V42.2016H3.01038C4.59164 42.2016 5.70015 43.359 5.70015 44.962C5.70015 46.5269 4.60794 47.6952 2.9343 47.6952L1.80949 47.7007Z" fill="url(#paint0_linear)"/>
<path d="M9.21588 42.6689C9.67233 42.6689 10.0527 42.2939 10.0527 41.8375C10.0527 41.3865 9.67233 41.0115 9.21588 41.0115C8.74313 41.0115 8.37363 41.3865 8.37363 41.8375C8.37363 42.2939 8.74313 42.6689 9.21588 42.6689ZM8.58555 48.9016H9.82991V43.4785H8.58555V48.9016Z" fill="url(#paint1_linear)"/>
<path d="M13.3239 40.3595C13.5684 40.3595 13.6717 40.4736 13.889 40.604C14.1553 40.7724 14.4596 40.9572 14.8671 40.9572C15.4377 40.9572 15.8833 40.4464 16.1006 39.6313L15.3453 39.3814C15.2095 39.7346 14.9812 39.9519 14.715 39.9519C14.4813 39.9519 14.2857 39.8106 14.0738 39.6748C13.8293 39.5227 13.6228 39.3596 13.1881 39.3596C12.6773 39.3596 12.2534 39.865 12.0306 40.5877L12.7914 40.9355C12.9327 40.5823 13.1446 40.3595 13.3239 40.3595ZM13.3945 41.1094L12.1393 42.745H13.3565L13.9597 41.9081H13.9923L14.6009 42.745H15.8235L14.5139 41.1094H13.3945ZM16.5027 46.1303C16.5027 44.549 15.4703 43.397 13.8619 43.397C12.3512 43.397 11.2156 44.5273 11.2156 46.19C11.2156 47.8854 12.411 48.9939 13.9923 48.9939C15.0573 48.9939 15.8181 48.5592 16.2799 47.9669L15.4105 47.2225C15.1334 47.5702 14.6878 47.8637 14.0575 47.8637C13.2587 47.8637 12.6773 47.3964 12.5143 46.6248H16.4701C16.481 46.5269 16.5027 46.3205 16.5027 46.1303ZM13.9325 44.5273C14.6443 44.5273 15.0899 44.962 15.2529 45.6195H12.536C12.7153 44.9131 13.2533 44.5273 13.9271 44.5273H13.9325Z" fill="url(#paint2_linear)"/>
<path d="M20.8661 43.397C20.1652 43.397 19.5077 43.685 19.0458 44.223H19.0295V43.4785H17.7851V48.9016H19.0295V46.1792C19.0295 45.1141 19.5946 44.5273 20.4369 44.5273C21.1867 44.5273 21.616 44.8859 21.616 46.0325V48.9124H22.8604V45.7119C22.8604 44.0817 22.0562 43.397 20.8661 43.397Z" fill="url(#paint3_linear)"/>
<path d="M33.3369 41.8049H32.6523V40.7127H31.4079V41.8049H30.2016V42.658H31.4079V44.1306H31.3807C30.9732 43.647 30.3755 43.397 29.6636 43.397C28.1747 43.397 27.0499 44.5762 27.0499 46.2172C27.0499 47.8963 28.1747 48.9885 29.6799 48.9885C30.4515 48.9885 31.0493 48.7005 31.4405 48.1788H31.4622V48.907H32.6523V42.658H33.3369V41.8049ZM29.8701 47.8637C28.9518 47.8637 28.3106 47.1844 28.3106 46.2226C28.3106 45.1793 29.0061 44.5273 29.8755 44.5273C30.8102 44.5273 31.4568 45.2608 31.4568 46.2226C31.4568 47.2062 30.7558 47.8637 29.8701 47.8637Z" fill="url(#paint4_linear)"/>
<path d="M37.6134 42.7232L36.3419 41.1148L34.9671 41.1094L36.3473 42.7232H37.6134ZM38.1459 43.4785V44.1306H38.1188C37.7112 43.647 37.1352 43.397 36.4451 43.397C34.9508 43.397 33.826 44.5762 33.826 46.2172C33.826 47.8963 34.9508 48.9885 36.456 48.9885C37.2059 48.9885 37.7873 48.7005 38.184 48.1788H38.2003V48.907H39.3903V43.4785H38.1459ZM36.6516 47.8637C35.7333 47.8637 35.0921 47.1844 35.0921 46.2226C35.0921 45.1793 35.7876 44.5273 36.657 44.5273C37.5482 44.5273 38.1894 45.2608 38.1894 46.2226C38.1894 47.2062 37.4884 47.8637 36.6462 47.8637H36.6516Z" fill="url(#paint5_linear)"/>
<path d="M44.0363 43.397C43.3353 43.397 42.6778 43.685 42.2159 44.223H42.1996V43.4785H40.9552V48.9016H42.1996V46.1792C42.1996 45.1141 42.7647 44.5273 43.607 44.5273C44.3569 44.5273 44.7861 44.8859 44.7861 46.0325V48.9124H46.0305V45.7119C46.0305 44.0817 45.2263 43.397 44.0363 43.397Z" fill="url(#paint6_linear)"/>
<path d="M52.3284 48.9016H53.6705V42.2016H55.9365V41.0007H50.0842V42.2016H52.3284V48.9016Z" fill="url(#paint7_linear)"/>
<path d="M60.2075 43.397C59.4848 43.397 58.8273 43.6524 58.3709 44.1578H58.3491V40.7127H57.1048V48.9016H58.3491V46.1411C58.3491 45.0761 58.9143 44.5218 59.8108 44.5218C60.5607 44.5218 60.99 44.8913 60.99 45.9727V48.907H62.2344V45.6521C62.2344 44.0328 61.403 43.3916 60.2075 43.3916V43.397Z" fill="url(#paint8_linear)"/>
<path d="M66.2772 41.9081H66.3098L66.9129 42.7395H68.141L66.8314 41.1039H65.7121L64.4568 42.7395H65.674L66.2772 41.9081ZM66.3043 43.397C64.5872 43.397 63.4516 44.5979 63.4516 46.2009C63.4516 47.793 64.5872 48.9885 66.3043 48.9885C67.9671 48.9885 69.1517 47.8528 69.1517 46.2009C69.1517 44.5381 67.9671 43.397 66.3043 43.397ZM66.3043 47.8637C65.3697 47.8637 64.7177 47.1301 64.7177 46.2009C64.7177 45.2554 65.3534 44.5273 66.3043 44.5273C67.1955 44.5273 67.8856 45.2065 67.8856 46.2009C67.8856 47.179 67.1846 47.8637 66.3043 47.8637Z" fill="url(#paint9_linear)"/>
<path d="M73.5314 43.397C72.8305 43.397 72.173 43.685 71.7111 44.223H71.6948V43.4785H70.4504V48.9016H71.6948V46.1792C71.6948 45.1141 72.2599 44.5273 73.1021 44.5273C73.852 44.5273 74.2813 44.8859 74.2813 46.0325V48.9124H75.5257V45.7119C75.5257 44.0817 74.7214 43.397 73.5314 43.397Z" fill="url(#paint10_linear)"/>
<path d="M81.0085 43.4785V44.0491H80.9867C80.5303 43.6144 79.9271 43.3916 79.3022 43.3916C77.7916 43.3916 76.7157 44.5436 76.7157 46.1303C76.7157 47.7441 77.8459 48.8092 79.3674 48.8092C80.0467 48.8092 80.6064 48.5755 81.0139 48.1462H81.0356V48.7222C81.0356 49.4504 80.4868 50.059 79.4163 50.059C78.6501 50.059 78.1611 49.8362 77.5742 49.521L77.2808 50.6241C77.8894 50.9827 78.6773 51.1838 79.4924 51.1838C81.5029 51.1838 82.2583 49.9883 82.2583 48.3419V43.4731L81.0085 43.4785ZM79.5359 47.6681C78.661 47.6681 77.9872 47.0703 77.9872 46.0922C77.9872 45.1739 78.6121 44.5327 79.5359 44.5327C80.3999 44.5327 81.0682 45.1467 81.0682 46.0759C81.0682 46.9943 80.4433 47.6626 79.5359 47.6626V47.6681Z" fill="url(#paint11_linear)"/>
<path d="M88.4203 48.9885C89.1267 48.9885 89.469 48.8418 89.7951 48.6733L89.469 47.5974C89.181 47.7496 88.8767 47.8311 88.6648 47.8311C88.317 47.8311 88.1432 47.63 88.1432 47.0758V44.5381H89.7462V43.4785H88.1432V41.5386L86.9042 41.6745V43.4785H86.2413V44.5381H86.9042V47.1899C86.9042 48.4016 87.4802 48.9885 88.4203 48.9885Z" fill="url(#paint12_linear)"/>
<path d="M91.5176 42.6689C91.9741 42.6689 92.3544 42.2939 92.3544 41.8375C92.3544 41.3865 91.9741 41.0115 91.5176 41.0115C91.0449 41.0115 90.6754 41.3865 90.6754 41.8375C90.6754 42.2939 91.0449 42.6689 91.5176 42.6689ZM90.8873 48.9016H92.1316V43.4785H90.8873V48.9016Z" fill="url(#paint13_linear)"/>
<path d="M96.9189 43.397C96.2179 43.397 95.5604 43.685 95.0985 44.223H95.0822V43.4785H93.8379V48.9016H95.0822V46.1792C95.0822 45.1141 95.6474 44.5273 96.4896 44.5273C97.2395 44.5273 97.6688 44.8859 97.6688 46.0325V48.9124H98.9131V45.7119C98.9131 44.0817 98.1089 43.397 96.9189 43.397Z" fill="url(#paint14_linear)"/>
<path d="M105.597 46.6248L107.01 48.9016H108.406L106.423 45.6738L108.379 43.4785H106.901L104.684 45.9564H104.668V40.7127H103.423V48.9016H104.668V47.6409L105.575 46.6248H105.597Z" fill="url(#paint15_linear)"/>
<path d="M115.443 40.1149L114.074 40.1204L112.797 41.7288H113.737L115.443 40.1149ZM111.498 41.9027H111.531L112.139 42.7395H113.362L112.052 41.1039H110.933L109.678 42.7395H110.895L111.498 41.9027ZM111.406 43.3916C109.895 43.3916 108.759 44.5218 108.759 46.1846C108.759 47.8854 109.955 48.9885 111.536 48.9885C112.601 48.9885 113.362 48.5538 113.824 47.9669L112.954 47.2225C112.677 47.5702 112.232 47.8582 111.601 47.8582C110.802 47.8582 110.216 47.3909 110.053 46.6248H114.008C114.025 46.5269 114.041 46.3205 114.041 46.1303C114.041 44.549 113.009 43.397 111.406 43.397V43.3916ZM111.471 44.5273C112.183 44.5273 112.634 44.962 112.791 45.6195H110.074C110.254 44.9131 110.792 44.5273 111.471 44.5273Z" fill="url(#paint16_linear)"/>
<path d="M116.948 48.9885C117.655 48.9885 117.997 48.8418 118.323 48.6733L117.997 47.5974C117.709 47.7496 117.405 47.8311 117.193 47.8311C116.845 47.8311 116.671 47.63 116.671 47.0758V44.5381H118.274V43.4785H116.671V41.5386L115.432 41.6745V43.4785H114.769V44.5381H115.432V47.1899C115.432 48.4016 116.008 48.9885 116.948 48.9885Z" fill="url(#paint17_linear)"/>
<path d="M125.447 43.397C124.746 43.397 124.088 43.685 123.626 44.223H123.61V43.4785H122.366V48.9016H123.61V46.1792C123.61 45.1141 124.175 44.5273 125.018 44.5273C125.767 44.5273 126.197 44.8859 126.197 46.0325V48.9124H127.441V45.7119C127.441 44.0817 126.637 43.397 125.447 43.397Z" fill="url(#paint18_linear)"/>
<path d="M135.44 40.1149L134.07 40.1204L132.793 41.7288H133.734L135.44 40.1149ZM131.495 41.9027H131.527L132.136 42.7395H133.359L132.054 41.1039H130.935L129.68 42.7395H130.897L131.495 41.9027ZM131.511 43.3916C129.794 43.3916 128.658 44.5925 128.658 46.1955C128.658 47.793 129.794 48.9885 131.511 48.9885C133.174 48.9885 134.358 47.8474 134.358 46.1955C134.358 44.5381 133.174 43.397 131.511 43.397V43.3916ZM131.511 47.8582C130.576 47.8582 129.924 47.1301 129.924 46.2009C129.924 45.2554 130.56 44.5273 131.511 44.5273C132.402 44.5273 133.092 45.2065 133.092 46.2009C133.092 47.179 132.391 47.8637 131.511 47.8637V47.8582Z" fill="url(#paint19_linear)"/>
<path d="M136.369 42.6689C136.825 42.6689 137.206 42.2939 137.206 41.8375C137.206 41.3865 136.825 41.0115 136.369 41.0115C135.896 41.0115 135.527 41.3865 135.527 41.8375C135.527 42.2939 135.896 42.6689 136.369 42.6689ZM135.739 48.9016H136.983V43.4785H135.739V48.9016Z" fill="url(#paint20_linear)"/>
<path d="M143.406 48.9885C144.786 48.9885 145.433 48.2604 145.433 47.3475C145.433 46.2661 144.705 46.0596 143.553 45.6032C143.036 45.3967 142.694 45.2065 142.694 44.9402C142.694 44.6088 143.042 44.4729 143.286 44.4729C143.71 44.4729 144.21 44.6468 144.65 45.0544L145.275 44.0763C144.667 43.5872 144.042 43.397 143.352 43.397C142.243 43.397 141.439 44.0491 141.439 44.9348C141.439 45.9999 142.205 46.4074 143.096 46.7117C143.808 46.9562 144.172 47.0921 144.172 47.3746C144.172 47.6898 143.889 47.9072 143.411 47.9072C142.743 47.9072 142.281 47.6952 141.846 47.2659L141.216 48.2006C141.792 48.7059 142.536 48.9939 143.411 48.9939L143.406 48.9885Z" fill="url(#paint21_linear)"/>
<path d="M149.149 41.5821C149.312 41.5821 149.47 41.6201 149.47 41.8049C149.47 42.1798 148.541 42.2885 148.541 42.6363C148.541 42.7721 148.633 42.8645 148.758 42.9732H149.247L149.345 42.6852C149.981 42.5548 150.334 42.245 150.334 41.794C150.334 41.2995 149.948 40.9246 149.226 40.9246C148.709 40.9246 148.155 41.1528 147.856 41.4517L148.356 41.9244C148.557 41.7125 148.84 41.5767 149.149 41.5767V41.5821ZM150.508 43.4731V44.1306H150.486C150.079 43.647 149.497 43.397 148.807 43.397C147.313 43.397 146.188 44.5707 146.188 46.2172C146.188 47.8908 147.313 48.9885 148.818 48.9885C149.568 48.9885 150.149 48.7005 150.546 48.1788H150.562V48.9016H151.752V43.4785L150.508 43.4731ZM149.014 47.8582C148.095 47.8582 147.454 47.1844 147.454 46.2226C147.454 45.1793 148.15 44.5273 149.019 44.5273C149.91 44.5273 150.557 45.2608 150.557 46.2172C150.557 47.2007 149.856 47.8582 149.014 47.8582Z" fill="url(#paint22_linear)"/>
<path d="M156.398 43.397C155.697 43.397 155.04 43.685 154.578 44.223H154.562V43.4785H153.317V48.9016H154.562V46.1792C154.562 45.1141 155.127 44.5273 155.969 44.5273C156.719 44.5273 157.148 44.8859 157.148 46.0325V48.9124H158.393V45.7119C158.393 44.0817 157.588 43.397 156.398 43.397Z" fill="url(#paint23_linear)"/>
<path d="M166.272 48.9016H167.657L165.734 46.1357L167.625 43.4785H166.196L165.033 45.1848H165.006L163.854 43.4785H162.414L164.31 46.1411L162.403 48.9016H163.772L165.011 47.1953H165.038L166.272 48.9016Z" fill="url(#paint24_linear)"/>
<path d="M172.39 43.4785V46.0759C172.39 47.2496 171.722 47.8582 170.994 47.8582C170.238 47.8582 169.912 47.5322 169.912 46.4454V43.4785H168.668V46.7823C168.668 48.3962 169.499 48.9885 170.695 48.9885C171.331 48.9885 171.934 48.7168 172.368 48.2006H172.385V48.9016H173.629V43.4785H172.39Z" fill="url(#paint25_linear)"/>
<path d="M181.72 40.1149L180.351 40.1204L179.079 41.7288H180.019L181.72 40.1149ZM177.781 41.9027H177.813L178.416 42.7395H179.644L178.335 41.1039H177.216L175.96 42.7395H177.177L177.781 41.9027ZM179.199 44.1306H179.172C178.764 43.647 178.188 43.397 177.498 43.397C176.004 43.397 174.879 44.5707 174.879 46.2172C174.879 47.8908 176.004 48.9885 177.509 48.9885C178.259 48.9885 178.84 48.7005 179.237 48.1788H179.253V48.9016H180.443V43.4785H179.199V44.1306ZM177.705 47.8582C176.786 47.8582 176.145 47.1844 176.145 46.2226C176.145 45.1793 176.841 44.5273 177.71 44.5273C178.601 44.5273 179.242 45.2608 179.242 46.2172C179.242 47.2007 178.541 47.8582 177.699 47.8582H177.705Z" fill="url(#paint26_linear)"/>
<path d="M183.633 48.9885C184.339 48.9885 184.682 48.8418 185.008 48.6733L184.682 47.5974C184.394 47.7496 184.089 47.8311 183.877 47.8311C183.53 47.8311 183.356 47.63 183.356 47.0758V44.5381H184.959V43.4785H183.356V41.5386L182.117 41.6745V43.4785H181.454V44.5381H182.117V47.1899C182.117 48.4016 182.693 48.9885 183.633 48.9885Z" fill="url(#paint27_linear)"/>
<path d="M192.621 43.4785L191.23 47.3475H191.208L189.79 43.4785H188.458L190.621 48.9016H191.811L193.963 43.4785H192.621Z" fill="url(#paint28_linear)"/>
<path d="M198.152 42.7232L196.881 41.1148L195.506 41.1094L196.886 42.7232H198.152ZM198.685 43.4785V44.1306H198.658C198.25 43.647 197.674 43.397 196.984 43.397C195.49 43.397 194.365 44.5762 194.365 46.2172C194.365 47.8963 195.49 48.9885 196.995 48.9885C197.745 48.9885 198.326 48.7005 198.723 48.1788H198.739V48.907H199.929V43.4785H198.685ZM197.191 47.8637C196.272 47.8637 195.631 47.1844 195.631 46.2226C195.631 45.1793 196.327 44.5273 197.196 44.5273C198.087 44.5273 198.728 45.2608 198.728 46.2226C198.728 47.2062 198.027 47.8637 197.185 47.8637H197.191Z" fill="url(#paint29_linear)"/>
<path d="M206.097 48.9885C206.803 48.9885 207.145 48.8418 207.471 48.6733L207.145 47.5974C206.857 47.7496 206.553 47.8311 206.341 47.8311C205.993 47.8311 205.82 47.63 205.82 47.0758V44.5381H207.423V43.4785H205.82V41.5386L204.581 41.6745V43.4785H203.918V44.5381H204.581V47.1899C204.581 48.4016 205.157 48.9885 206.097 48.9885Z" fill="url(#paint30_linear)"/>
<path d="M209.194 42.6689C209.65 42.6689 210.031 42.2939 210.031 41.8375C210.031 41.3865 209.65 41.0115 209.194 41.0115C208.721 41.0115 208.352 41.3865 208.352 41.8375C208.352 42.2939 208.721 42.6689 209.194 42.6689ZM208.564 48.9016H209.808V43.4785H208.564V48.9016Z" fill="url(#paint31_linear)"/>
<path d="M213.916 41.9081H213.949L214.557 42.7395H215.78L214.47 41.1039H213.356L212.101 42.7395H213.318L213.916 41.9081ZM216.481 46.1248C216.481 44.5436 215.448 43.397 213.84 43.397C212.329 43.397 211.194 44.5273 211.194 46.19C211.194 47.8854 212.389 48.9885 213.97 48.9885C215.035 48.9885 215.796 48.5592 216.258 47.9669L215.389 47.2225C215.111 47.5702 214.666 47.8637 214.036 47.8637C213.237 47.8637 212.65 47.3964 212.487 46.6248H216.443C216.459 46.5269 216.481 46.3205 216.481 46.1303V46.1248ZM213.905 44.5273C214.617 44.5273 215.068 44.962 215.231 45.6195H212.509C212.688 44.9131 213.226 44.5273 213.905 44.5273Z" fill="url(#paint32_linear)"/>
<path d="M221.382 43.4785V46.0759C221.382 47.2496 220.714 47.8582 219.986 47.8582C219.23 47.8582 218.904 47.5322 218.904 46.4454V43.4785H217.66V46.7823C217.66 48.3962 218.491 48.9885 219.687 48.9885C220.323 48.9885 220.926 48.7168 221.36 48.2006H221.377V48.9016H222.621V43.4785H221.382Z" fill="url(#paint33_linear)"/>
<path d="M228.799 48.9885C229.506 48.9885 229.848 48.8418 230.174 48.6733L229.848 47.5974C229.56 47.7496 229.256 47.8311 229.044 47.8311C228.696 47.8311 228.522 47.63 228.522 47.0758V44.5381H230.125V43.4785H228.522V41.5386L227.283 41.6745V43.4785H226.62V44.5381H227.283V47.1899C227.283 48.4016 227.859 48.9885 228.799 48.9885Z" fill="url(#paint34_linear)"/>
<path d="M234.342 43.397C233.619 43.397 232.962 43.6524 232.505 44.1578H232.484V40.7127H231.239V48.9016H232.484V46.1411C232.484 45.0761 233.049 44.5218 233.945 44.5218C234.695 44.5218 235.124 44.8913 235.124 45.9727V48.907H236.369V45.6521C236.369 44.0328 235.537 43.3916 234.342 43.3916V43.397Z" fill="url(#paint35_linear)"/>
<path d="M241.52 43.4785V46.0759C241.52 47.2496 240.852 47.8582 240.124 47.8582C239.368 47.8582 239.042 47.5322 239.042 46.4454V43.4785H237.798V46.7823C237.798 48.3962 238.629 48.9885 239.825 48.9885C240.461 48.9885 241.064 48.7168 241.498 48.2006H241.515V48.9016H242.759V43.4785H241.52ZM240.336 49.9938C239.879 49.9938 239.499 50.3633 239.499 50.8197C239.499 51.2707 239.879 51.6457 240.336 51.6457C240.808 51.6457 241.178 51.2707 241.178 50.8197C241.178 50.3633 240.808 49.9938 240.336 49.9938Z" fill="url(#paint36_linear)"/>
<path d="M250.394 43.397C249.693 43.397 249.035 43.685 248.573 44.223H248.557V43.4785H247.313V48.9016H248.557V46.1792C248.557 45.1141 249.122 44.5273 249.964 44.5273C250.714 44.5273 251.144 44.8859 251.144 46.0325V48.9124H252.388V45.7119C252.388 44.0817 251.584 43.397 250.394 43.397Z" fill="url(#paint37_linear)"/>
<path d="M256.431 41.9081H256.463L257.067 42.7395H258.295L256.985 41.1039H255.866L254.61 42.7395H255.828L256.431 41.9081ZM256.458 43.397C254.741 43.397 253.605 44.5979 253.605 46.2009C253.605 47.793 254.741 48.9885 256.458 48.9885C258.121 48.9885 259.305 47.8528 259.305 46.2009C259.305 44.5381 258.121 43.397 256.458 43.397ZM256.458 47.8637C255.523 47.8637 254.871 47.1301 254.871 46.2009C254.871 45.2554 255.507 44.5273 256.458 44.5273C257.349 44.5273 258.039 45.2065 258.039 46.2009C258.039 47.179 257.338 47.8637 256.458 47.8637Z" fill="url(#paint38_linear)"/>
<path d="M263.685 43.397C262.984 43.397 262.327 43.685 261.865 44.223H261.848V43.4785H260.604V48.9016H261.848V46.1792C261.848 45.1141 262.414 44.5273 263.256 44.5273C264.006 44.5273 264.435 44.8859 264.435 46.0325V48.9124H265.679V45.7119C265.679 44.0817 264.875 43.397 263.685 43.397Z" fill="url(#paint39_linear)"/>
<path d="M271.162 43.4785V44.0491H271.14C270.684 43.6144 270.081 43.3916 269.456 43.3916C267.945 43.3916 266.869 44.5436 266.869 46.1303C266.869 47.7441 268 48.8092 269.521 48.8092C270.2 48.8092 270.76 48.5755 271.168 48.1462H271.189V48.7222C271.189 49.4504 270.64 50.059 269.57 50.059C268.804 50.059 268.315 49.8362 267.728 49.521L267.434 50.6241C268.043 50.9827 268.831 51.1838 269.646 51.1838C271.657 51.1838 272.412 49.9883 272.412 48.3419V43.4731L271.162 43.4785ZM269.689 47.6681C268.815 47.6681 268.141 47.0703 268.141 46.0922C268.141 45.1739 268.766 44.5327 269.689 44.5327C270.553 44.5327 271.222 45.1467 271.222 46.0759C271.222 46.9943 270.597 47.6626 269.689 47.6626V47.6681Z" fill="url(#paint40_linear)"/>
<path d="M278.688 48.9885C280.068 48.9885 280.715 48.2604 280.715 47.3475C280.715 46.2661 279.987 46.0596 278.835 45.6032C278.319 45.3967 277.976 45.2065 277.976 44.9402C277.976 44.6088 278.324 44.4729 278.568 44.4729C278.992 44.4729 279.492 44.6468 279.932 45.0544L280.557 44.0763C279.949 43.5872 279.324 43.397 278.634 43.397C277.525 43.397 276.721 44.0491 276.721 44.9348C276.721 45.9999 277.487 46.4074 278.378 46.7117C279.09 46.9562 279.454 47.0921 279.454 47.3746C279.454 47.6898 279.172 47.9072 278.693 47.9072C278.025 47.9072 277.563 47.6952 277.128 47.2659L276.498 48.2006C277.074 48.7059 277.819 48.9939 278.693 48.9939L278.688 48.9885Z" fill="url(#paint41_linear)"/>
<path d="M284.432 41.5821C284.595 41.5821 284.752 41.6201 284.752 41.8049C284.752 42.1798 283.823 42.2885 283.823 42.6363C283.823 42.7721 283.915 42.8645 284.04 42.9732H284.529L284.627 42.6852C285.263 42.5548 285.616 42.245 285.616 41.794C285.616 41.2995 285.23 40.9246 284.508 40.9246C283.991 40.9246 283.437 41.1528 283.138 41.4517L283.638 41.9244C283.839 41.7125 284.122 41.5767 284.432 41.5767V41.5821ZM285.79 43.4731V44.1306H285.768C285.361 43.647 284.779 43.397 284.089 43.397C282.595 43.397 281.47 44.5707 281.47 46.2172C281.47 47.8908 282.595 48.9885 284.1 48.9885C284.85 48.9885 285.431 48.7005 285.828 48.1788H285.844V48.9016H287.034V43.4785L285.79 43.4731ZM284.296 47.8582C283.377 47.8582 282.736 47.1844 282.736 46.2226C282.736 45.1793 283.432 44.5273 284.301 44.5273C285.192 44.5273 285.839 45.2608 285.839 46.2172C285.839 47.2007 285.138 47.8582 284.296 47.8582Z" fill="url(#paint42_linear)"/>
<path d="M291.68 43.397C290.979 43.397 290.322 43.685 289.86 44.223H289.844V43.4785H288.599V48.9016H289.844V46.1792C289.844 45.1141 290.409 44.5273 291.251 44.5273C292.001 44.5273 292.43 44.8859 292.43 46.0325V48.9124H293.675V45.7119C293.675 44.0817 292.87 43.397 291.68 43.397Z" fill="url(#paint43_linear)"/>
<path d="M2.76042 62.3428C3.80916 62.3428 4.64054 61.9244 5.10786 61.3919L4.2493 60.6312C3.96131 60.9518 3.47769 61.2126 2.87453 61.2126C1.91816 61.2126 1.26066 60.5442 1.26066 59.5444C1.26066 58.5554 1.9073 57.8816 2.86909 57.8816C3.46139 57.8816 3.9287 58.1316 4.24387 58.4956L5.09156 57.7621C4.54817 57.0937 3.65701 56.7514 2.80932 56.7514C1.16285 56.7514 0 57.8925 0 59.5552C0 61.2126 1.16829 62.3428 2.76042 62.3428Z" fill="url(#paint44_linear)"/>
<path d="M8.66706 54.9364C8.83007 54.9364 8.99309 54.9745 8.99309 55.1592C8.99309 55.5342 8.05846 55.6428 8.05846 55.9906C8.05846 56.1265 8.15084 56.2188 8.27582 56.3275H8.7703L8.86811 56.0395C9.50388 55.9091 9.85165 55.5994 9.85165 55.1484C9.85165 54.6539 9.47127 54.2789 8.74313 54.2789C8.22691 54.2789 7.67266 54.5072 7.37379 54.806L7.87371 55.2788C8.07476 55.0668 8.35733 54.931 8.66706 54.931V54.9364ZM9.84621 56.8274V59.4248C9.84621 60.5985 9.17784 61.2071 8.4497 61.2071C7.69982 61.2071 7.37379 60.8811 7.37379 59.7943V56.8274H6.12943V60.1367C6.12943 61.7505 6.96082 62.3428 8.15627 62.3428C8.79204 62.3428 9.3952 62.0711 9.82991 61.5495H9.84621V62.2559H11.0906V56.8274H9.84621Z" fill="url(#paint45_linear)"/>
<path d="M16.6603 56.8329V57.4849H16.6331C16.2256 57.0013 15.6442 56.7514 14.9541 56.7514C13.4598 56.7514 12.3349 57.9305 12.3349 59.5715C12.3349 61.2506 13.4598 62.3428 14.9649 62.3428C15.7148 62.3428 16.2962 62.0548 16.6983 61.5332H16.7092V62.2613H17.8992V56.8329H16.6603ZM15.1606 61.218C14.2422 61.218 13.601 60.5388 13.601 59.577C13.601 58.5337 14.2966 57.8816 15.166 57.8816C16.0571 57.8816 16.7038 58.6152 16.7038 59.577C16.7038 60.5605 16.0028 61.218 15.1606 61.218Z" fill="url(#paint46_linear)"/>
<path d="M26.7674 58.0827V58.0664C27.5716 57.7458 27.9248 57.0122 27.9248 56.284C27.9248 54.9908 26.9847 54.355 25.3545 54.355H22.605V62.2559H25.7295C27.4792 62.2559 28.3214 61.3484 28.3214 60.0878C28.3214 59.001 27.6802 58.3109 26.7674 58.0827ZM23.9472 55.5559H25.0937C26.1316 55.5559 26.5554 55.9634 26.5554 56.5775C26.5554 57.3273 25.8979 57.6262 25.2296 57.6262H23.9472V55.5559ZM25.3382 61.0496H23.9472V58.7891H25.36C26.387 58.7891 26.9195 59.2346 26.9195 59.941C26.9195 60.6855 26.2729 61.0441 25.3328 61.0496H25.3382Z" fill="url(#paint47_linear)"/>
<path d="M33.6575 56.8329V57.4849H33.6304C33.2228 57.0013 32.6414 56.7514 31.9513 56.7514C30.457 56.7514 29.3321 57.9305 29.3321 59.5715C29.3321 61.2506 30.457 62.3428 31.9622 62.3428C32.712 62.3428 33.2935 62.0548 33.6956 61.5332H33.7064V62.2613H34.8965V56.8329H33.6575ZM32.1578 61.218C31.2394 61.218 30.5982 60.5388 30.5982 59.577C30.5982 58.5337 31.2938 57.8816 32.1632 57.8816C33.0544 57.8816 33.701 58.6152 33.701 59.577C33.701 60.5605 33 61.218 32.1578 61.218Z" fill="url(#paint48_linear)"/>
<path d="M39.5479 56.7514C38.8469 56.7514 38.1894 57.0393 37.7275 57.5773H37.7112V56.8329H36.4668V62.2559H37.7112V59.5335C37.7112 58.4685 38.2763 57.8816 39.1186 57.8816C39.8685 57.8816 40.2977 58.2402 40.2977 59.3868V62.2668H41.5421V59.0662C41.5421 57.436 40.7379 56.7514 39.5479 56.7514Z" fill="url(#paint49_linear)"/>
<path d="M48.5029 62.3428C49.5517 62.3428 50.383 61.9244 50.8504 61.3919L49.9918 60.6312C49.7038 60.9518 49.2202 61.2126 48.617 61.2126C47.6607 61.2126 47.0032 60.5442 47.0032 59.5444C47.0032 58.5554 47.6498 57.8816 48.6116 57.8816C49.2039 57.8816 49.6712 58.1316 49.9864 58.4956L50.8341 57.7621C50.2907 57.0937 49.3995 56.7514 48.5518 56.7514C46.9054 56.7514 45.7425 57.8925 45.7425 59.5552C45.7425 61.2126 46.9108 62.3428 48.5029 62.3428Z" fill="url(#paint50_linear)"/>
<path d="M55.0779 56.7514C54.3552 56.7514 53.6977 57.0067 53.2413 57.5121H53.2195V54.067H51.9752V62.2559H53.2195V59.4955C53.2195 58.4304 53.7847 57.8762 54.6813 57.8762C55.4311 57.8762 55.8604 58.2457 55.8604 59.327V62.2613H57.1048V59.0064C57.1048 57.3871 56.2734 56.7459 55.0779 56.7459V56.7514Z" fill="url(#paint51_linear)"/>
<path d="M59.0012 56.3275H59.4902L59.5881 56.0395C60.2238 55.9091 60.577 55.5994 60.577 55.1484C60.577 54.6539 60.1912 54.2789 59.4685 54.2789C58.9523 54.2789 58.398 54.5072 58.0992 54.806L58.5991 55.2788C58.8001 55.0668 59.0827 54.931 59.3924 54.931C59.5555 54.931 59.7185 54.969 59.7185 55.1538C59.7185 55.5287 58.7838 55.6428 58.7838 55.9906C58.7838 56.1265 58.8762 56.2188 59.0012 56.3221V56.3275ZM58.7186 62.2559H59.963V56.8274H58.7186V62.2559Z" fill="url(#paint52_linear)"/>
<path d="M70.6134 55.1592H69.9288V54.067H68.6844V55.1592H67.4781V56.0123H68.6844V57.4849H68.6572C68.2497 57.0013 67.652 56.7514 66.9401 56.7514C65.4512 56.7514 64.3264 57.9305 64.3264 59.5715C64.3264 61.2506 65.4512 62.3428 66.9564 62.3428C67.728 62.3428 68.3258 62.0548 68.717 61.5332H68.7387V62.2613H69.9288V56.0123H70.6134V55.1592ZM67.1466 61.218C66.2283 61.218 65.5871 60.5388 65.5871 59.577C65.5871 58.5337 66.2826 57.8816 67.152 57.8816C68.0867 57.8816 68.7333 58.6152 68.7333 59.577C68.7333 60.5605 68.0323 61.218 67.1466 61.218Z" fill="url(#paint53_linear)"/>
<path d="M75.4224 56.8329V57.4849H75.3952C74.9877 57.0013 74.4063 56.7514 73.7162 56.7514C72.2219 56.7514 71.097 57.9305 71.097 59.5715C71.097 61.2506 72.2219 62.3428 73.727 62.3428C74.4769 62.3428 75.0583 62.0548 75.4605 61.5332H75.4713V62.2613H76.6613V56.8329H75.4224ZM73.9227 61.218C73.0043 61.218 72.3631 60.5388 72.3631 59.577C72.3631 58.5337 73.0587 57.8816 73.9281 57.8816C74.8193 57.8816 75.4659 58.6152 75.4659 59.577C75.4659 60.5605 74.7649 61.218 73.9227 61.218ZM73.8901 63.3481C73.4336 63.3481 73.0587 63.7176 73.0587 64.174C73.0587 64.6251 73.4336 65 73.8901 65C74.3628 65 74.7323 64.6251 74.7323 64.174C74.7323 63.7176 74.3628 63.3481 73.8901 63.3481Z" fill="url(#paint54_linear)"/>
<path d="M80.7639 62.3428C82.4267 62.3428 83.6113 61.2071 83.6113 59.5552C83.6113 57.8925 82.4267 56.7514 80.7639 56.7514C79.0468 56.7514 77.9111 57.9522 77.9111 59.5552C77.9111 61.1474 79.0468 62.3428 80.7639 62.3428ZM80.7639 61.218C79.8293 61.218 79.1827 60.4844 79.1827 59.5552C79.1827 58.6097 79.8184 57.8816 80.7694 57.8816C81.6605 57.8816 82.3506 58.5608 82.3506 59.5552C82.3506 60.5333 81.6497 61.218 80.7694 61.218H80.7639Z" fill="url(#paint55_linear)"/>
<path d="M90.8818 56.7514C90.1646 56.7514 89.5723 57.0067 89.1593 57.4849H89.1376V56.8274H87.8932V64.4566H89.1376V61.5929H89.1539C89.5505 62.0711 90.132 62.3428 90.871 62.3428C92.3762 62.3428 93.501 61.2452 93.501 59.5715C93.501 57.9251 92.3762 56.7514 90.8818 56.7514ZM90.6754 61.2126C89.7896 61.2126 89.0887 60.5551 89.0887 59.5715C89.0887 58.6152 89.7353 57.8816 90.6699 57.8816C91.5393 57.8816 92.2349 58.5337 92.2349 59.577C92.2349 60.5388 91.5937 61.2126 90.6754 61.2126Z" fill="url(#paint56_linear)"/>
<path d="M97.9079 56.7514C97.1852 56.7514 96.5277 57.0067 96.0712 57.5121H96.0495V54.067H94.8051V62.2559H96.0495V59.4955C96.0495 58.4304 96.6146 57.8762 97.5112 57.8762C98.2611 57.8762 98.6903 58.2457 98.6903 59.327V62.2613H99.9347V59.0064C99.9347 57.3871 99.1033 56.7459 97.9079 56.7459V56.7514Z" fill="url(#paint57_linear)"/>
<path d="M105.907 54.4637L104.537 54.4691L103.26 56.0775H104.526L105.907 54.4637ZM105.456 56.8329V57.4849H105.434C105.026 57.0013 104.445 56.7514 103.755 56.7514C102.26 56.7514 101.136 57.9305 101.136 59.5715C101.136 61.2506 102.26 62.3428 103.766 62.3428C104.515 62.3428 105.097 62.0548 105.494 61.5332H105.51V62.2613H106.7V56.8329H105.456ZM103.961 61.218C103.043 61.218 102.402 60.5388 102.402 59.577C102.402 58.5337 103.097 57.8816 103.967 57.8816C104.858 57.8816 105.504 58.6152 105.504 59.577C105.504 60.5605 104.803 61.218 103.961 61.218Z" fill="url(#paint58_linear)"/>
<path d="M109.895 62.3428C110.601 62.3428 110.944 62.1961 111.27 62.0277L110.944 60.9518C110.656 61.1039 110.351 61.1854 110.14 61.1854C109.792 61.1854 109.618 60.9844 109.618 60.4301V57.8925H111.221V56.8329H109.618V54.893L108.379 55.0288V56.8329H107.716V57.8925H108.379V60.5442C108.379 61.756 108.955 62.3428 109.895 62.3428Z" fill="url(#paint59_linear)"/>
<path d="M116.937 62.3428C117.644 62.3428 117.986 62.1961 118.312 62.0277L117.986 60.9518C117.698 61.1039 117.394 61.1854 117.182 61.1854C116.834 61.1854 116.66 60.9844 116.66 60.4301V57.8925H118.263V56.8329H116.66V54.893L115.421 55.0288V56.8329H114.758V57.8925H115.421V60.5442C115.421 61.756 115.997 62.3428 116.937 62.3428Z" fill="url(#paint60_linear)"/>
<path d="M122.333 56.7514C121.67 56.7514 121.067 57.072 120.638 57.6425H120.627V56.8274H119.383V62.2559H120.627V59.6802C120.627 58.7999 121.165 58.1207 122.11 58.1207C122.197 58.1207 122.344 58.1261 122.485 58.137V56.7514C122.442 56.7459 122.388 56.7459 122.333 56.7459V56.7514Z" fill="url(#paint61_linear)"/>
<path d="M124.23 56.0232C124.686 56.0232 125.066 55.6483 125.066 55.1918C125.066 54.7408 124.686 54.3659 124.23 54.3659C123.757 54.3659 123.387 54.7408 123.387 55.1918C123.387 55.6483 123.757 56.0232 124.23 56.0232ZM123.599 62.2559H124.844V56.8329H123.599V62.2559Z" fill="url(#paint62_linear)"/>
<path d="M130.989 53.3389C130.473 53.3389 129.919 53.5617 129.62 53.8714L130.12 54.3441C130.321 54.1322 130.604 53.9964 130.913 53.9964C131.082 53.9964 131.185 54.0779 131.185 54.2192C131.185 54.5941 130.305 54.7028 130.305 55.0505C130.305 55.1864 130.397 55.2788 130.522 55.3874H131.011L131.109 55.0994C131.69 54.969 132.044 54.6593 132.044 54.2083C132.044 53.7138 131.658 53.3389 130.989 53.3389ZM128.957 55.2625H128.99L129.598 56.0993H130.821L129.511 54.4637H128.392L127.137 56.0993H128.354L128.957 55.2625ZM128.881 56.7514C127.37 56.7514 126.235 57.8816 126.235 59.5444C126.235 61.2397 127.43 62.3483 129.011 62.3483C130.077 62.3483 130.837 61.9136 131.299 61.3213L130.43 60.5768C130.153 60.9246 129.707 61.218 129.077 61.218C128.278 61.218 127.691 60.7507 127.528 59.9791H131.484C131.5 59.8813 131.516 59.6748 131.516 59.4846C131.516 57.9033 130.484 56.7514 128.881 56.7514ZM128.946 57.8816C129.658 57.8816 130.109 58.3163 130.267 58.9738H127.55C127.729 58.2674 128.267 57.8816 128.946 57.8816Z" fill="url(#paint63_linear)"/>
<path d="M135.88 56.7514C135.179 56.7514 134.521 57.0393 134.06 57.5773H134.043V56.8329H132.799V62.2559H134.043V59.5335C134.043 58.4685 134.608 57.8816 135.451 57.8816C136.201 57.8816 136.63 58.2402 136.63 59.3868V62.2668H137.874V59.0662C137.874 57.436 137.07 56.7514 135.88 56.7514Z" fill="url(#paint64_linear)"/>
<path d="M144.009 62.3428C144.715 62.3428 145.058 62.1961 145.384 62.0277L145.058 60.9518C144.77 61.1039 144.465 61.1854 144.254 61.1854C143.906 61.1854 143.732 60.9844 143.732 60.4301V57.8925H145.335V56.8329H143.732V54.893L142.493 55.0288V56.8329H141.83V57.8925H142.493V60.5442C142.493 61.756 143.069 62.3428 144.009 62.3428Z" fill="url(#paint65_linear)"/>
<path d="M149.552 56.7514C148.829 56.7514 148.171 57.0067 147.715 57.5121H147.693V54.067H146.449V62.2559H147.693V59.4955C147.693 58.4304 148.258 57.8762 149.155 57.8762C149.905 57.8762 150.334 58.2457 150.334 59.327V62.2613H151.578V59.0064C151.578 57.3871 150.747 56.7459 149.552 56.7459V56.7514Z" fill="url(#paint66_linear)"/>
<path d="M153.823 56.0232C154.279 56.0232 154.659 55.6483 154.659 55.1918C154.659 54.7408 154.279 54.3659 153.823 54.3659C153.35 54.3659 152.98 54.7408 152.98 55.1918C152.98 55.6483 153.35 56.0232 153.823 56.0232ZM153.192 62.2559H154.437V56.8329H153.192V62.2559ZM153.806 63.3481C153.35 63.3481 152.969 63.7176 152.969 64.174C152.969 64.6251 153.35 65 153.806 65C154.279 65 154.649 64.6251 154.649 64.174C154.649 63.7176 154.279 63.3481 153.806 63.3481Z" fill="url(#paint67_linear)"/>
<path d="M160.745 62.3428C161.452 62.3428 161.794 62.1961 162.12 62.0277L161.794 60.9518C161.506 61.1039 161.202 61.1854 160.99 61.1854C160.642 61.1854 160.468 60.9844 160.468 60.4301V57.8925H162.071V56.8329H160.468V54.893L159.229 55.0288V56.8329H158.566V57.8925H159.229V60.5442C159.229 61.756 159.805 62.3428 160.745 62.3428Z" fill="url(#paint68_linear)"/>
<path d="M166.141 56.7514C165.478 56.7514 164.875 57.072 164.446 57.6425H164.435V56.8274H163.191V62.2559H164.435V59.6802C164.435 58.7999 164.973 58.1207 165.918 58.1207C166.005 58.1207 166.152 58.1261 166.293 58.137V56.7514C166.25 56.7459 166.196 56.7459 166.141 56.7459V56.7514Z" fill="url(#paint69_linear)"/>
<path d="M172.776 55.9634V56.6753C172.776 57.3273 172.781 57.8707 172.184 58.0446V56.8329H170.945V59.4303C170.945 60.604 170.276 61.2126 169.548 61.2126C168.793 61.2126 168.467 60.8865 168.467 59.7998V56.8329H167.223V60.1367C167.223 61.7505 168.054 62.3428 169.249 62.3428C169.885 62.3428 170.488 62.0711 170.923 61.5549H170.939V62.2559H172.184V58.876C173.406 58.8108 174.042 57.9903 174.042 56.7568V55.9634H172.776Z" fill="url(#paint70_linear)"/>
<path d="M178.009 56.0775L176.737 54.4691L175.363 54.4637L176.743 56.0775H178.009ZM180.074 55.9634V56.6753C180.074 57.2621 180.085 57.7566 179.655 57.9794C179.166 57.2132 178.302 56.7514 177.243 56.7514C175.526 56.7514 174.39 57.9522 174.39 59.5552C174.39 61.1474 175.526 62.3428 177.243 62.3428C178.905 62.3428 180.09 61.2071 180.09 59.5552C180.09 59.289 180.063 59.039 180.003 58.8054L180.009 58.7999C180.889 58.5554 181.345 57.8001 181.345 56.7568V55.9634H180.074ZM177.243 61.2126C176.308 61.2126 175.656 60.4844 175.656 59.5552C175.656 58.6097 176.292 57.8816 177.243 57.8816C178.134 57.8816 178.824 58.5608 178.824 59.5552C178.824 60.5333 178.123 61.2126 177.243 61.2126Z" fill="url(#paint71_linear)"/>
<path d="M185.361 56.7514C184.66 56.7514 184.002 57.0393 183.541 57.5773H183.524V56.8329H182.28V62.2559H183.524V59.5335C183.524 58.4685 184.089 57.8816 184.932 57.8816C185.682 57.8816 186.111 58.2402 186.111 59.3868V62.2668H187.355V59.0662C187.355 57.436 186.551 56.7514 185.361 56.7514Z" fill="url(#paint72_linear)"/>
<path d="M192.838 56.8329V57.4034H192.816C192.36 56.9687 191.757 56.7459 191.132 56.7459C189.621 56.7459 188.545 57.8979 188.545 59.4846C188.545 61.0985 189.675 62.1635 191.197 62.1635C191.876 62.1635 192.436 61.9299 192.843 61.5006H192.865V62.0766C192.865 62.8047 192.316 63.4133 191.246 63.4133C190.48 63.4133 189.991 63.1905 189.404 62.8753L189.11 63.9784C189.719 64.3371 190.507 64.5381 191.322 64.5381C193.332 64.5381 194.088 63.3427 194.088 61.6962V56.8274L192.838 56.8329ZM191.365 61.0224C190.491 61.0224 189.817 60.4247 189.817 59.4466C189.817 58.5282 190.442 57.887 191.365 57.887C192.229 57.887 192.898 58.5011 192.898 59.4303C192.898 60.3486 192.273 61.017 191.365 61.017V61.0224Z" fill="url(#paint73_linear)"/>
<path d="M201.706 56.7514C201.005 56.7514 200.348 57.0393 199.886 57.5773H199.869V56.8329H198.625V62.2559H199.869V59.5335C199.869 58.4685 200.435 57.8816 201.277 57.8816C202.027 57.8816 202.456 58.2402 202.456 59.3868V62.2668H203.7V59.0662C203.7 57.436 202.896 56.7514 201.706 56.7514Z" fill="url(#paint74_linear)"/>
<path d="M207.743 55.2625H207.776L208.379 56.0939H209.607L208.297 54.4582H207.178L205.923 56.0939H207.14L207.743 55.2625ZM207.77 56.7514C206.053 56.7514 204.917 57.9522 204.917 59.5552C204.917 61.1474 206.053 62.3428 207.77 62.3428C209.433 62.3428 210.618 61.2071 210.618 59.5552C210.618 57.8925 209.433 56.7514 207.77 56.7514ZM207.77 61.218C206.836 61.218 206.184 60.4844 206.184 59.5552C206.184 58.6097 206.819 57.8816 207.77 57.8816C208.661 57.8816 209.352 58.5608 209.352 59.5552C209.352 60.5333 208.651 61.218 207.77 61.218Z" fill="url(#paint75_linear)"/>
<path d="M214.997 56.7514C214.296 56.7514 213.639 57.0393 213.177 57.5773H213.161V56.8329H211.916V62.2559H213.161V59.5335C213.161 58.4685 213.726 57.8816 214.568 57.8816C215.318 57.8816 215.747 58.2402 215.747 59.3868V62.2668H216.992V59.0662C216.992 57.436 216.187 56.7514 214.997 56.7514Z" fill="url(#paint76_linear)"/>
<path d="M222.474 56.8329V57.4034H222.453C221.996 56.9687 221.393 56.7459 220.768 56.7459C219.258 56.7459 218.182 57.8979 218.182 59.4846C218.182 61.0985 219.312 62.1635 220.833 62.1635C221.513 62.1635 222.072 61.9299 222.48 61.5006H222.502V62.0766C222.502 62.8047 221.953 63.4133 220.882 63.4133C220.116 63.4133 219.627 63.1905 219.04 62.8753L218.747 63.9784C219.355 64.3371 220.143 64.5381 220.958 64.5381C222.969 64.5381 223.724 63.3427 223.724 61.6962V56.8274L222.474 56.8329ZM221.002 61.0224C220.127 61.0224 219.453 60.4247 219.453 59.4466C219.453 58.5282 220.078 57.887 221.002 57.887C221.866 57.887 222.534 58.5011 222.534 59.4303C222.534 60.3486 221.909 61.017 221.002 61.017V61.0224Z" fill="url(#paint77_linear)"/>
<path d="M230 62.3428C231.381 62.3428 232.027 61.6147 232.027 60.7018C232.027 59.6204 231.299 59.414 230.147 58.9575C229.631 58.751 229.288 58.5608 229.288 58.2946C229.288 57.9631 229.636 57.8273 229.881 57.8273C230.305 57.8273 230.805 58.0011 231.245 58.4087L231.87 57.4306C231.261 56.9415 230.636 56.7514 229.946 56.7514C228.837 56.7514 228.033 57.4034 228.033 58.2891C228.033 59.3542 228.799 59.7617 229.691 60.066C230.402 60.3106 230.767 60.4464 230.767 60.729C230.767 61.0441 230.484 61.2615 230.006 61.2615C229.337 61.2615 228.876 61.0496 228.441 60.6203L227.81 61.5549C228.386 62.0603 229.131 62.3483 230.006 62.3483L230 62.3428Z" fill="url(#paint78_linear)"/>
<path d="M235.744 54.9364C235.907 54.9364 236.065 54.9745 236.065 55.1592C236.065 55.5342 235.135 55.6428 235.135 55.9906C235.135 56.1265 235.228 56.2188 235.353 56.3275H235.842L235.94 56.0395C236.575 55.9091 236.929 55.5994 236.929 55.1484C236.929 54.6539 236.543 54.2789 235.82 54.2789C235.304 54.2789 234.75 54.5072 234.451 54.806L234.951 55.2788C235.152 55.0668 235.434 54.931 235.744 54.931V54.9364ZM237.102 56.8274V57.4849H237.081C236.673 57.0013 236.092 56.7514 235.402 56.7514C233.907 56.7514 232.782 57.9251 232.782 59.5715C232.782 61.2452 233.907 62.3428 235.412 62.3428C236.162 62.3428 236.744 62.0548 237.14 61.5332H237.157V62.2559H238.347V56.8329L237.102 56.8274ZM235.608 61.2126C234.69 61.2126 234.049 60.5388 234.049 59.577C234.049 58.5337 234.744 57.8816 235.614 57.8816C236.505 57.8816 237.151 58.6152 237.151 59.5715C237.151 60.5551 236.45 61.2126 235.608 61.2126Z" fill="url(#paint79_linear)"/>
<path d="M242.993 56.7514C242.292 56.7514 241.634 57.0393 241.172 57.5773H241.156V56.8329H239.912V62.2559H241.156V59.5335C241.156 58.4685 241.721 57.8816 242.563 57.8816C243.313 57.8816 243.743 58.2402 243.743 59.3868V62.2668H244.987V59.0662C244.987 57.436 244.183 56.7514 242.993 56.7514Z" fill="url(#paint80_linear)"/>
<path d="M8.55099 22.911L13.3867 31.0958H20.8672L12.526 18.0753L20.5386 8.34124H12.839L7.29902 16.0096H7.23642V8.34124H1.18002V31.0958H7.23642V24.5073L8.53534 22.9267L8.55099 22.911Z" fill="url(#paint81_linear)"/>
<path d="M38.473 0.0625984L34.9832 4.94528H39.1773L43.6061 0.0469488L38.473 0.0625984ZM29.8658 4.69488H29.9284L31.1177 6.96408H35.9222L32.2914 1.97185H27.3462L23.9502 6.96408H28.7077L29.8658 4.69488ZM28.2382 22.4728H35.484V17.1833H28.2382V13.7717H37.4871V8.34124H22.3539V31.0958H38.16V25.681H28.2538L28.2382 22.4728Z" fill="url(#paint82_linear)"/>
<path d="M45.4528 31.0958H51.4935V13.7717H57.2526V8.34124H39.6468V13.7717H45.4528V31.0958Z" fill="url(#paint83_linear)"/>
<path d="M80.6957 8.34124V21.1739H80.6174L73.0274 8.34124H66.8927V31.0958H72.9335V18.6387H73.0274L80.4922 31.0958H86.8147V8.34124H80.6957Z" fill="url(#paint84_linear)"/>
<path d="M115.015 0L109.898 0.0312992L106.392 4.88268H110.586L115.015 0ZM101.275 4.63228H101.338L102.527 6.90148H107.331L103.701 1.9249H98.7553L95.3594 6.90148H100.117L101.275 4.63228ZM101.322 7.99695C94.3108 7.99695 89.4751 12.8014 89.4751 19.7185C89.4751 26.6356 94.3108 31.4244 101.322 31.4244C108.239 31.4244 113.122 26.6826 113.122 19.7185C113.122 12.7388 108.239 7.99695 101.322 7.99695ZM101.306 25.7436C98.098 25.7436 95.8289 23.0832 95.8289 19.7185C95.8289 16.3382 98.098 13.6934 101.306 13.6934C104.546 13.6934 106.768 16.3695 106.768 19.7185C106.768 23.0832 104.546 25.7436 101.306 25.7436Z" fill="url(#paint85_linear)"/>
<path d="M115.907 31.0958H122.105V8.34124H115.907V31.0958Z" fill="url(#paint86_linear)"/>
<path d="M146.8 8.34124V21.1739H146.721L139.131 8.34124H132.997V31.0958H139.037V18.6387H139.131L146.596 31.0958H152.919V8.34124H146.8Z" fill="url(#paint87_linear)"/>
<path d="M167.379 4.02195H167.457L168.646 6.29114H173.451L169.82 1.31457H164.875L161.479 6.29114H166.236L167.379 4.02195ZM167.426 8.0126C160.415 8.0126 155.579 12.8014 155.579 19.7342C155.579 26.6513 160.415 31.4244 167.426 31.4244C174.343 31.4244 179.21 26.6982 179.21 19.7185C179.21 12.7388 174.343 7.99695 167.426 7.99695V8.0126ZM167.41 25.7436C164.202 25.7436 161.933 23.0832 161.933 19.7185C161.933 16.3538 164.202 13.7091 167.41 13.7091C170.65 13.7091 172.872 16.3695 172.872 19.7185C172.872 23.0832 170.65 25.7593 167.41 25.7593V25.7436Z" fill="url(#paint88_linear)"/>
<path d="M195.689 8.34124V21.1739H195.611L188.021 8.34124H181.886V31.0958H187.927V18.6387H188.021L195.486 31.0958H201.808V8.34124H195.689Z" fill="url(#paint89_linear)"/>
<path d="M216.346 31.3775C219.899 31.3775 223.451 30.1881 225.47 28.6388V18.0596H215.893V22.9736H219.774V25.0707C218.537 25.6341 217.552 25.8219 216.346 25.8219C212.81 25.8219 210.822 23.0049 210.822 19.7655C210.822 15.8687 213.31 13.7247 216.08 13.7247C218.459 13.7247 220.118 14.8515 221.167 15.8531L225.486 12.2067C223.185 9.45236 219.429 7.99695 216.096 7.99695C208.694 7.99695 204.468 13.1926 204.468 19.7655C204.468 27.2616 209.758 31.3775 216.346 31.3775Z" fill="url(#paint90_linear)"/>
<path d="M242.794 31.4244C246.613 31.4244 251.37 29.5934 251.37 23.897C251.37 19.5151 248.334 18.5291 244.312 16.9798C242.012 16.0721 241.527 15.4775 241.527 14.7106C241.527 13.8969 242.043 13.3491 243.123 13.3491C244.234 13.3491 245.486 13.8812 247.458 15.4149L250.838 11.0643C248.679 9.17067 245.893 7.96565 242.763 8.0126C238.397 8.1065 235.189 11.033 235.189 14.8984C235.189 19.5464 238.647 21.2365 242.106 22.3946C244.547 23.2084 244.985 23.6779 244.985 24.5855C244.985 25.3054 244.453 26.0566 243.029 26.0566C241.636 26.0566 239.633 25.368 237.833 23.5527L234.39 27.7937C236.832 30.2663 239.852 31.4244 242.794 31.4244Z" fill="url(#paint91_linear)"/>
<path d="M262.701 2.86388C263.233 2.86388 263.499 2.98908 263.499 3.34902C263.499 4.41319 261.042 4.88268 261.042 5.80601C261.042 6.13465 261.292 6.47894 261.574 6.80758L263.671 6.65108L263.796 5.97815C265.611 5.61821 266.801 4.72618 266.801 3.36467C266.801 1.79971 265.565 0.719882 263.248 0.719882C261.511 0.719882 260.118 1.50236 259.352 2.20659L260.838 3.67766C261.245 3.39597 262.169 2.86388 262.701 2.86388ZM267.787 31.1114H274.156L265.893 8.34124H260.072L251.809 31.1114H258.194L259.336 27.4338H266.644L267.787 31.1114ZM260.917 22.3163L262.951 15.7748H263.014L265.048 22.3163H260.917Z" fill="url(#paint92_linear)"/>
<path d="M289.587 8.34124V21.1739H289.508L281.918 8.34124H275.784V31.0958H281.824V18.6387H281.918L289.383 31.0958H295.706V8.34124H289.587Z" fill="url(#paint93_linear)"/>
<defs>
<linearGradient id="paint0_linear" x1="231.082" y1="43.2233" x2="231.082" y2="-0.0049007" gradientUnits="userSpaceOnUse">
<stop stop-color="#39B54A"/>
<stop offset="0.1956" stop-color="#4EBA47"/>
<stop offset="0.7371" stop-color="#85C53F"/>
<stop offset="1" stop-color="#9ACA3C"/>
</linearGradient>
<linearGradient id="paint1_linear" x1="231.082" y1="43.2233" x2="231.082" y2="-0.0049007" gradientUnits="userSpaceOnUse">
<stop stop-color="#39B54A"/>
<stop offset="0.1956" stop-color="#4EBA47"/>
<stop offset="0.7371" stop-color="#85C53F"/>
<stop offset="1" stop-color="#9ACA3C"/>
</linearGradient>
<linearGradient id="paint2_linear" x1="231.082" y1="43.2233" x2="231.082" y2="-0.0049007" gradientUnits="userSpaceOnUse">
<stop stop-color="#39B54A"/>
<stop offset="0.1956" stop-color="#4EBA47"/>
<stop offset="0.7371" stop-color="#85C53F"/>
<stop offset="1" stop-color="#9ACA3C"/>
</linearGradient>
<linearGradient id="paint3_linear" x1="231.082" y1="43.2233" x2="231.082" y2="-0.0049007" gradientUnits="userSpaceOnUse">
<stop stop-color="#39B54A"/>
<stop offset="0.1956" stop-color="#4EBA47"/>
<stop offset="0.7371" stop-color="#85C53F"/>
<stop offset="1" stop-color="#9ACA3C"/>
</linearGradient>
<linearGradient id="paint4_linear" x1="231.082" y1="43.2233" x2="231.082" y2="-0.0049007" gradientUnits="userSpaceOnUse">
<stop stop-color="#39B54A"/>
<stop offset="0.1956" stop-color="#4EBA47"/>
<stop offset="0.7371" stop-color="#85C53F"/>
<stop offset="1" stop-color="#9ACA3C"/>
</linearGradient>
<linearGradient id="paint5_linear" x1="231.082" y1="43.2233" x2="231.082" y2="-0.0049007" gradientUnits="userSpaceOnUse">
<stop stop-color="#39B54A"/>
<stop offset="0.1956" stop-color="#4EBA47"/>
<stop offset="0.7371" stop-color="#85C53F"/>
<stop offset="1" stop-color="#9ACA3C"/>
</linearGradient>
<linearGradient id="paint6_linear" x1="231.082" y1="43.2233" x2="231.082" y2="-0.0049007" gradientUnits="userSpaceOnUse">
<stop stop-color="#39B54A"/>
<stop offset="0.1956" stop-color="#4EBA47"/>
<stop offset="0.7371" stop-color="#85C53F"/>
<stop offset="1" stop-color="#9ACA3C"/>
</linearGradient>
<linearGradient id="paint7_linear" x1="231.082" y1="43.2233" x2="231.082" y2="-0.0049007" gradientUnits="userSpaceOnUse">
<stop stop-color="#39B54A"/>
<stop offset="0.1956" stop-color="#4EBA47"/>
<stop offset="0.7371" stop-color="#85C53F"/>
<stop offset="1" stop-color="#9ACA3C"/>
</linearGradient>
<linearGradient id="paint8_linear" x1="231.082" y1="43.2233" x2="231.082" y2="-0.0049007" gradientUnits="userSpaceOnUse">
<stop stop-color="#39B54A"/>
<stop offset="0.1956" stop-color="#4EBA47"/>
<stop offset="0.7371" stop-color="#85C53F"/>
<stop offset="1" stop-color="#9ACA3C"/>
</linearGradient>
<linearGradient id="paint9_linear" x1="231.082" y1="43.2233" x2="231.082" y2="-0.0049007" gradientUnits="userSpaceOnUse">
<stop stop-color="#39B54A"/>
<stop offset="0.1956" stop-color="#4EBA47"/>
<stop offset="0.7371" stop-color="#85C53F"/>
<stop offset="1" stop-color="#9ACA3C"/>
</linearGradient>
<linearGradient id="paint10_linear" x1="231.082" y1="43.2233" x2="231.082" y2="-0.0049007" gradientUnits="userSpaceOnUse">
<stop stop-color="#39B54A"/>
<stop offset="0.1956" stop-color="#4EBA47"/>
<stop offset="0.7371" stop-color="#85C53F"/>
<stop offset="1" stop-color="#9ACA3C"/>
</linearGradient>
<linearGradient id="paint11_linear" x1="231.082" y1="43.2233" x2="231.082" y2="-0.0049007" gradientUnits="userSpaceOnUse">
<stop stop-color="#39B54A"/>
<stop offset="0.1956" stop-color="#4EBA47"/>
<stop offset="0.7371" stop-color="#85C53F"/>
<stop offset="1" stop-color="#9ACA3C"/>
</linearGradient>
<linearGradient id="paint12_linear" x1="231.082" y1="43.2233" x2="231.082" y2="-0.0049007" gradientUnits="userSpaceOnUse">
<stop stop-color="#39B54A"/>
<stop offset="0.1956" stop-color="#4EBA47"/>
<stop offset="0.7371" stop-color="#85C53F"/>
<stop offset="1" stop-color="#9ACA3C"/>
</linearGradient>
<linearGradient id="paint13_linear" x1="231.082" y1="43.2233" x2="231.082" y2="-0.0049007" gradientUnits="userSpaceOnUse">
<stop stop-color="#39B54A"/>
<stop offset="0.1956" stop-color="#4EBA47"/>
<stop offset="0.7371" stop-color="#85C53F"/>
<stop offset="1" stop-color="#9ACA3C"/>
</linearGradient>
<linearGradient id="paint14_linear" x1="231.082" y1="43.2233" x2="231.082" y2="-0.0049007" gradientUnits="userSpaceOnUse">
<stop stop-color="#39B54A"/>
<stop offset="0.1956" stop-color="#4EBA47"/>
<stop offset="0.7371" stop-color="#85C53F"/>
<stop offset="1" stop-color="#9ACA3C"/>
</linearGradient>
<linearGradient id="paint15_linear" x1="231.082" y1="43.2233" x2="231.082" y2="-0.0049007" gradientUnits="userSpaceOnUse">
<stop stop-color="#39B54A"/>
<stop offset="0.1956" stop-color="#4EBA47"/>
<stop offset="0.7371" stop-color="#85C53F"/>
<stop offset="1" stop-color="#9ACA3C"/>
</linearGradient>
<linearGradient id="paint16_linear" x1="231.082" y1="43.2233" x2="231.082" y2="-0.0049007" gradientUnits="userSpaceOnUse">
<stop stop-color="#39B54A"/>
<stop offset="0.1956" stop-color="#4EBA47"/>
<stop offset="0.7371" stop-color="#85C53F"/>
<stop offset="1" stop-color="#9ACA3C"/>
</linearGradient>
<linearGradient id="paint17_linear" x1="231.082" y1="43.2233" x2="231.082" y2="-0.0049007" gradientUnits="userSpaceOnUse">
<stop stop-color="#39B54A"/>
<stop offset="0.1956" stop-color="#4EBA47"/>
<stop offset="0.7371" stop-color="#85C53F"/>
<stop offset="1" stop-color="#9ACA3C"/>
</linearGradient>
<linearGradient id="paint18_linear" x1="231.082" y1="43.2233" x2="231.082" y2="-0.0049007" gradientUnits="userSpaceOnUse">
<stop stop-color="#39B54A"/>
<stop offset="0.1956" stop-color="#4EBA47"/>
<stop offset="0.7371" stop-color="#85C53F"/>
<stop offset="1" stop-color="#9ACA3C"/>
</linearGradient>
<linearGradient id="paint19_linear" x1="231.082" y1="43.2233" x2="231.082" y2="-0.0049007" gradientUnits="userSpaceOnUse">
<stop stop-color="#39B54A"/>
<stop offset="0.1956" stop-color="#4EBA47"/>
<stop offset="0.7371" stop-color="#85C53F"/>
<stop offset="1" stop-color="#9ACA3C"/>
</linearGradient>
<linearGradient id="paint20_linear" x1="231.082" y1="43.2233" x2="231.082" y2="-0.0049007" gradientUnits="userSpaceOnUse">
<stop stop-color="#39B54A"/>
<stop offset="0.1956" stop-color="#4EBA47"/>
<stop offset="0.7371" stop-color="#85C53F"/>
<stop offset="1" stop-color="#9ACA3C"/>
</linearGradient>
<linearGradient id="paint21_linear" x1="231.082" y1="43.2233" x2="231.082" y2="-0.0049007" gradientUnits="userSpaceOnUse">
<stop stop-color="#39B54A"/>
<stop offset="0.1956" stop-color="#4EBA47"/>
<stop offset="0.7371" stop-color="#85C53F"/>
<stop offset="1" stop-color="#9ACA3C"/>
</linearGradient>
<linearGradient id="paint22_linear" x1="231.082" y1="43.2233" x2="231.082" y2="-0.0049007" gradientUnits="userSpaceOnUse">
<stop stop-color="#39B54A"/>
<stop offset="0.1956" stop-color="#4EBA47"/>
<stop offset="0.7371" stop-color="#85C53F"/>
<stop offset="1" stop-color="#9ACA3C"/>
</linearGradient>
<linearGradient id="paint23_linear" x1="231.082" y1="43.2233" x2="231.082" y2="-0.0049007" gradientUnits="userSpaceOnUse">
<stop stop-color="#39B54A"/>
<stop offset="0.1956" stop-color="#4EBA47"/>
<stop offset="0.7371" stop-color="#85C53F"/>
<stop offset="1" stop-color="#9ACA3C"/>
</linearGradient>
<linearGradient id="paint24_linear" x1="231.082" y1="43.2233" x2="231.082" y2="-0.0049007" gradientUnits="userSpaceOnUse">
<stop stop-color="#39B54A"/>
<stop offset="0.1956" stop-color="#4EBA47"/>
<stop offset="0.7371" stop-color="#85C53F"/>
<stop offset="1" stop-color="#9ACA3C"/>
</linearGradient>
<linearGradient id="paint25_linear" x1="231.082" y1="43.2233" x2="231.082" y2="-0.0049007" gradientUnits="userSpaceOnUse">
<stop stop-color="#39B54A"/>
<stop offset="0.1956" stop-color="#4EBA47"/>
<stop offset="0.7371" stop-color="#85C53F"/>
<stop offset="1" stop-color="#9ACA3C"/>
</linearGradient>
<linearGradient id="paint26_linear" x1="231.082" y1="43.2233" x2="231.082" y2="-0.0049007" gradientUnits="userSpaceOnUse">
<stop stop-color="#39B54A"/>
<stop offset="0.1956" stop-color="#4EBA47"/>
<stop offset="0.7371" stop-color="#85C53F"/>
<stop offset="1" stop-color="#9ACA3C"/>
</linearGradient>
<linearGradient id="paint27_linear" x1="231.082" y1="43.2233" x2="231.082" y2="-0.0049007" gradientUnits="userSpaceOnUse">
<stop stop-color="#39B54A"/>
<stop offset="0.1956" stop-color="#4EBA47"/>
<stop offset="0.7371" stop-color="#85C53F"/>
<stop offset="1" stop-color="#9ACA3C"/>
</linearGradient>
<linearGradient id="paint28_linear" x1="231.082" y1="43.2233" x2="231.082" y2="-0.0049007" gradientUnits="userSpaceOnUse">
<stop stop-color="#39B54A"/>
<stop offset="0.1956" stop-color="#4EBA47"/>
<stop offset="0.7371" stop-color="#85C53F"/>
<stop offset="1" stop-color="#9ACA3C"/>
</linearGradient>
<linearGradient id="paint29_linear" x1="231.082" y1="43.2233" x2="231.082" y2="-0.0049007" gradientUnits="userSpaceOnUse">
<stop stop-color="#39B54A"/>
<stop offset="0.1956" stop-color="#4EBA47"/>
<stop offset="0.7371" stop-color="#85C53F"/>
<stop offset="1" stop-color="#9ACA3C"/>
</linearGradient>
<linearGradient id="paint30_linear" x1="231.082" y1="43.2233" x2="231.082" y2="-0.0049007" gradientUnits="userSpaceOnUse">
<stop stop-color="#39B54A"/>
<stop offset="0.1956" stop-color="#4EBA47"/>
<stop offset="0.7371" stop-color="#85C53F"/>
<stop offset="1" stop-color="#9ACA3C"/>
</linearGradient>
<linearGradient id="paint31_linear" x1="231.082" y1="43.2233" x2="231.082" y2="-0.0049007" gradientUnits="userSpaceOnUse">
<stop stop-color="#39B54A"/>
<stop offset="0.1956" stop-color="#4EBA47"/>
<stop offset="0.7371" stop-color="#85C53F"/>
<stop offset="1" stop-color="#9ACA3C"/>
</linearGradient>
<linearGradient id="paint32_linear" x1="231.082" y1="43.2233" x2="231.082" y2="-0.0049007" gradientUnits="userSpaceOnUse">
<stop stop-color="#39B54A"/>
<stop offset="0.1956" stop-color="#4EBA47"/>
<stop offset="0.7371" stop-color="#85C53F"/>
<stop offset="1" stop-color="#9ACA3C"/>
</linearGradient>
<linearGradient id="paint33_linear" x1="231.082" y1="43.2233" x2="231.082" y2="-0.0049007" gradientUnits="userSpaceOnUse">
<stop stop-color="#39B54A"/>
<stop offset="0.1956" stop-color="#4EBA47"/>
<stop offset="0.7371" stop-color="#85C53F"/>
<stop offset="1" stop-color="#9ACA3C"/>
</linearGradient>
<linearGradient id="paint34_linear" x1="231.082" y1="43.2233" x2="231.082" y2="-0.0049007" gradientUnits="userSpaceOnUse">
<stop stop-color="#39B54A"/>
<stop offset="0.1956" stop-color="#4EBA47"/>
<stop offset="0.7371" stop-color="#85C53F"/>
<stop offset="1" stop-color="#9ACA3C"/>
</linearGradient>
<linearGradient id="paint35_linear" x1="231.082" y1="43.2233" x2="231.082" y2="-0.0049007" gradientUnits="userSpaceOnUse">
<stop stop-color="#39B54A"/>
<stop offset="0.1956" stop-color="#4EBA47"/>
<stop offset="0.7371" stop-color="#85C53F"/>
<stop offset="1" stop-color="#9ACA3C"/>
</linearGradient>
<linearGradient id="paint36_linear" x1="231.082" y1="43.2233" x2="231.082" y2="-0.0049007" gradientUnits="userSpaceOnUse">
<stop stop-color="#39B54A"/>
<stop offset="0.1956" stop-color="#4EBA47"/>
<stop offset="0.7371" stop-color="#85C53F"/>
<stop offset="1" stop-color="#9ACA3C"/>
</linearGradient>
<linearGradient id="paint37_linear" x1="231.082" y1="43.2233" x2="231.082" y2="-0.0049007" gradientUnits="userSpaceOnUse">
<stop stop-color="#39B54A"/>
<stop offset="0.1956" stop-color="#4EBA47"/>
<stop offset="0.7371" stop-color="#85C53F"/>
<stop offset="1" stop-color="#9ACA3C"/>
</linearGradient>
<linearGradient id="paint38_linear" x1="231.082" y1="43.2233" x2="231.082" y2="-0.0049007" gradientUnits="userSpaceOnUse">
<stop stop-color="#39B54A"/>
<stop offset="0.1956" stop-color="#4EBA47"/>
<stop offset="0.7371" stop-color="#85C53F"/>
<stop offset="1" stop-color="#9ACA3C"/>
</linearGradient>
<linearGradient id="paint39_linear" x1="231.082" y1="43.2233" x2="231.082" y2="-0.0049007" gradientUnits="userSpaceOnUse">
<stop stop-color="#39B54A"/>
<stop offset="0.1956" stop-color="#4EBA47"/>
<stop offset="0.7371" stop-color="#85C53F"/>
<stop offset="1" stop-color="#9ACA3C"/>
</linearGradient>
<linearGradient id="paint40_linear" x1="231.082" y1="43.2233" x2="231.082" y2="-0.0049007" gradientUnits="userSpaceOnUse">
<stop stop-color="#39B54A"/>
<stop offset="0.1956" stop-color="#4EBA47"/>
<stop offset="0.7371" stop-color="#85C53F"/>
<stop offset="1" stop-color="#9ACA3C"/>
</linearGradient>
<linearGradient id="paint41_linear" x1="231.082" y1="43.2233" x2="231.082" y2="-0.0049007" gradientUnits="userSpaceOnUse">
<stop stop-color="#39B54A"/>
<stop offset="0.1956" stop-color="#4EBA47"/>
<stop offset="0.7371" stop-color="#85C53F"/>
<stop offset="1" stop-color="#9ACA3C"/>
</linearGradient>
<linearGradient id="paint42_linear" x1="231.082" y1="43.2233" x2="231.082" y2="-0.0049007" gradientUnits="userSpaceOnUse">
<stop stop-color="#39B54A"/>
<stop offset="0.1956" stop-color="#4EBA47"/>
<stop offset="0.7371" stop-color="#85C53F"/>
<stop offset="1" stop-color="#9ACA3C"/>
</linearGradient>
<linearGradient id="paint43_linear" x1="231.082" y1="43.2233" x2="231.082" y2="-0.0049007" gradientUnits="userSpaceOnUse">
<stop stop-color="#39B54A"/>
<stop offset="0.1956" stop-color="#4EBA47"/>
<stop offset="0.7371" stop-color="#85C53F"/>
<stop offset="1" stop-color="#9ACA3C"/>
</linearGradient>
<linearGradient id="paint44_linear" x1="231.082" y1="43.2233" x2="231.082" y2="-0.0049007" gradientUnits="userSpaceOnUse">
<stop stop-color="#39B54A"/>
<stop offset="0.1956" stop-color="#4EBA47"/>
<stop offset="0.7371" stop-color="#85C53F"/>
<stop offset="1" stop-color="#9ACA3C"/>
</linearGradient>
<linearGradient id="paint45_linear" x1="231.082" y1="43.2233" x2="231.082" y2="-0.0049007" gradientUnits="userSpaceOnUse">
<stop stop-color="#39B54A"/>
<stop offset="0.1956" stop-color="#4EBA47"/>
<stop offset="0.7371" stop-color="#85C53F"/>
<stop offset="1" stop-color="#9ACA3C"/>
</linearGradient>
<linearGradient id="paint46_linear" x1="231.082" y1="43.2233" x2="231.082" y2="-0.0049007" gradientUnits="userSpaceOnUse">
<stop stop-color="#39B54A"/>
<stop offset="0.1956" stop-color="#4EBA47"/>
<stop offset="0.7371" stop-color="#85C53F"/>
<stop offset="1" stop-color="#9ACA3C"/>
</linearGradient>
<linearGradient id="paint47_linear" x1="231.082" y1="43.2233" x2="231.082" y2="-0.0049007" gradientUnits="userSpaceOnUse">
<stop stop-color="#39B54A"/>
<stop offset="0.1956" stop-color="#4EBA47"/>
<stop offset="0.7371" stop-color="#85C53F"/>
<stop offset="1" stop-color="#9ACA3C"/>
</linearGradient>
<linearGradient id="paint48_linear" x1="231.082" y1="43.2233" x2="231.082" y2="-0.0049007" gradientUnits="userSpaceOnUse">
<stop stop-color="#39B54A"/>
<stop offset="0.1956" stop-color="#4EBA47"/>
<stop offset="0.7371" stop-color="#85C53F"/>
<stop offset="1" stop-color="#9ACA3C"/>
</linearGradient>
<linearGradient id="paint49_linear" x1="231.082" y1="43.2233" x2="231.082" y2="-0.0049007" gradientUnits="userSpaceOnUse">
<stop stop-color="#39B54A"/>
<stop offset="0.1956" stop-color="#4EBA47"/>
<stop offset="0.7371" stop-color="#85C53F"/>
<stop offset="1" stop-color="#9ACA3C"/>
</linearGradient>
<linearGradient id="paint50_linear" x1="231.082" y1="43.2233" x2="231.082" y2="-0.0049007" gradientUnits="userSpaceOnUse">
<stop stop-color="#39B54A"/>
<stop offset="0.1956" stop-color="#4EBA47"/>
<stop offset="0.7371" stop-color="#85C53F"/>
<stop offset="1" stop-color="#9ACA3C"/>
</linearGradient>
<linearGradient id="paint51_linear" x1="231.082" y1="43.2233" x2="231.082" y2="-0.0049007" gradientUnits="userSpaceOnUse">
<stop stop-color="#39B54A"/>
<stop offset="0.1956" stop-color="#4EBA47"/>
<stop offset="0.7371" stop-color="#85C53F"/>
<stop offset="1" stop-color="#9ACA3C"/>
</linearGradient>
<linearGradient id="paint52_linear" x1="231.082" y1="43.2233" x2="231.082" y2="-0.0049007" gradientUnits="userSpaceOnUse">
<stop stop-color="#39B54A"/>
<stop offset="0.1956" stop-color="#4EBA47"/>
<stop offset="0.7371" stop-color="#85C53F"/>
<stop offset="1" stop-color="#9ACA3C"/>
</linearGradient>
<linearGradient id="paint53_linear" x1="231.082" y1="43.2233" x2="231.082" y2="-0.0049007" gradientUnits="userSpaceOnUse">
<stop stop-color="#39B54A"/>
<stop offset="0.1956" stop-color="#4EBA47"/>
<stop offset="0.7371" stop-color="#85C53F"/>
<stop offset="1" stop-color="#9ACA3C"/>
</linearGradient>
<linearGradient id="paint54_linear" x1="231.082" y1="43.2233" x2="231.082" y2="-0.0049007" gradientUnits="userSpaceOnUse">
<stop stop-color="#39B54A"/>
<stop offset="0.1956" stop-color="#4EBA47"/>
<stop offset="0.7371" stop-color="#85C53F"/>
<stop offset="1" stop-color="#9ACA3C"/>
</linearGradient>
<linearGradient id="paint55_linear" x1="231.082" y1="43.2233" x2="231.082" y2="-0.0049007" gradientUnits="userSpaceOnUse">
<stop stop-color="#39B54A"/>
<stop offset="0.1956" stop-color="#4EBA47"/>
<stop offset="0.7371" stop-color="#85C53F"/>
<stop offset="1" stop-color="#9ACA3C"/>
</linearGradient>
<linearGradient id="paint56_linear" x1="231.082" y1="43.2233" x2="231.082" y2="-0.0049007" gradientUnits="userSpaceOnUse">
<stop stop-color="#39B54A"/>
<stop offset="0.1956" stop-color="#4EBA47"/>
<stop offset="0.7371" stop-color="#85C53F"/>
<stop offset="1" stop-color="#9ACA3C"/>
</linearGradient>
<linearGradient id="paint57_linear" x1="231.082" y1="43.2233" x2="231.082" y2="-0.0049007" gradientUnits="userSpaceOnUse">
<stop stop-color="#39B54A"/>
<stop offset="0.1956" stop-color="#4EBA47"/>
<stop offset="0.7371" stop-color="#85C53F"/>
<stop offset="1" stop-color="#9ACA3C"/>
</linearGradient>
<linearGradient id="paint58_linear" x1="231.082" y1="43.2233" x2="231.082" y2="-0.0049007" gradientUnits="userSpaceOnUse">
<stop stop-color="#39B54A"/>
<stop offset="0.1956" stop-color="#4EBA47"/>
<stop offset="0.7371" stop-color="#85C53F"/>
<stop offset="1" stop-color="#9ACA3C"/>
</linearGradient>
<linearGradient id="paint59_linear" x1="231.082" y1="43.2233" x2="231.082" y2="-0.0049007" gradientUnits="userSpaceOnUse">
<stop stop-color="#39B54A"/>
<stop offset="0.1956" stop-color="#4EBA47"/>
<stop offset="0.7371" stop-color="#85C53F"/>
<stop offset="1" stop-color="#9ACA3C"/>
</linearGradient>
<linearGradient id="paint60_linear" x1="231.082" y1="43.2233" x2="231.082" y2="-0.0049007" gradientUnits="userSpaceOnUse">
<stop stop-color="#39B54A"/>
<stop offset="0.1956" stop-color="#4EBA47"/>
<stop offset="0.7371" stop-color="#85C53F"/>
<stop offset="1" stop-color="#9ACA3C"/>
</linearGradient>
<linearGradient id="paint61_linear" x1="231.082" y1="43.2233" x2="231.082" y2="-0.0049007" gradientUnits="userSpaceOnUse">
<stop stop-color="#39B54A"/>
<stop offset="0.1956" stop-color="#4EBA47"/>
<stop offset="0.7371" stop-color="#85C53F"/>
<stop offset="1" stop-color="#9ACA3C"/>
</linearGradient>
<linearGradient id="paint62_linear" x1="231.082" y1="43.2233" x2="231.082" y2="-0.0049007" gradientUnits="userSpaceOnUse">
<stop stop-color="#39B54A"/>
<stop offset="0.1956" stop-color="#4EBA47"/>
<stop offset="0.7371" stop-color="#85C53F"/>
<stop offset="1" stop-color="#9ACA3C"/>
</linearGradient>
<linearGradient id="paint63_linear" x1="231.082" y1="43.2233" x2="231.082" y2="-0.0049007" gradientUnits="userSpaceOnUse">
<stop stop-color="#39B54A"/>
<stop offset="0.1956" stop-color="#4EBA47"/>
<stop offset="0.7371" stop-color="#85C53F"/>
<stop offset="1" stop-color="#9ACA3C"/>
</linearGradient>
<linearGradient id="paint64_linear" x1="231.082" y1="43.2233" x2="231.082" y2="-0.0049007" gradientUnits="userSpaceOnUse">
<stop stop-color="#39B54A"/>
<stop offset="0.1956" stop-color="#4EBA47"/>
<stop offset="0.7371" stop-color="#85C53F"/>
<stop offset="1" stop-color="#9ACA3C"/>
</linearGradient>
<linearGradient id="paint65_linear" x1="231.082" y1="43.2233" x2="231.082" y2="-0.0049007" gradientUnits="userSpaceOnUse">
<stop stop-color="#39B54A"/>
<stop offset="0.1956" stop-color="#4EBA47"/>
<stop offset="0.7371" stop-color="#85C53F"/>
<stop offset="1" stop-color="#9ACA3C"/>
</linearGradient>
<linearGradient id="paint66_linear" x1="231.082" y1="43.2233" x2="231.082" y2="-0.0049007" gradientUnits="userSpaceOnUse">
<stop stop-color="#39B54A"/>
<stop offset="0.1956" stop-color="#4EBA47"/>
<stop offset="0.7371" stop-color="#85C53F"/>
<stop offset="1" stop-color="#9ACA3C"/>
</linearGradient>
<linearGradient id="paint67_linear" x1="231.082" y1="43.2233" x2="231.082" y2="-0.0049007" gradientUnits="userSpaceOnUse">
<stop stop-color="#39B54A"/>
<stop offset="0.1956" stop-color="#4EBA47"/>
<stop offset="0.7371" stop-color="#85C53F"/>
<stop offset="1" stop-color="#9ACA3C"/>
</linearGradient>
<linearGradient id="paint68_linear" x1="231.082" y1="43.2233" x2="231.082" y2="-0.0049007" gradientUnits="userSpaceOnUse">
<stop stop-color="#39B54A"/>
<stop offset="0.1956" stop-color="#4EBA47"/>
<stop offset="0.7371" stop-color="#85C53F"/>
<stop offset="1" stop-color="#9ACA3C"/>
</linearGradient>
<linearGradient id="paint69_linear" x1="231.082" y1="43.2233" x2="231.082" y2="-0.0049007" gradientUnits="userSpaceOnUse">
<stop stop-color="#39B54A"/>
<stop offset="0.1956" stop-color="#4EBA47"/>
<stop offset="0.7371" stop-color="#85C53F"/>
<stop offset="1" stop-color="#9ACA3C"/>
</linearGradient>
<linearGradient id="paint70_linear" x1="231.082" y1="43.2233" x2="231.082" y2="-0.0049007" gradientUnits="userSpaceOnUse">
<stop stop-color="#39B54A"/>
<stop offset="0.1956" stop-color="#4EBA47"/>
<stop offset="0.7371" stop-color="#85C53F"/>
<stop offset="1" stop-color="#9ACA3C"/>
</linearGradient>
<linearGradient id="paint71_linear" x1="231.082" y1="43.2233" x2="231.082" y2="-0.0049007" gradientUnits="userSpaceOnUse">
<stop stop-color="#39B54A"/>
<stop offset="0.1956" stop-color="#4EBA47"/>
<stop offset="0.7371" stop-color="#85C53F"/>
<stop offset="1" stop-color="#9ACA3C"/>
</linearGradient>
<linearGradient id="paint72_linear" x1="231.082" y1="43.2233" x2="231.082" y2="-0.0049007" gradientUnits="userSpaceOnUse">
<stop stop-color="#39B54A"/>
<stop offset="0.1956" stop-color="#4EBA47"/>
<stop offset="0.7371" stop-color="#85C53F"/>
<stop offset="1" stop-color="#9ACA3C"/>
</linearGradient>
<linearGradient id="paint73_linear" x1="231.082" y1="43.2233" x2="231.082" y2="-0.0049007" gradientUnits="userSpaceOnUse">
<stop stop-color="#39B54A"/>
<stop offset="0.1956" stop-color="#4EBA47"/>
<stop offset="0.7371" stop-color="#85C53F"/>
<stop offset="1" stop-color="#9ACA3C"/>
</linearGradient>
<linearGradient id="paint74_linear" x1="231.082" y1="43.2233" x2="231.082" y2="-0.0049007" gradientUnits="userSpaceOnUse">
<stop stop-color="#39B54A"/>
<stop offset="0.1956" stop-color="#4EBA47"/>
<stop offset="0.7371" stop-color="#85C53F"/>
<stop offset="1" stop-color="#9ACA3C"/>
</linearGradient>
<linearGradient id="paint75_linear" x1="231.082" y1="43.2233" x2="231.082" y2="-0.0049007" gradientUnits="userSpaceOnUse">
<stop stop-color="#39B54A"/>
<stop offset="0.1956" stop-color="#4EBA47"/>
<stop offset="0.7371" stop-color="#85C53F"/>
<stop offset="1" stop-color="#9ACA3C"/>
</linearGradient>
<linearGradient id="paint76_linear" x1="231.082" y1="43.2233" x2="231.082" y2="-0.0049007" gradientUnits="userSpaceOnUse">
<stop stop-color="#39B54A"/>
<stop offset="0.1956" stop-color="#4EBA47"/>
<stop offset="0.7371" stop-color="#85C53F"/>
<stop offset="1" stop-color="#9ACA3C"/>
</linearGradient>
<linearGradient id="paint77_linear" x1="231.082" y1="43.2233" x2="231.082" y2="-0.0049007" gradientUnits="userSpaceOnUse">
<stop stop-color="#39B54A"/>
<stop offset="0.1956" stop-color="#4EBA47"/>
<stop offset="0.7371" stop-color="#85C53F"/>
<stop offset="1" stop-color="#9ACA3C"/>
</linearGradient>
<linearGradient id="paint78_linear" x1="231.082" y1="43.2233" x2="231.082" y2="-0.0049007" gradientUnits="userSpaceOnUse">
<stop stop-color="#39B54A"/>
<stop offset="0.1956" stop-color="#4EBA47"/>
<stop offset="0.7371" stop-color="#85C53F"/>
<stop offset="1" stop-color="#9ACA3C"/>
</linearGradient>
<linearGradient id="paint79_linear" x1="231.082" y1="43.2233" x2="231.082" y2="-0.0049007" gradientUnits="userSpaceOnUse">
<stop stop-color="#39B54A"/>
<stop offset="0.1956" stop-color="#4EBA47"/>
<stop offset="0.7371" stop-color="#85C53F"/>
<stop offset="1" stop-color="#9ACA3C"/>
</linearGradient>
<linearGradient id="paint80_linear" x1="231.082" y1="43.2233" x2="231.082" y2="-0.0049007" gradientUnits="userSpaceOnUse">
<stop stop-color="#39B54A"/>
<stop offset="0.1956" stop-color="#4EBA47"/>
<stop offset="0.7371" stop-color="#85C53F"/>
<stop offset="1" stop-color="#9ACA3C"/>
</linearGradient>
<linearGradient id="paint81_linear" x1="231.082" y1="43.2233" x2="231.082" y2="-0.0049007" gradientUnits="userSpaceOnUse">
<stop stop-color="#39B54A"/>
<stop offset="0.1956" stop-color="#4EBA47"/>
<stop offset="0.7371" stop-color="#85C53F"/>
<stop offset="1" stop-color="#9ACA3C"/>
</linearGradient>
<linearGradient id="paint82_linear" x1="231.082" y1="43.2233" x2="231.082" y2="-0.0049007" gradientUnits="userSpaceOnUse">
<stop stop-color="#39B54A"/>
<stop offset="0.1956" stop-color="#4EBA47"/>
<stop offset="0.7371" stop-color="#85C53F"/>
<stop offset="1" stop-color="#9ACA3C"/>
</linearGradient>
<linearGradient id="paint83_linear" x1="231.082" y1="43.2233" x2="231.082" y2="-0.0049007" gradientUnits="userSpaceOnUse">
<stop stop-color="#39B54A"/>
<stop offset="0.1956" stop-color="#4EBA47"/>
<stop offset="0.7371" stop-color="#85C53F"/>
<stop offset="1" stop-color="#9ACA3C"/>
</linearGradient>
<linearGradient id="paint84_linear" x1="231.082" y1="43.2233" x2="231.082" y2="-0.0049007" gradientUnits="userSpaceOnUse">
<stop stop-color="#39B54A"/>
<stop offset="0.1956" stop-color="#4EBA47"/>
<stop offset="0.7371" stop-color="#85C53F"/>
<stop offset="1" stop-color="#9ACA3C"/>
</linearGradient>
<linearGradient id="paint85_linear" x1="231.082" y1="43.2233" x2="231.082" y2="-0.0049007" gradientUnits="userSpaceOnUse">
<stop stop-color="#39B54A"/>
<stop offset="0.1956" stop-color="#4EBA47"/>
<stop offset="0.7371" stop-color="#85C53F"/>
<stop offset="1" stop-color="#9ACA3C"/>
</linearGradient>
<linearGradient id="paint86_linear" x1="231.082" y1="43.2233" x2="231.082" y2="-0.0049007" gradientUnits="userSpaceOnUse">
<stop stop-color="#39B54A"/>
<stop offset="0.1956" stop-color="#4EBA47"/>
<stop offset="0.7371" stop-color="#85C53F"/>
<stop offset="1" stop-color="#9ACA3C"/>
</linearGradient>
<linearGradient id="paint87_linear" x1="231.082" y1="43.2233" x2="231.082" y2="-0.0049007" gradientUnits="userSpaceOnUse">
<stop stop-color="#39B54A"/>
<stop offset="0.1956" stop-color="#4EBA47"/>
<stop offset="0.7371" stop-color="#85C53F"/>
<stop offset="1" stop-color="#9ACA3C"/>
</linearGradient>
<linearGradient id="paint88_linear" x1="231.082" y1="43.2233" x2="231.082" y2="-0.0049007" gradientUnits="userSpaceOnUse">
<stop stop-color="#39B54A"/>
<stop offset="0.1956" stop-color="#4EBA47"/>
<stop offset="0.7371" stop-color="#85C53F"/>
<stop offset="1" stop-color="#9ACA3C"/>
</linearGradient>
<linearGradient id="paint89_linear" x1="231.082" y1="43.2233" x2="231.082" y2="-0.0049007" gradientUnits="userSpaceOnUse">
<stop stop-color="#39B54A"/>
<stop offset="0.1956" stop-color="#4EBA47"/>
<stop offset="0.7371" stop-color="#85C53F"/>
<stop offset="1" stop-color="#9ACA3C"/>
</linearGradient>
<linearGradient id="paint90_linear" x1="231.082" y1="43.2233" x2="231.082" y2="-0.0049007" gradientUnits="userSpaceOnUse">
<stop stop-color="#39B54A"/>
<stop offset="0.1956" stop-color="#4EBA47"/>
<stop offset="0.7371" stop-color="#85C53F"/>
<stop offset="1" stop-color="#9ACA3C"/>
</linearGradient>
<linearGradient id="paint91_linear" x1="231.082" y1="43.2233" x2="231.082" y2="-0.0049007" gradientUnits="userSpaceOnUse">
<stop stop-color="#39B54A"/>
<stop offset="0.1956" stop-color="#4EBA47"/>
<stop offset="0.7371" stop-color="#85C53F"/>
<stop offset="1" stop-color="#9ACA3C"/>
</linearGradient>
<linearGradient id="paint92_linear" x1="231.082" y1="43.2233" x2="231.082" y2="-0.0049007" gradientUnits="userSpaceOnUse">
<stop stop-color="#39B54A"/>
<stop offset="0.1956" stop-color="#4EBA47"/>
<stop offset="0.7371" stop-color="#85C53F"/>
<stop offset="1" stop-color="#9ACA3C"/>
</linearGradient>
<linearGradient id="paint93_linear" x1="231.082" y1="43.2233" x2="231.082" y2="-0.0049007" gradientUnits="userSpaceOnUse">
<stop stop-color="#39B54A"/>
<stop offset="0.1956" stop-color="#4EBA47"/>
<stop offset="0.7371" stop-color="#85C53F"/>
<stop offset="1" stop-color="#9ACA3C"/>
</linearGradient>
</defs>
</svg>
