<svg width="646" height="277" viewBox="0 0 646 277" fill="none" xmlns="http://www.w3.org/2000/svg">
<g opacity="0.2">
<g opacity="0.5">
<path opacity="0.5" d="M980.9 650.017C957.928 653.283 934.957 656.475 911.986 659.619C889.014 662.762 866.018 665.857 843.047 668.926C797.08 675.066 751.088 681.083 705.071 687.026L670.577 691.446L636.059 695.842L601.54 700.213L567.022 704.536L497.985 713.131L428.923 721.628L426.638 721.898L425.09 720.203C391.653 683.44 358.314 646.628 324.999 609.742L275.101 554.388L225.301 498.936C192.133 461.927 159.04 424.869 126.045 387.713L101.329 359.815L76.6623 331.893C60.226 313.253 43.8144 294.589 27.501 275.852C44.576 293.902 61.5772 312.025 78.5539 330.174L103.982 357.409L129.361 384.692C163.192 421.087 196.9 457.581 230.558 494.147L280.973 549.034L331.289 604.02C364.8 640.709 398.262 677.448 431.626 714.26L427.793 712.836L496.855 704.511L565.941 696.309L600.484 692.232L635.027 688.204L669.57 684.201L704.138 680.223C750.228 674.968 796.318 669.786 842.408 664.702C865.453 662.173 888.523 659.668 911.593 657.212C934.761 654.781 957.83 652.35 980.9 650.017Z" fill="white"/>
</g>
<g opacity="0.5">
<path opacity="0.5" d="M990.334 638.99C967.363 642.256 944.391 645.449 921.42 648.592C898.448 651.736 875.453 654.83 852.481 657.924C806.514 664.064 760.522 670.08 714.505 676.023L645.493 684.84L610.974 689.211L576.456 693.533L507.419 702.129C484.398 705.002 461.378 707.777 438.357 710.601L436.072 710.871L434.524 709.152L409.735 681.77L384.97 654.363L335.489 599.501C302.543 562.885 269.646 526.22 236.823 489.481C204 452.743 171.25 415.955 138.623 379.044L114.153 351.343L89.7322 323.617C73.468 305.125 57.2283 286.583 41.0869 267.993C57.9899 285.896 74.8193 303.897 91.624 321.922L116.807 348.961L141.94 376.048C175.427 412.173 208.79 448.42 242.105 484.717C275.42 520.989 308.636 557.384 341.803 593.779L391.505 648.445L416.319 675.802L441.109 703.185L437.276 701.76C460.297 698.985 483.317 696.161 506.338 693.435L575.424 685.233L609.967 681.156L644.51 677.129L713.621 669.147C759.711 663.892 805.801 658.71 851.891 653.627C874.936 651.097 898.006 648.592 921.076 646.136C944.195 643.754 967.24 641.323 990.334 638.99Z" fill="white"/>
</g>
<g opacity="0.5">
<path opacity="0.5" d="M999.768 627.964C976.797 631.255 953.826 634.423 930.854 637.566C907.883 640.71 884.887 643.804 861.915 646.898C815.948 653.038 769.956 659.054 723.94 664.997L654.927 673.814L620.408 678.185L585.89 682.507C539.873 688.278 493.832 693.951 447.791 699.575L445.506 699.845L443.959 698.126L419.415 670.94L394.896 643.73L345.931 589.26C313.353 552.89 280.776 516.52 248.321 480.027C215.866 443.558 183.461 407.016 151.153 370.375L126.953 342.895L102.803 315.365C86.7104 296.996 70.6428 278.602 54.6733 260.135C71.4044 277.914 88.0617 295.768 104.695 313.671L129.607 340.513L154.47 367.404C187.613 403.283 220.633 439.26 253.579 475.287C286.549 511.314 319.397 547.438 352.245 583.563L401.431 637.836L425.975 664.997L450.518 692.183L446.686 690.759C492.727 685.184 538.768 679.659 584.834 674.207L619.377 670.13L653.92 666.103L723.03 658.121C769.121 652.866 815.211 647.684 861.301 642.625C884.346 640.096 907.416 637.591 930.486 635.135C953.604 632.704 976.674 630.272 999.768 627.964Z" fill="white"/>
</g>
<g opacity="0.5">
<path opacity="0.5" d="M1009.2 616.913C986.231 620.203 963.259 623.371 940.288 626.515C917.317 629.658 894.321 632.752 871.349 635.847C825.382 641.986 779.39 648.003 733.373 653.946L664.361 662.762L629.843 667.134L595.324 671.456C549.308 677.227 503.266 682.9 457.225 688.524L454.916 688.794L453.368 687.075L404.846 633.072L356.422 578.995C324.188 542.895 291.954 506.77 259.868 470.547C227.757 434.324 195.696 398.077 163.757 361.706L139.827 334.422L115.922 307.089C100.002 288.843 84.1307 270.596 68.3087 252.251C84.8678 269.909 101.353 287.639 117.789 305.395L142.456 332.04L167.073 358.735C199.848 394.344 232.523 430.051 265.15 465.832C297.777 501.588 330.281 537.443 362.785 573.322L411.455 627.202L460.026 681.156L456.194 679.707C502.235 674.133 548.276 668.583 594.341 663.155L628.884 659.079L663.428 655.051L732.538 647.07C778.628 641.814 824.719 636.633 870.809 631.574C893.854 629.044 916.923 626.539 939.993 624.084C963.038 621.677 986.108 619.246 1009.2 616.913Z" fill="white"/>
</g>
<g opacity="0.5">
<path opacity="0.5" d="M1018.61 605.886C995.641 609.177 972.669 612.345 949.698 615.488C926.726 618.632 903.731 621.726 880.759 624.82C834.792 630.96 788.8 636.976 742.783 642.919L673.771 651.736L639.252 656.107L604.734 660.429C558.717 666.2 512.676 671.873 466.635 677.497L464.326 677.767L462.778 676.048L414.821 622.463L366.912 568.779C335.023 532.949 303.157 497.094 271.391 461.117C239.624 425.164 207.906 389.162 176.311 353.062L152.627 325.974L128.992 298.838C113.244 280.739 97.5449 262.615 81.8949 244.417C98.282 261.952 114.595 279.535 130.86 297.168L155.256 323.617L179.603 350.115C212.033 385.454 244.365 420.915 276.648 456.402C308.931 491.888 341.091 527.497 373.226 563.106L421.38 616.593L469.436 670.154L465.579 668.705C511.62 663.131 557.661 657.581 603.727 652.153L638.27 648.077L672.813 644.049L741.924 636.068C788.014 630.812 834.104 625.606 880.194 620.572C903.239 618.042 926.309 615.537 949.378 613.081C972.473 610.626 995.542 608.194 1018.61 605.886Z" fill="white"/>
</g>
<g opacity="0.5">
<path opacity="0.5" d="M1028.05 594.86C1005.07 598.15 982.103 601.318 959.132 604.486C936.161 607.63 913.165 610.749 890.193 613.818C844.226 619.958 798.234 625.975 752.217 631.918L683.205 640.734L648.687 645.105L614.168 649.427L579.65 653.725L545.131 657.998L476.069 666.471L473.76 666.765L472.212 665.022L424.746 611.805L377.354 558.514L353.694 531.819L330.06 505.125L306.45 478.406L282.864 451.662C251.441 415.979 220.092 380.248 188.841 344.393L165.427 317.502L142.063 290.562C126.486 272.586 110.959 254.609 95.5057 236.534C111.721 253.921 127.838 271.407 143.955 288.892L168.081 315.144L192.158 341.446C224.244 376.539 256.232 411.706 288.146 446.947L312.076 473.396L335.956 499.869L359.837 526.367L383.692 552.865L431.33 605.96L478.87 659.128L475.013 657.679L544.074 649.354L578.618 645.228L613.161 641.127L647.704 637.05L682.247 633.023L751.357 625.041C797.448 619.786 843.538 614.58 889.628 609.545C912.673 607.016 935.743 604.511 958.813 602.08C981.907 599.599 1004.98 597.168 1028.05 594.86Z" fill="white"/>
</g>
<g opacity="0.5">
<path opacity="0.5" d="M1037.48 583.809C1014.51 587.099 991.538 590.292 968.567 593.435C945.595 596.579 922.599 599.697 899.628 602.767C853.66 608.907 807.668 614.923 761.652 620.866L692.639 629.683L623.602 638.376L589.084 642.674L554.565 646.947L485.504 655.42L483.194 655.714L481.646 653.971L434.721 601.171L387.869 548.273L364.48 521.775L341.116 495.277L317.751 468.754L294.436 442.207C263.357 406.795 232.351 371.308 201.444 335.749L178.277 309.054L155.158 282.31C139.753 264.481 124.398 246.603 109.117 228.676C125.16 245.94 141.105 263.278 157.025 280.64L180.905 306.696L204.737 332.802C236.479 367.625 268.123 402.546 299.693 437.517L323.353 463.745L346.987 490.022L370.598 516.323L394.183 542.625L441.305 595.302L488.329 648.077L484.472 646.628L553.533 638.278L588.077 634.152L622.62 630.051L691.706 621.947L760.816 613.966C806.907 608.71 852.997 603.504 899.087 598.47C922.132 595.94 945.202 593.435 968.272 591.004C991.341 588.548 1014.41 586.142 1037.48 583.809Z" fill="white"/>
</g>
<g opacity="0.5">
<path opacity="0.5" d="M1046.92 572.782C1023.94 576.073 1000.97 579.265 978.001 582.409C955.029 585.577 932.034 588.671 909.062 591.741C863.095 597.905 817.103 603.921 771.086 609.84L736.592 614.285L702.074 618.681L633.037 627.374L564 635.945L494.938 644.417L492.629 644.712L491.081 642.969L444.647 590.537L398.311 538.032C382.906 520.498 367.453 502.988 352.073 485.429L328.979 459.103L305.934 432.752C275.223 397.585 244.537 362.394 213.999 327.08L191.101 300.581L168.253 274.059C153.02 256.353 137.837 238.622 122.728 220.842C138.599 237.983 154.372 255.174 170.12 272.414L193.73 298.273L217.291 324.182C248.689 358.735 279.965 393.411 311.191 428.111L334.605 454.142L357.969 480.223C373.57 497.585 389.098 515.022 404.649 532.433L451.231 584.717L497.739 637.075L493.857 635.601L562.919 627.251L632.005 619.025L701.091 610.92L735.634 606.918L770.202 602.939C816.292 597.684 862.382 592.477 908.472 587.443C931.518 584.914 954.587 582.409 977.657 579.977C1000.78 577.522 1023.85 575.09 1046.92 572.782Z" fill="white"/>
</g>
<g opacity="0.5">
<path opacity="0.5" d="M1056.35 561.755C1033.38 565.046 1010.41 568.238 987.435 571.382C964.464 574.55 941.467 577.644 918.496 580.714C872.529 586.878 826.537 592.895 780.52 598.813L746.026 603.258L711.508 607.654L642.471 616.348L573.434 624.918L504.372 633.391L502.038 633.685L500.49 631.917L454.621 579.879L408.801 527.767L363.08 475.557L340.256 449.427L317.456 423.273C287.09 388.376 256.772 353.43 226.553 318.386C211.444 300.852 196.359 283.317 181.323 265.758C166.263 248.199 151.251 230.591 136.314 212.934C152.013 229.928 167.614 247.021 183.19 264.113C198.767 281.205 214.318 298.347 229.845 315.488C260.9 349.796 291.831 384.177 322.714 418.631L345.857 444.466L368.976 470.351L415.14 522.168L461.205 574.059L507.197 626.023L503.316 624.55L572.377 616.2L641.463 607.973L710.55 599.869L745.093 595.866L779.66 591.888C825.751 586.632 871.841 581.426 917.931 576.392C940.976 573.862 964.046 571.382 987.116 568.926C1010.21 566.47 1033.28 564.064 1056.35 561.755Z" fill="white"/>
</g>
<g opacity="0.5">
<path opacity="0.5" d="M1065.78 550.704C1042.81 553.995 1019.84 557.188 996.869 560.331C973.898 563.499 950.902 566.593 927.93 569.663C881.963 575.827 835.971 581.844 789.979 587.762L755.485 592.207L720.967 596.603L651.93 605.297L582.892 613.867L513.831 622.315L511.497 622.61L509.949 620.842L464.571 569.197L419.292 517.477L374.086 465.66L351.508 439.727L328.979 413.769C298.956 379.143 268.983 344.467 239.132 309.693C224.195 292.305 209.282 274.894 194.418 257.458C179.554 240.022 164.69 222.561 149.925 205.026C165.427 221.898 180.856 238.843 196.285 255.812C211.69 272.782 227.069 289.776 242.424 306.795C273.11 340.832 303.723 374.968 334.261 409.152L357.159 434.791L380.007 460.478L425.655 511.878L471.205 563.376L516.681 614.948L512.799 613.474L581.861 605.125L650.947 596.898L720.033 588.794L754.576 584.791L789.144 580.812C835.234 575.557 881.324 570.351 927.414 565.316C950.46 562.787 973.529 560.307 996.599 557.851C1019.64 555.444 1042.69 553.013 1065.78 550.704Z" fill="white"/>
</g>
<g opacity="0.5">
<path opacity="0.5" d="M1075.22 539.678C1052.25 542.968 1029.27 546.161 1006.3 549.329L971.834 554.019L937.365 558.661C891.397 564.825 845.405 570.842 799.413 576.785L764.919 581.23L730.401 585.626C707.405 588.573 684.384 591.421 661.364 594.319L592.327 602.89L523.265 611.338L520.931 611.632L519.383 609.864L474.522 558.587L429.758 507.261L385.093 455.837L362.785 430.1L340.501 404.339C310.823 369.982 281.218 335.552 251.687 301.048C236.946 283.784 222.205 266.52 207.488 249.206C192.796 231.893 178.105 214.58 163.511 197.193C178.842 213.941 194.099 230.763 209.331 247.585C224.563 264.432 239.747 281.303 254.93 298.175C285.272 331.942 315.515 365.832 345.71 399.746L368.337 425.189L390.94 450.68L436.072 501.687L481.106 552.792L526.041 603.97L522.16 602.497L591.221 594.147L660.307 585.92C683.328 583.219 706.373 580.468 729.394 577.816L763.937 573.789L798.504 569.81C844.595 564.555 890.685 559.349 936.775 554.314L971.367 550.557L1005.96 546.849C1029.05 544.393 1052.12 541.986 1075.22 539.678Z" fill="white"/>
</g>
<g opacity="0.5">
<path opacity="0.5" d="M1084.65 528.651C1061.68 531.942 1038.71 535.134 1015.74 538.302L981.268 543.017L946.799 547.659C900.832 553.823 854.84 559.84 808.848 565.783L774.354 570.228L739.835 574.624L705.317 578.995L670.798 583.317L601.761 591.888L532.699 600.336L530.365 600.63L528.818 598.862L484.472 547.929L462.336 522.462L440.224 496.996L396.075 445.989L352.024 394.884C322.689 360.773 293.428 326.637 264.266 292.379C249.697 275.262 235.128 258.121 220.583 240.955C206.063 223.789 191.543 206.598 177.122 189.334C192.28 205.96 207.365 222.635 222.426 239.334C237.486 256.033 252.497 272.782 267.509 289.53C297.507 323.052 327.406 356.647 357.257 390.292L401.947 440.832L446.563 491.446L468.822 516.79L491.081 542.158L535.5 592.944L531.619 591.446L600.68 583.096L669.766 574.869L704.309 570.793L738.853 566.74L773.396 562.713L807.963 558.759C854.054 553.479 900.144 548.297 946.234 543.263L980.826 539.506L1015.42 535.797C1038.49 533.366 1061.56 530.96 1084.65 528.651Z" fill="white"/>
</g>
<g opacity="0.5">
<path opacity="0.5" d="M1094.06 517.6C1071.09 520.891 1048.12 524.083 1025.15 527.251L990.702 531.967L956.233 536.608C910.266 542.772 864.274 548.789 818.282 554.732L783.788 559.177L749.269 563.573L714.751 567.944L680.232 572.291L611.195 580.862L542.134 589.309L539.775 589.604L538.227 587.811L494.422 537.296L472.556 512.026L450.715 486.755L428.874 461.461L407.081 436.141L363.546 385.429C334.58 351.588 305.639 317.699 276.82 283.735C262.423 266.741 248.026 249.747 233.678 232.703C219.33 215.66 204.982 198.617 190.733 181.476C205.719 197.954 220.632 214.531 235.521 231.107C250.409 247.684 265.248 264.285 280.088 280.911C309.742 314.162 339.297 347.512 368.779 380.886L412.953 431.033L435.016 456.132L457.054 481.254L479.067 506.402L501.055 531.574L544.959 581.942L541.053 580.444L610.114 572.07L679.2 563.818L713.744 559.742L748.287 555.69L782.83 551.662L817.397 547.684C863.487 542.404 909.578 537.222 955.668 532.188L990.26 528.43L1024.85 524.722C1047.92 522.315 1070.99 519.909 1094.06 517.6Z" fill="white"/>
</g>
<g opacity="0.5">
<path opacity="0.5" d="M1103.5 506.574C1080.52 509.889 1057.55 513.082 1034.58 516.225L1000.11 520.94L965.643 525.582C919.675 531.746 873.683 537.762 827.692 543.705C781.7 549.648 735.683 555.444 689.667 561.215L620.63 569.761L551.568 578.209L549.209 578.504L547.662 576.711C518.794 543.337 489.951 509.938 461.181 476.49L439.61 451.392L418.064 426.269L375.044 375.974C346.422 342.404 317.849 308.784 289.375 275.066C275.149 258.219 260.924 241.348 246.748 224.427C232.573 207.531 218.421 190.611 204.344 173.617C219.158 189.973 233.899 206.402 248.591 222.856C263.308 239.309 277.975 255.788 292.642 272.266C321.952 305.248 351.164 338.327 380.302 371.456L423.96 421.21L445.752 446.112L467.52 471.038C496.535 504.29 525.476 537.59 554.393 570.916L550.487 569.418L619.548 561.043L688.635 552.792C734.7 547.364 780.766 541.962 826.832 536.706C872.922 531.426 919.012 526.245 965.102 521.21L999.694 517.453L1034.29 513.769C1057.36 511.289 1080.43 508.882 1103.5 506.574Z" fill="white"/>
</g>
<g opacity="0.5">
<path opacity="0.5" d="M1112.93 495.547C1089.98 498.863 1066.99 502.055 1044.02 505.199L1009.55 509.914L975.077 514.555C929.11 520.719 883.118 526.736 837.126 532.679C791.134 538.622 745.117 544.418 699.101 550.189L630.064 558.735L561.002 567.158L558.644 567.453L557.096 565.66C528.572 532.556 500.073 499.427 471.672 466.225L450.371 441.323L429.095 416.397L386.616 366.495C358.338 333.195 330.109 299.82 301.978 266.372C287.925 249.648 273.872 232.9 259.868 216.127C245.864 199.354 231.885 182.556 217.979 165.709C232.622 181.942 247.166 198.224 261.711 214.555C276.255 230.861 290.75 247.217 305.221 263.573C334.187 296.309 363.03 329.118 391.849 361.976L434.991 411.338L456.538 436.043L478.035 460.773C506.706 493.755 535.304 526.785 563.852 559.865L559.946 558.367L629.007 549.992L698.094 541.741C744.159 536.313 790.225 530.911 836.291 525.655C882.381 520.375 928.471 515.194 974.561 510.159L1009.15 506.402L1043.75 502.718C1066.79 500.238 1089.86 497.831 1112.93 495.547Z" fill="white"/>
</g>
<g opacity="0.5">
<path opacity="0.5" d="M1122.36 484.52C1099.42 487.836 1076.42 491.028 1053.45 494.196L1018.98 498.911L984.511 503.553C938.544 509.717 892.552 515.734 846.56 521.677C800.568 527.62 754.552 533.415 708.535 539.186L639.498 547.733L604.98 551.957L570.461 556.156L568.103 556.451L566.555 554.658L545.426 530.026L524.322 505.37L482.162 456.009L461.107 431.303L440.101 406.573C426.073 390.095 412.118 373.568 398.139 357.065C370.205 324.01 342.319 290.93 314.557 257.752C300.676 241.151 286.795 224.55 272.963 207.924C259.131 191.298 245.324 174.624 231.59 157.9C246.061 174.01 260.433 190.169 274.806 206.353C289.178 222.536 303.501 238.744 317.8 254.977C346.398 287.443 374.922 320.007 403.372 352.595C417.572 368.902 431.822 385.208 445.998 401.564L467.274 426.072L488.526 450.606L530.955 499.722L552.133 524.304L573.311 548.911L569.405 547.389L603.923 543.189L638.466 539.015L707.552 530.763C753.618 525.336 799.684 519.908 845.749 514.653C891.84 509.373 937.93 504.191 984.02 499.157L1018.61 495.4L1053.2 491.716C1076.23 489.211 1099.29 486.804 1122.36 484.52Z" fill="white"/>
</g>
<g opacity="0.5">
<path opacity="0.5" d="M1131.8 473.469C1108.85 476.785 1085.88 479.977 1062.88 483.145L1028.41 487.86L993.945 492.502C947.978 498.666 901.986 504.683 855.994 510.626C810.002 516.569 763.986 522.364 717.969 528.136L648.932 536.682L614.414 540.906L579.871 545.105L577.512 545.4L575.964 543.582C562.059 527.301 548.128 511.019 534.247 494.688L513.413 470.228L492.629 445.744L471.844 421.235L451.083 396.701L430.348 372.143L409.637 347.585C382.046 314.801 354.53 281.967 327.087 249.059C313.378 232.605 299.669 216.127 286.009 199.624C272.349 183.121 258.713 166.593 245.152 150.017C259.45 165.979 273.651 182.016 287.827 198.077C302.027 214.137 316.154 230.223 330.305 246.308C358.559 278.504 386.739 310.798 414.845 343.14L435.9 367.404L456.931 391.691L477.961 416.004L498.943 440.341L519.924 464.678L540.856 489.039C554.836 505.272 568.741 521.554 582.696 537.836L578.79 536.313L613.308 532.114L647.851 527.939L716.938 519.688C763.003 514.236 809.069 508.833 855.134 503.578C901.225 498.298 947.315 493.116 993.405 488.081L1028 484.324L1062.59 480.64C1085.63 478.16 1108.7 475.778 1131.8 473.469Z" fill="white"/>
</g>
<g opacity="0.5">
<path opacity="0.5" d="M1141.23 462.443C1118.29 465.758 1095.31 468.951 1072.32 472.119L1037.85 476.834L1003.38 481.476C957.412 487.64 911.42 493.656 865.428 499.599L796.416 508.416L727.379 517.085C681.362 522.807 635.321 528.48 589.28 534.054L586.897 534.349L585.349 532.532L544.173 484.03L523.609 459.766L503.07 435.478L482.555 411.166L462.065 386.829L441.6 362.468L421.159 338.106C393.913 305.591 366.74 273.027 339.666 240.365C326.129 224.034 312.592 207.703 299.104 191.323C285.616 174.943 272.152 158.563 258.762 142.109C272.865 157.949 286.918 173.862 300.922 189.776C314.926 205.69 328.905 221.652 342.86 237.615C370.77 269.565 398.581 301.588 426.343 333.661L447.152 357.728L467.937 381.819L488.698 405.935L509.433 430.076L530.144 454.216L550.831 478.381L592.155 526.76L588.248 525.238C634.29 519.59 680.331 514.064 726.396 508.588L795.482 500.459L864.593 492.478C910.683 487.198 956.773 482.016 1002.86 476.981L1037.46 473.224L1072.05 469.54C1095.07 467.134 1118.14 464.727 1141.23 462.443Z" fill="white"/>
</g>
<g opacity="0.5">
<path opacity="0.5" d="M1150.67 451.417C1127.72 454.732 1104.75 457.924 1081.75 461.092L1047.28 465.808L1012.81 470.449C966.847 476.613 920.855 482.654 874.863 488.573L805.85 497.389L736.813 506.058C690.797 511.78 644.756 517.453 598.715 523.028L596.332 523.322L594.784 521.505L574.441 497.463L554.123 473.396L533.805 449.329L513.536 425.238C486.511 393.116 459.56 360.896 432.633 328.651C405.755 296.407 378.902 264.088 352.171 231.721L332.124 207.409L312.125 183.072C298.809 166.839 285.517 150.582 272.3 134.25C286.23 149.968 300.086 165.734 313.943 181.525L334.679 205.248L355.365 228.995C382.931 260.675 410.398 292.428 437.817 324.256C465.21 356.083 492.579 387.934 519.85 419.884L540.316 443.828L560.732 467.797L581.148 491.79L601.54 515.808L597.609 514.26C643.65 508.612 689.691 503.087 735.757 497.61L804.843 489.481L873.954 481.5C920.044 476.22 966.134 471.038 1012.22 466.004L1046.82 462.247L1081.41 458.563C1104.5 456.083 1127.57 453.701 1150.67 451.417Z" fill="white"/>
</g>
<g opacity="0.5">
<path opacity="0.5" d="M1160.1 440.365C1137.15 443.681 1114.18 446.898 1091.19 450.041L1056.72 454.756L1022.25 459.398C976.281 465.562 930.289 471.603 884.297 477.521C861.301 480.493 838.281 483.415 815.285 486.338L746.248 495.007C723.227 497.856 700.231 500.753 677.211 503.553L642.692 507.777L608.149 511.952L605.766 512.247L604.218 510.405L584.146 486.559L564.098 462.688L544.05 438.818L524.051 414.923C497.37 383.047 470.763 351.122 444.204 319.147C417.671 287.148 391.186 255.125 364.775 223.003L344.997 198.911L325.269 174.771C312.125 158.661 299.006 142.551 285.96 126.367C299.718 141.937 313.403 157.605 327.063 173.248L347.528 196.775L367.969 220.326C395.191 251.736 422.314 283.244 449.388 314.801C476.438 346.357 503.439 377.964 530.366 409.619L550.561 433.366L570.731 457.138L590.877 480.911L610.999 504.732L607.068 503.185L641.586 498.961L676.129 494.786C699.15 491.986 722.171 489.26 745.216 486.51L814.302 478.381C837.347 475.704 860.367 473.027 883.413 470.4C929.503 465.12 975.593 459.938 1021.68 454.904L1056.28 451.146L1090.87 447.463C1113.94 445.056 1137.01 442.649 1160.1 440.365Z" fill="white"/>
</g>
<g opacity="0.5">
<path opacity="0.5" d="M1169.51 429.339C1146.56 432.654 1123.59 435.871 1100.6 439.039L1066.13 443.754L1031.66 448.396L997.164 452.988L962.695 457.556L893.707 466.52C870.711 469.491 847.69 472.414 824.694 475.336L755.657 484.005C732.637 486.854 709.641 489.727 686.62 492.551L652.102 496.775L617.559 500.95L615.175 501.245L613.628 499.403L593.801 475.754L574.023 452.08L554.246 428.406L534.493 404.707C508.156 373.101 481.917 341.421 455.702 309.717C429.513 277.988 403.372 246.21 377.329 214.359L357.822 190.464L338.339 166.52C325.367 150.557 312.42 134.57 299.546 118.509C313.132 133.956 326.645 149.476 340.133 164.997L360.353 188.327L380.523 211.682C407.401 242.846 434.18 274.083 460.886 305.37C487.592 336.657 514.249 367.993 540.832 399.403L560.781 422.954L580.681 446.53L600.582 470.105L620.433 493.705L616.502 492.158L651.021 487.934L685.564 483.759C708.584 480.96 731.605 478.234 754.65 475.483L823.736 467.355C846.781 464.678 869.802 462.001 892.847 459.373L961.982 451.539L996.55 447.684L1031.12 443.877L1065.71 440.12L1100.3 436.436C1123.37 434.005 1146.44 431.623 1169.51 429.339Z" fill="white"/>
</g>
<g opacity="0.5">
<path opacity="0.5" d="M1178.95 418.312C1156 421.628 1133.03 424.845 1110.03 428.013L1075.56 432.728L1041.09 437.394L1006.62 441.986L972.129 446.554L937.635 451.048L903.141 455.518C880.145 458.489 857.125 461.412 834.129 464.334L765.091 473.003C742.071 475.852 719.075 478.725 696.054 481.525L661.536 485.748L626.993 489.923L624.61 490.218L623.062 488.376L603.505 464.923L583.974 441.446L564.442 417.969L544.959 394.467L506.043 347.414L467.225 300.262C441.379 268.804 415.582 237.296 389.884 205.714L370.622 182.016L351.41 158.268C338.609 142.428 325.834 126.564 313.157 110.65C326.571 125.975 339.912 141.348 353.228 156.77L373.177 179.904L393.078 203.062C419.587 233.956 446.022 264.923 472.409 295.965L511.915 342.551L551.322 389.211L571.002 412.566L590.656 435.945L610.286 459.324L629.892 482.728L625.961 481.181L660.48 476.957L695.023 472.782C718.043 469.982 741.064 467.256 764.109 464.506L833.195 456.353C856.24 453.7 879.261 450.999 902.306 448.371L936.873 444.442L971.441 440.537L1006.01 436.682L1040.58 432.875L1075.17 429.118L1109.76 425.434C1132.81 422.978 1155.88 420.572 1178.95 418.312Z" fill="white"/>
</g>
<g opacity="0.5">
<path opacity="0.5" d="M1188.38 407.261C1165.43 410.577 1142.46 413.794 1119.47 416.962L1085 421.677L1050.53 426.343C1004.56 432.507 958.567 438.548 912.575 444.467L878.081 448.887L843.563 453.283L809.044 457.63L774.526 461.952L740.007 466.249L705.489 470.498L670.97 474.722L636.427 478.897L634.019 479.192L632.472 477.325L613.186 454.069L593.924 430.788L555.45 384.201C542.625 368.681 529.85 353.086 517.049 337.541L478.747 290.807C453.246 259.619 427.817 228.356 402.463 197.045L383.471 173.543L364.505 150.017C351.877 134.299 339.273 118.582 326.768 102.816C340.01 118.018 353.179 133.268 366.298 148.543L385.977 171.48L405.632 194.442C431.797 225.09 457.889 255.788 483.907 286.534L522.897 332.728C535.869 348.15 548.841 363.548 561.788 378.995L600.582 425.336L619.966 448.519L639.302 471.726L635.371 470.154L669.889 465.93L704.432 461.755L738.975 457.605L773.518 453.479L808.061 449.403L842.605 445.351L877.148 441.348L911.715 437.369C957.806 432.089 1003.9 426.908 1050.01 421.873L1084.6 418.116L1119.2 414.432C1142.24 411.927 1165.31 409.545 1188.38 407.261Z" fill="white"/>
</g>
<g opacity="0.5">
<path opacity="0.5" d="M1197.81 396.235C1174.87 399.55 1151.9 402.767 1128.9 405.935L1094.43 410.65L1059.96 415.316C1013.99 421.48 968.001 427.521 922.009 433.44L887.515 437.86L852.997 442.256L818.478 446.603L783.96 450.925L749.441 455.223L714.923 459.471L680.404 463.695L645.861 467.87L643.453 468.165L641.906 466.298L622.865 443.239L603.849 420.154L565.916 373.936L546.974 350.802L528.056 327.669L490.27 281.328C465.112 250.409 440.028 219.417 415.017 188.376L396.271 165.071L377.575 141.74C365.119 126.171 352.712 110.576 340.354 94.933C353.424 109.987 366.396 125.115 379.368 140.267L398.802 163.008L418.186 185.773C444.008 216.151 469.755 246.578 495.429 277.079L533.903 322.855L553.091 345.793L572.254 368.73L610.532 414.653L629.646 437.639L648.736 460.65L644.78 459.078L679.299 454.854L713.842 450.68L748.385 446.505L782.928 442.379L817.471 438.278L852.014 434.226L886.557 430.223L921.125 426.244C967.215 420.964 1013.31 415.783 1059.42 410.748L1094.01 406.991L1128.6 403.307C1151.65 400.901 1174.74 398.518 1197.81 396.235Z" fill="white"/>
</g>
<g opacity="0.5">
<path opacity="0.5" d="M1207.25 385.208C1184.3 388.548 1161.33 391.741 1138.36 394.933L1103.89 399.648L1069.42 404.314C1023.45 410.478 977.46 416.52 931.468 422.438L896.974 426.859L862.456 431.254L827.937 435.601L793.419 439.923L758.9 444.221L724.382 448.445L689.863 452.669L655.32 456.844L652.912 457.138L651.389 455.272L613.824 409.496C601.319 394.246 588.863 378.97 576.382 363.695L539.038 317.821L501.792 271.873L483.194 248.862L464.621 225.827L446.072 202.767L427.571 179.683L409.096 156.574L390.67 133.44C378.386 117.993 366.151 102.546 353.965 87.0255C366.863 101.957 379.663 116.962 392.463 131.967L411.627 154.511L430.741 177.08L449.83 199.673L468.895 222.291L487.936 244.933L506.952 267.6L544.885 312.983L582.721 358.465C595.324 373.641 607.928 388.794 620.482 403.995L658.17 449.599L654.215 448.028L688.758 443.803L723.3 439.629L757.844 435.454L792.387 431.328L826.93 427.227L861.473 423.175L896.016 419.172L930.584 415.193C976.674 409.914 1022.76 404.732 1068.88 399.722L1103.47 395.965L1138.06 392.281C1161.08 389.85 1184.15 387.468 1207.25 385.208Z" fill="white"/>
</g>
<g opacity="0.5">
<path opacity="0.5" d="M1216.68 374.157C1193.74 377.497 1170.76 380.714 1147.79 383.882L1113.32 388.597L1078.85 393.263C1032.89 399.427 986.894 405.493 940.902 411.387L906.409 415.807L871.89 420.203C848.87 423.101 825.874 426.024 802.853 428.848L768.335 433.145L733.816 437.369L699.298 441.593L664.754 445.768L662.347 446.063L660.799 444.172C636.108 413.966 611.49 383.71 586.897 353.406L550.069 307.924L513.34 262.369L495.012 239.555L476.708 216.716L458.429 193.853L440.175 170.965L421.97 148.052L403.789 125.115C391.677 109.815 379.614 94.4912 367.6 79.1179C380.302 93.9264 392.955 108.784 405.558 123.666L424.451 146.014L443.32 168.386L462.139 190.783L480.934 213.204L499.704 235.65L518.45 258.121L555.867 303.111L593.187 348.175C618.05 378.258 642.84 408.366 667.604 438.524L663.649 436.927L698.167 432.703L732.71 428.528L767.253 424.354L801.796 420.228C824.817 417.477 847.862 414.776 870.883 412.075L905.426 408.072L939.993 404.093C986.084 398.813 1032.17 393.656 1078.29 388.622L1112.88 384.889L1147.47 381.205C1170.52 378.823 1193.59 376.441 1216.68 374.157Z" fill="white"/>
</g>
<g opacity="0.5">
<path opacity="0.5" d="M1226.12 363.131C1203.17 366.47 1180.2 369.688 1157.23 372.856L1122.76 377.595L1088.29 382.261C1042.32 388.425 996.329 394.491 950.337 400.385L915.843 404.806L881.324 409.201C858.304 412.099 835.308 415.022 812.287 417.846L777.769 422.143L743.25 426.367C720.23 429.216 697.209 431.967 674.189 434.766L671.756 435.061L670.233 433.17C645.886 403.209 621.612 373.224 597.388 343.189L561.076 298.101L524.862 252.939L506.78 230.321L488.747 207.679L470.738 185.036L452.754 162.369L434.795 139.653L416.884 116.912C404.969 101.736 393.053 86.5588 381.211 71.3083C393.741 85.994 406.222 100.729 418.653 115.464L437.301 137.615L455.899 159.791L474.472 181.991L493.022 204.216L511.546 226.466L530.022 248.74L566.923 293.337L603.727 338.008C628.246 367.821 652.691 397.659 677.112 427.571L673.157 425.974C696.177 423.15 719.198 420.326 742.218 417.551L776.761 413.376L811.304 409.25C834.325 406.5 857.37 403.799 880.391 401.097L914.934 397.094L949.501 393.116C995.591 387.811 1041.68 382.679 1087.8 377.644L1122.39 373.912L1156.98 370.228C1179.95 367.797 1203.02 365.39 1226.12 363.131Z" fill="white"/>
</g>
<g opacity="0.5">
<path opacity="0.5" d="M1235.55 352.104C1212.6 355.444 1189.63 358.661 1166.66 361.829C1143.69 364.997 1120.69 368.141 1097.72 371.21C1051.75 377.374 1005.76 383.44 959.771 389.359C913.779 395.277 867.763 401.097 821.721 406.819L787.203 411.092L752.684 415.316C729.664 418.165 706.643 420.916 683.623 423.691L681.191 423.985L679.667 422.094L643.724 377.522L607.854 332.9L572.082 288.204L554.221 265.832L536.385 243.435L518.573 221.038L500.785 198.592L483.022 176.146L465.284 153.676L447.595 131.181L429.93 108.636C418.186 93.607 406.443 78.553 394.773 63.4253C407.131 77.9636 419.415 92.5756 431.699 107.188L450.076 129.142L468.429 151.122L486.732 173.126L505.011 195.154L523.265 217.207L541.495 239.285L559.7 261.387L577.881 283.489L614.168 327.767L650.382 372.119L686.522 416.52L682.566 414.923C705.587 412.099 728.607 409.275 751.628 406.5L786.171 402.325L820.714 398.199C866.78 392.698 912.845 387.32 958.911 382.04C1005 376.736 1051.09 371.603 1097.21 366.569C1120.25 364.064 1143.32 361.583 1166.39 359.152C1189.39 356.746 1212.46 354.364 1235.55 352.104Z" fill="white"/>
</g>
<g opacity="0.5">
<path opacity="0.5" d="M1244.96 341.053C1222.01 344.393 1199.04 347.61 1176.07 350.803C1153.1 353.971 1130.13 357.114 1107.13 360.208C1084.14 363.303 1061.16 366.348 1038.17 369.368L1003.67 373.887L969.181 378.357C923.189 384.275 877.172 390.095 831.131 395.817L796.612 400.09L762.094 404.314L727.575 408.514L693.032 412.689L690.6 412.983L689.077 411.068L653.625 366.888L618.295 322.659L583.04 278.357L565.424 256.181L547.858 233.98C524.42 204.388 501.104 174.722 477.814 145.007L460.37 122.708L442.976 100.361C431.404 85.4539 419.832 70.5472 408.334 55.5669C420.52 69.9824 432.632 84.447 444.72 98.9362L462.827 120.695L480.909 142.477C504.986 171.554 529.014 200.655 552.944 229.855L570.878 251.76L588.813 273.666L624.585 317.551L660.283 361.51L695.907 405.518L691.927 403.897L726.445 399.673L760.988 395.474L795.531 391.299L830.075 387.173C876.116 381.672 922.206 376.294 968.272 371.014L1002.84 367.06L1037.41 363.18C1060.45 360.601 1083.5 358.047 1106.57 355.542C1129.61 353.037 1152.68 350.557 1175.75 348.126C1198.82 345.719 1221.89 343.312 1244.96 341.053Z" fill="white"/>
</g>
<g opacity="0.5">
<path opacity="0.5" d="M1254.39 330.027C1231.45 333.366 1208.48 336.583 1185.51 339.776C1162.53 342.944 1139.56 346.087 1116.57 349.182C1070.6 355.346 1024.61 361.412 978.615 367.33C932.623 373.249 886.607 379.069 840.566 384.766C794.549 390.488 748.508 396.087 702.442 401.638L699.986 401.932L698.462 400.017L663.575 356.23L628.762 312.394L594.022 268.484C582.475 253.823 570.903 239.187 559.381 224.501C536.311 195.179 513.315 165.758 490.393 136.313C467.471 106.844 444.622 77.3496 421.97 47.6836C445.973 76.2691 469.78 105.026 493.513 133.833C517.246 162.639 540.905 191.495 564.491 220.424C576.308 234.864 588.052 249.378 599.845 263.843L635.1 307.335L670.282 350.901L705.391 394.516L701.41 392.895C747.452 387.247 793.493 381.623 839.534 376.171C885.575 370.67 931.665 365.292 977.731 360.012C1023.82 354.732 1069.91 349.575 1116.03 344.54C1139.07 342.035 1162.14 339.555 1185.21 337.124C1208.26 334.668 1231.33 332.286 1254.39 330.027Z" fill="white"/>
</g>
<g opacity="0.5">
<path opacity="0.5" d="M1263.83 319C1240.88 322.34 1217.91 325.557 1194.94 328.749C1171.97 331.917 1149 335.061 1126 338.155C1080.03 344.344 1034.04 350.385 988.049 356.303L953.555 360.724L919.037 365.095L884.518 369.442L850 373.74C803.983 379.462 757.942 385.061 711.876 390.611L709.42 390.906L707.896 388.99L673.525 345.596L639.228 302.153L605.029 258.636L570.903 215.046C548.178 185.97 525.526 156.844 502.947 127.669C480.369 98.4696 457.864 69.2456 435.556 39.8252C459.216 68.1405 482.654 96.6523 506.068 125.189C529.457 153.725 552.772 182.335 576.013 210.994L610.827 254.02L645.567 297.119L680.208 340.267L714.776 383.489L710.795 381.868C756.837 376.22 802.878 370.596 848.919 365.12L883.462 361.019L918.005 356.966L952.548 352.939L987.116 348.961C1033.21 343.681 1079.3 338.523 1125.41 333.489C1148.46 330.984 1171.53 328.504 1194.6 326.073C1217.66 323.641 1240.76 321.259 1263.83 319Z" fill="white"/>
</g>
<g opacity="0.5">
<path opacity="0.5" d="M1273.26 307.949C1250.32 311.289 1227.34 314.506 1204.37 317.698C1181.4 320.866 1158.43 324.01 1135.43 327.104C1089.47 333.293 1043.48 339.334 997.483 345.252L962.989 349.673L928.471 354.044L893.952 358.391L859.434 362.689C836.413 365.562 813.393 368.361 790.372 371.186L721.311 379.56L718.854 379.855L717.33 377.915L683.5 334.914L649.743 291.863L616.035 248.764L582.426 205.591C560.044 176.785 537.736 147.929 515.526 119C493.316 90.0707 471.131 61.0923 449.167 31.9666C472.482 60.0363 495.577 88.2779 518.622 116.544C541.667 144.835 564.638 173.175 587.511 201.564L621.809 244.196L656.032 286.878L690.158 329.634L724.21 372.463L720.229 370.817L789.291 362.369C812.312 359.594 835.332 356.795 858.353 354.069L892.896 349.968L927.439 345.915L961.982 341.888L996.55 337.91C1042.64 332.63 1088.73 327.472 1134.84 322.438C1157.89 319.933 1180.96 317.453 1204.03 315.022C1227.1 312.59 1250.17 310.208 1273.26 307.949Z" fill="white"/>
</g>
<g opacity="0.5">
<path opacity="0.5" d="M1282.7 296.923C1259.75 300.287 1236.78 303.504 1213.81 306.697C1190.84 309.865 1167.86 313.008 1144.87 316.102C1098.9 322.291 1052.91 328.332 1006.92 334.251L972.423 338.671L937.905 343.043L903.386 347.389L868.868 351.687L834.349 355.96L799.831 360.184L730.77 368.534L728.288 368.828L726.765 366.888L693.426 324.28L660.185 281.623C638.049 253.16 615.962 224.673 593.948 196.112C571.911 167.576 549.971 138.966 528.081 110.307C506.215 81.6474 484.374 52.9391 462.778 24.0835C485.725 51.8831 508.475 79.8793 531.176 107.875C553.877 135.896 576.48 163.966 599.034 192.109C621.588 220.228 644.068 248.421 666.523 276.638L700.133 319L733.669 361.412L729.688 359.766L798.75 351.318L833.293 347.144L867.836 342.993L902.379 338.868L936.922 334.816L971.465 330.788L1006.03 326.81C1052.12 321.53 1098.21 316.373 1144.33 311.338C1167.37 308.833 1190.44 306.353 1213.51 303.946C1236.53 301.564 1259.6 299.182 1282.7 296.923Z" fill="white"/>
</g>
<g opacity="0.5">
<path opacity="0.5" d="M1292.13 285.896C1269.18 289.26 1246.21 292.477 1223.24 295.67C1200.27 298.838 1177.3 301.981 1154.3 305.076C1108.34 311.264 1062.34 317.306 1016.35 323.224L981.858 327.644L947.339 332.016L912.821 336.363L878.302 340.66L843.784 344.933L809.265 349.157L740.204 357.507L737.722 357.802L736.199 355.837L703.4 313.646L670.675 271.382C648.908 243.19 627.14 214.972 605.471 186.682L572.992 144.196L540.635 101.662C519.113 73.273 497.641 44.8349 476.364 16.2249C498.967 43.7789 521.374 71.4803 543.731 99.2554L577.193 140.93L610.532 182.703C632.742 210.552 654.878 238.499 676.965 266.446L710.058 308.416L743.078 350.434L739.074 348.789L808.135 340.341L842.678 336.166L877.221 332.016L911.765 327.915L946.308 323.863L980.851 319.835L1015.42 315.832C1061.51 310.552 1107.6 305.395 1153.71 300.361C1176.76 297.856 1199.83 295.375 1222.9 292.969C1245.97 290.513 1269.04 288.131 1292.13 285.896Z" fill="white"/>
</g>
<g opacity="0.5">
<path opacity="0.5" d="M1301.57 274.845C1255.65 281.525 1209.7 287.836 1163.74 294.025C1117.77 300.213 1071.78 306.254 1025.79 312.173L991.292 316.593L956.774 320.965L922.255 325.311L887.737 329.609L853.218 333.858L818.7 338.082L749.638 346.431L747.156 346.726L745.633 344.761L713.326 302.964L681.141 261.092L665.074 240.144L649.03 219.172L632.987 198.199L616.993 177.202L585.055 135.135L553.214 92.9932C532.036 64.8743 510.907 36.6818 489.975 8.36646C512.234 35.6503 534.296 63.1062 556.285 90.6111L589.231 131.893L622.054 173.273L638.442 193.975L654.804 214.702L671.142 235.454L687.455 256.205L720.033 297.782L752.537 339.408L748.532 337.738L817.594 329.265L852.137 325.09L886.68 320.94L921.223 316.839L955.766 312.787L990.309 308.759L1024.88 304.756C1070.97 299.476 1117.06 294.319 1163.17 289.285C1209.26 284.275 1255.38 279.363 1301.57 274.845Z" fill="white"/>
</g>
<g opacity="0.5">
<g opacity="0.5">
<path opacity="0.5" d="M1311 263.818C1288.03 267.085 1265.06 270.228 1242.09 273.371L1207.62 278.037L1173.15 282.654L1138.65 287.222L1104.16 291.765L1069.67 296.259L1035.17 300.729L966.158 309.57L897.146 318.288L828.109 326.908L759.072 335.429L756.59 335.749L755.043 333.759L739.098 313.106L723.177 292.428L707.257 271.751L691.386 251.048C680.797 237.247 670.282 223.396 659.717 209.57L643.945 188.794L628.196 167.993C607.19 140.243 586.307 112.443 565.523 84.5452L549.946 63.5973L534.444 42.6247C524.125 28.6267 513.831 14.6041 503.635 0.483276C514.691 13.941 525.623 27.4479 536.556 41.0039L552.919 61.3379L569.208 81.721C590.902 108.907 612.497 136.191 633.994 163.548L650.111 184.079L666.204 204.634C676.891 218.362 687.603 232.04 698.265 245.793L714.259 266.397L730.204 287.05L746.149 307.703L762.069 328.381L758.04 326.687L827.126 318.386L896.213 310.184L965.323 302.104L1034.43 294.147L1069 290.218L1103.57 286.313L1138.14 282.458L1172.7 278.627L1207.3 274.845L1241.89 271.112C1264.86 268.607 1287.91 266.176 1311 263.818Z" fill="white"/>
</g>
</g>
</g>
</svg>
