<svg width="390" height="379" viewBox="0 0 390 379" fill="none" xmlns="http://www.w3.org/2000/svg">
<g opacity="0.2">
<g opacity="0.5">
<path opacity="0.5" d="M-365.502 175.509C-343.562 168.019 -321.573 160.602 -299.585 153.21L-266.589 142.159L-233.594 131.157L-200.574 120.204L-167.554 109.276L-134.51 98.3969L-101.466 87.5423L-35.3522 65.9313L30.8104 44.443L96.9974 23.053L163.234 1.73671L166.305 0.754395L168.197 3.38214L182.299 23.1267L196.376 42.8959L210.429 62.6896L224.433 82.5079C233.794 95.7201 243.081 108.957 252.392 122.194L266.322 142.061L280.228 161.953C298.753 188.5 317.154 215.096 335.458 241.791L349.167 261.83L362.827 281.894C371.917 295.278 380.958 308.711 389.901 322.194C380.074 309.325 370.345 296.383 360.665 283.441L346.145 263.991L331.699 244.492C312.462 218.461 293.323 192.38 274.307 166.201L260.057 146.555L245.832 126.909C236.374 113.795 226.89 100.681 217.481 87.5177L203.329 67.7976L189.129 48.0531L175.027 28.3085L160.973 8.51473L165.912 10.1601L99.6263 31.2554L33.2917 52.2525L-33.0674 73.1513L-99.4756 93.9273L-132.692 104.266L-165.908 114.581L-199.149 124.846L-232.39 135.086L-265.656 145.278L-298.921 155.42C-321.082 162.149 -343.267 168.878 -365.502 175.509Z" fill="white"/>
</g>
<g opacity="0.5">
<path opacity="0.5" d="M-369.531 189.703C-325.701 174.502 -281.748 159.694 -237.746 144.983C-193.744 130.273 -149.718 115.735 -105.642 101.295L-72.5734 90.4893L-39.4798 79.7329L-22.9453 74.3547L-6.38626 69.0011L26.7073 58.3183C70.8566 44.1238 115.03 29.9785 159.253 16.005L162.275 15.0472L164.093 17.6012L178.269 37.3458L192.421 57.115L206.547 76.8841L220.65 96.6779L234.752 116.472L248.83 136.29L276.911 175.951C295.608 202.424 314.255 228.898 332.804 255.47C351.353 282.041 369.878 308.638 388.181 335.357C368.551 309.571 349.142 283.638 329.758 257.655C310.373 231.698 291.112 205.642 271.85 179.586L243.031 140.44L228.659 120.843L214.311 101.246L199.963 81.6238L185.64 61.9775L171.317 42.3311L157.042 22.6602L161.882 24.2565C117.758 38.5246 73.5837 52.6455 29.3853 66.7172L-3.78201 77.228L-20.3656 82.4834L-36.9493 87.7142L-70.1165 98.1513L-103.308 108.539C-147.581 122.366 -191.877 136.093 -236.248 149.649C-280.618 163.181 -325.013 176.639 -369.531 189.703Z" fill="white"/>
</g>
<g opacity="0.5">
<path opacity="0.5" d="M-373.585 203.873C-329.755 188.672 -285.802 173.863 -241.8 159.153C-197.798 144.443 -153.772 129.905 -109.696 115.465L-76.6271 104.659L-43.5336 93.9027L-26.9991 88.5245L-10.44 83.1709L22.6535 72.4881C66.8028 58.2936 110.977 44.1483 155.2 30.1748L158.197 29.217L160.04 31.7219L174.363 51.3929L188.662 71.0884L202.936 90.7838L217.186 110.504L231.435 130.224L245.66 149.969L274.037 189.507C292.93 215.882 311.774 242.282 330.544 268.755C349.29 295.229 368.011 321.751 386.511 348.397C366.684 322.685 347.078 296.85 327.498 270.966C307.917 245.081 288.458 219.148 269 193.166L239.887 154.168L225.367 134.644L210.872 115.096L196.376 95.548L181.906 75.9754L167.459 56.4027L153.038 36.8054L157.853 38.3772C113.728 52.6453 69.5545 66.7661 25.356 80.8379L-7.81125 91.3487L-24.3948 96.604L-40.9785 101.835L-74.1458 112.272L-107.338 122.66C-151.61 136.486 -195.906 150.214 -240.277 163.77C-284.672 177.375 -329.067 190.833 -373.585 203.873Z" fill="white"/>
</g>
<g opacity="0.5">
<path opacity="0.5" d="M-377.614 218.068C-333.784 202.866 -289.831 188.058 -245.829 173.348C-201.827 158.638 -157.801 144.099 -113.725 129.659L-80.6562 118.854L-47.5627 108.097L-31.0282 102.719L-14.4691 97.3654L18.6244 86.6827C62.7737 72.4882 106.948 58.3428 151.171 44.3694L154.143 43.4362L155.986 45.9165L170.457 65.5138L184.903 85.1356L199.325 104.757L213.722 124.404L228.119 144.05L242.491 163.721L271.187 203.112C290.277 229.414 309.317 255.715 328.284 282.115C347.226 308.515 366.144 334.939 384.865 361.511C364.866 335.897 345.039 310.16 325.262 284.374C305.484 258.588 285.83 232.729 266.2 206.845L236.791 167.97L222.124 148.52L207.481 129.045L192.839 109.571L178.22 90.0717L163.627 70.5727L149.058 51.0491L153.873 52.5963C109.748 66.8645 65.5745 80.9853 21.3761 95.057L-11.7912 105.568L-28.3748 110.823L-44.9584 116.054L-78.1257 126.491L-111.318 136.879C-155.59 150.705 -199.886 164.433 -244.257 177.989C-288.701 191.57 -333.096 205.028 -377.614 218.068Z" fill="white"/>
</g>
<g opacity="0.5">
<path opacity="0.5" d="M-381.668 232.262C-337.838 217.061 -293.885 202.253 -249.883 187.542C-205.881 172.832 -161.855 158.294 -117.779 143.854L-84.7102 133.048L-51.6167 122.292L-35.0822 116.914L-18.5231 111.56L14.5705 100.877C58.7198 86.6828 102.894 72.5373 147.117 58.5393L150.065 57.6061L151.907 60.0619L166.526 79.61L181.119 99.1827L195.688 118.755L210.233 138.353L224.777 157.95L239.297 177.572L268.288 216.84C287.574 243.043 306.811 269.271 325.974 295.573C345.138 321.874 364.227 348.225 383.145 374.699C362.95 349.183 342.926 323.52 322.977 297.832C303.003 272.144 283.152 246.359 263.325 220.573L233.646 181.845L218.832 162.469L204.042 143.068L189.251 123.667L174.486 104.242L159.745 84.8163L145.028 65.3664L149.819 66.889C105.694 81.1572 61.5206 95.278 17.3221 109.35L-15.8452 119.861L-32.4288 125.116L-49.0124 130.347L-82.2043 140.784L-115.396 151.172C-159.668 164.998 -203.965 178.726 -248.335 192.282C-292.755 205.764 -337.15 219.198 -381.668 232.262Z" fill="white"/>
</g>
<g opacity="0.5">
<path opacity="0.5" d="M-385.697 246.457C-341.867 231.255 -297.914 216.447 -253.912 201.737C-209.91 187.027 -165.884 172.488 -121.808 158.048L-88.7393 147.243L-55.6457 136.486L-22.5521 125.779L10.5168 115.096C54.6661 100.902 98.84 86.7564 143.063 72.7584L145.987 71.8252L147.829 74.2564L162.595 93.7309L177.336 113.23L192.052 132.729L206.744 152.253L221.436 171.776L236.103 191.324L265.389 230.47C284.871 256.599 304.305 282.729 323.665 308.957C343.025 335.185 362.311 361.437 381.425 387.837C361.033 362.42 340.814 336.855 320.668 311.241C300.521 285.627 280.449 259.964 260.426 234.252L230.453 195.646L215.49 176.319L200.553 156.968L185.615 137.616L170.702 118.289L155.814 98.9126L140.95 79.5118L145.716 81.0098C101.592 95.278 57.4178 109.374 13.2194 123.471L-19.9479 133.981L-53.1152 144.468L-86.3069 154.905L-119.499 165.293C-163.771 179.119 -208.068 192.847 -252.438 206.403C-296.784 219.934 -341.179 233.392 -385.697 246.457Z" fill="white"/>
</g>
<g opacity="0.5">
<path opacity="0.5" d="M-389.75 260.627C-345.921 245.425 -301.968 230.617 -257.966 215.907C-213.964 201.196 -169.938 186.658 -125.862 172.218L-92.793 161.413L-59.6994 150.656L-26.6058 139.949L6.48773 129.266L72.7239 108.024C94.8109 100.975 116.898 93.9273 139.009 86.9283L141.933 86.0197L143.776 88.4263L158.689 107.827L173.577 127.252L188.441 146.678L203.28 166.128L218.119 185.578L232.934 205.052L262.514 244.05C282.194 270.082 301.848 296.138 321.38 322.267C340.937 348.397 360.419 374.576 379.73 400.877C359.142 375.558 338.75 350.067 318.383 324.551C298.04 299.035 277.771 273.446 257.552 247.832L227.283 209.374L212.174 190.121L197.089 170.843L182.004 151.565L166.944 132.262L151.908 112.96L136.896 93.6326L141.663 95.1061C119.6 102.252 97.5134 109.325 75.4265 116.398L9.14108 137.542L-24.0261 148.053L-57.1934 158.539L-90.3853 168.976L-123.577 179.364C-167.849 193.191 -212.146 206.919 -256.516 220.475C-300.838 234.129 -345.233 247.587 -389.75 260.627Z" fill="white"/>
</g>
<g opacity="0.5">
<path opacity="0.5" d="M-393.78 274.821C-349.95 259.62 -305.997 244.811 -261.995 230.101C-217.993 215.391 -173.967 200.853 -129.891 186.413L-96.8222 175.607L-63.7286 164.851L-30.6351 154.143L2.4585 143.461L68.6948 122.218C90.7817 115.17 112.869 108.122 134.98 101.123L137.879 100.214L139.722 102.596L154.782 121.948L169.818 141.324L184.829 160.7L199.816 180.101L214.803 199.502L229.765 218.927L259.64 257.803C279.516 283.736 299.367 309.718 319.095 335.774C338.848 361.83 358.528 387.91 378.035 414.138C357.25 388.893 336.662 363.524 316.123 338.107C295.583 312.69 275.118 287.198 254.702 261.658L224.139 223.323L208.882 204.143L193.649 184.939L178.417 165.735L163.234 146.506L148.051 127.277L132.892 108.024L137.634 109.473C115.571 116.619 93.4842 123.692 71.3973 130.764L5.11188 151.909L-28.0554 162.419L-61.2227 172.906L-94.4145 183.343L-127.606 193.731C-171.878 207.557 -216.175 221.285 -260.546 234.841C-304.867 248.323 -349.262 261.756 -393.78 274.821Z" fill="white"/>
</g>
<g opacity="0.5">
<path opacity="0.5" d="M-397.833 289.016C-354.004 273.814 -310.051 259.006 -266.049 244.296C-222.047 229.586 -178.021 215.047 -133.945 200.607L-100.876 189.802L-67.7824 179.045L-34.6888 168.338L-1.59528 157.655L64.641 136.413C86.7279 129.365 108.815 122.316 130.926 115.317L133.801 114.409L135.644 116.766L150.851 136.044L166.035 155.347L181.193 174.649L196.327 193.977L211.461 213.304L226.571 232.655L256.741 271.408C276.813 297.267 296.861 323.151 316.786 349.109C336.735 375.067 356.636 401.074 376.34 427.228C355.358 402.081 334.573 376.786 313.838 351.467C293.102 326.148 272.465 300.73 251.852 275.288L220.994 237.1L205.59 217.994L190.21 198.864L174.83 179.708L159.499 160.553L144.169 141.373L128.863 122.169L133.58 123.618C111.517 130.764 89.4305 137.837 67.3435 144.91L1.05811 166.054L-32.1091 176.565L-65.2764 187.051L-98.4682 197.488L-131.66 207.876C-175.932 221.702 -220.229 235.43 -264.599 248.986C-308.921 262.493 -353.316 275.951 -397.833 289.016Z" fill="white"/>
</g>
<g opacity="0.5">
<path opacity="0.5" d="M-401.863 303.186C-358.033 287.984 -314.08 273.176 -270.078 258.466C-226.076 243.756 -182.05 229.217 -137.974 214.777L-104.905 203.972L-71.8363 193.215L-38.7428 182.508L-5.64923 171.825L60.587 150.583C82.674 143.534 104.761 136.486 126.872 129.487L129.722 128.579L131.565 130.887L146.92 150.091L162.251 169.32L177.557 188.549L192.838 207.803L208.12 227.056L223.377 246.334L253.842 284.939C274.11 310.701 294.355 336.511 314.501 362.395C334.647 388.279 354.744 414.188 374.644 440.244C353.466 415.195 332.485 389.998 311.553 364.753C290.62 339.507 269.786 314.188 248.977 288.844L217.824 250.779L202.273 231.722L186.745 212.641L171.218 193.559L155.74 174.453L140.262 155.347L124.809 136.216L129.526 137.641C107.463 144.787 85.3765 151.86 63.2896 158.932L-2.99585 180.077L-36.1631 190.587L-69.3304 201.074L-102.522 211.511L-135.714 221.899C-179.986 235.725 -224.283 249.453 -268.653 263.009C-312.95 276.688 -357.345 290.145 -401.863 303.186Z" fill="white"/>
</g>
<g opacity="0.5">
<path opacity="0.5" d="M-405.917 317.38C-362.087 302.179 -318.134 287.37 -274.132 272.66C-230.13 257.95 -186.104 243.412 -142.028 228.972L-108.959 218.166L-75.89 207.41L-42.7965 196.702L-9.70297 186.02L56.5333 164.777C78.6202 157.729 100.707 150.681 122.819 143.682L125.644 142.773L127.511 145.057L143.014 164.212L158.492 183.367L173.945 202.547L189.374 221.752L204.803 240.956L220.208 260.185L250.967 298.667C271.432 324.355 291.873 350.067 312.216 375.853C332.559 401.639 352.852 427.474 372.949 453.456C351.574 428.505 330.397 403.382 309.292 378.235C288.164 353.088 267.133 327.867 246.127 302.621L214.68 264.703L198.981 245.72L183.306 226.712L167.631 207.704L152.006 188.672L136.38 169.64L120.779 150.583L125.472 151.982C103.41 159.129 81.3228 166.177 59.2358 173.274L-7.04956 194.418L-40.2168 204.929L-73.3841 215.416L-106.576 225.853L-139.768 236.241C-184.04 250.067 -228.337 263.77 -272.707 277.351C-317.004 290.882 -361.399 304.315 -405.917 317.38Z" fill="white"/>
</g>
<g opacity="0.5">
<path opacity="0.5" d="M-409.946 331.575C-366.116 316.373 -322.163 301.565 -278.161 286.855C-234.159 272.145 -190.133 257.606 -146.057 243.166L-112.988 232.361L-79.9193 221.604L-46.8257 210.897L-13.7321 200.214L52.5041 178.972C74.591 171.924 96.6779 164.875 118.789 157.876L121.615 156.992L123.482 159.252L139.132 178.333L154.758 197.439L185.959 235.676L201.536 254.807L217.087 273.962L248.142 312.321C268.804 337.911 289.441 363.549 309.98 389.261C330.519 414.974 351.009 440.71 371.303 466.594C349.756 441.742 328.382 416.717 307.057 391.668C285.731 366.619 264.504 341.472 243.302 316.324L211.56 278.53L195.713 259.62L179.891 240.686L148.296 202.768L132.523 183.81L116.775 164.826L121.443 166.202C99.3805 173.348 77.2935 180.396 55.2066 187.493L-11.0787 208.638L-44.246 219.148L-77.4133 229.635L-110.605 240.072L-143.797 250.46C-188.069 264.286 -232.366 277.989 -276.736 291.57C-321.033 305.052 -365.428 318.51 -409.946 331.575Z" fill="white"/>
</g>
<g opacity="0.5">
<path opacity="0.5" d="M-413.975 345.769C-370.145 330.568 -326.192 315.76 -282.191 301.049C-238.189 286.339 -194.162 271.801 -150.086 257.361L-117.018 246.555L-83.9485 235.799L-50.8549 225.092L-17.7614 214.409L48.4749 193.166C70.5618 186.118 92.6488 179.045 114.76 172.071L117.561 171.187L119.428 173.422L150.999 211.462L182.495 249.551L198.219 268.608L213.918 287.69L245.267 325.902C266.126 351.418 286.96 376.958 307.695 402.572C328.431 428.186 349.118 453.849 369.632 479.659C347.889 454.88 326.318 429.954 304.796 405.003C283.275 380.028 261.851 355.003 240.477 329.93L208.439 292.282L192.445 273.446L176.476 254.586L144.586 216.815L112.77 178.996L117.438 180.347C95.3758 187.493 73.2889 194.541 51.202 201.639L-15.0834 222.783L-48.2507 233.294L-81.418 243.78L-114.61 254.217L-147.802 264.605C-192.074 278.431 -236.371 292.135 -280.741 305.715C-325.087 319.247 -369.482 332.705 -413.975 345.769Z" fill="white"/>
</g>
<g opacity="0.5">
<path opacity="0.5" d="M-418.029 359.939C-374.199 344.738 -330.246 329.929 -286.244 315.219C-242.242 300.509 -198.216 285.971 -154.14 271.531L-121.071 260.725L-88.0022 249.969L-54.9087 239.261L-21.8151 228.579L44.4211 207.336C66.5081 200.288 88.5951 193.215 110.707 186.241L113.483 185.357L115.35 187.567L147.215 225.484L179.007 263.451L194.878 282.459L210.724 301.491L242.368 339.581C263.423 364.998 284.454 390.465 305.386 415.98C326.318 441.521 347.201 467.086 367.913 492.822C345.973 468.142 324.205 443.313 302.487 418.436C280.769 393.559 259.148 368.608 237.577 343.633L205.246 306.108L189.104 287.321L172.987 268.51L140.803 230.863L108.741 193.191L113.384 194.517C91.3221 201.663 69.2352 208.711 47.1483 215.809L-19.1371 236.953L-52.3044 247.464L-85.4717 257.95L-118.664 268.387L-151.855 278.775C-196.128 292.601 -240.424 306.305 -284.795 319.885C-329.116 333.441 -373.511 346.899 -418.029 359.939Z" fill="white"/>
</g>
<g opacity="0.5">
<path opacity="0.5" d="M-422.058 374.134C-378.228 358.932 -334.275 344.124 -290.273 329.414C-246.271 314.703 -202.245 300.165 -158.169 285.725L-125.1 274.92L-92.0313 264.163C-69.9935 256.992 -47.9066 249.895 -25.8442 242.749L40.392 221.506C62.4789 214.458 84.5659 207.385 106.677 200.411L109.454 199.527L111.321 201.712L143.481 239.482L175.567 277.326L191.586 296.26L207.58 315.219L239.518 353.186C260.77 378.529 281.997 403.898 303.126 429.34C324.255 454.782 345.334 480.273 366.242 505.912C344.106 481.329 322.142 456.575 300.251 431.796C278.336 407.017 256.52 382.164 234.752 357.262L202.125 319.885L185.837 301.172L169.572 282.434L137.093 244.934L104.687 207.361L109.306 208.662C87.2438 215.809 65.1569 222.857 43.0699 229.954L-23.2155 251.098C-45.327 258.097 -67.4139 265.121 -89.55 272.071L-122.742 282.508L-155.934 292.896C-200.206 306.722 -244.502 320.425 -288.873 334.006C-333.17 347.611 -377.54 361.069 -422.058 374.134Z" fill="white"/>
</g>
<g opacity="0.5">
<path opacity="0.5" d="M-426.112 388.328C-382.282 373.127 -338.329 358.318 -294.327 343.608C-250.325 328.898 -206.299 314.36 -162.223 299.92L-129.154 289.114L-96.0851 278.358C-74.0227 271.187 -51.9604 264.09 -29.898 256.943L36.3383 235.701C58.4252 228.653 80.5121 221.58 102.624 214.605L105.375 213.746L107.242 215.907L139.697 253.554L172.078 291.251L188.244 310.111L204.386 328.996L236.619 366.815C258.068 392.061 279.491 417.356 300.817 442.699C322.142 468.068 343.418 493.461 364.522 519.026C342.19 494.541 320.053 469.885 297.942 445.18C275.83 420.499 253.842 395.72 231.853 370.917L198.956 333.662L182.52 315.023L166.108 296.359L133.334 258.982L100.634 221.555L105.253 222.857C83.1901 230.003 61.1031 237.051 39.0162 244.149L-27.2692 265.293C-49.3807 272.292 -71.4677 279.316 -93.6037 286.265L-126.796 296.703L-159.987 307.091C-204.26 320.917 -248.556 334.62 -292.927 348.201C-337.199 361.806 -381.594 375.263 -426.112 388.328Z" fill="white"/>
</g>
<g opacity="0.5">
<path opacity="0.5" d="M-430.141 402.523C-386.311 387.321 -342.358 372.513 -298.356 357.803C-254.355 343.092 -210.328 328.554 -166.252 314.114L-133.183 303.309L-100.115 292.552C-78.0521 285.381 -55.9897 278.284 -33.9274 271.138L32.3089 249.895C54.3958 242.847 76.4828 235.774 98.5943 228.8L101.321 227.94L103.189 230.077L135.938 267.601L168.614 305.175L184.927 323.986L201.216 342.822L217.505 361.658L233.769 380.519C255.414 405.691 277.034 430.887 298.581 456.157C320.102 481.427 341.6 506.747 362.876 532.213C340.347 507.803 318.014 483.245 295.706 458.662C273.398 434.055 251.213 409.374 229.028 384.669L212.419 366.128L195.836 347.562L179.252 328.996L162.693 310.406L129.673 273.127L96.6779 235.823L101.272 237.1C79.2098 244.247 57.1229 251.295 35.036 258.392L-31.2494 279.536C-53.3609 286.536 -75.4479 293.559 -97.584 300.509L-130.776 310.946L-163.968 321.334C-208.24 335.16 -252.536 348.864 -296.907 362.444C-341.253 376 -385.623 389.458 -430.141 402.523Z" fill="white"/>
</g>
<g opacity="0.5">
<path opacity="0.5" d="M-434.195 416.693C-390.365 401.491 -346.412 386.683 -302.41 371.973C-258.408 357.262 -214.382 342.724 -170.306 328.284L-137.237 317.479L-104.168 306.722C-82.1057 299.551 -60.0434 292.454 -37.981 285.308L28.2552 264.065C50.3422 257.017 72.4292 249.944 94.5407 242.97L97.2432 242.11L99.1104 244.222L132.155 281.599L165.126 319.05L181.586 337.788L198.023 356.55L214.459 375.312L230.87 394.099C252.736 419.173 274.553 444.271 296.271 469.468C317.99 494.664 339.684 519.885 361.181 545.278C338.455 520.966 315.926 496.506 293.446 471.997C270.966 447.488 248.56 422.906 226.202 398.274L209.447 379.807L192.716 361.314L175.985 342.798L159.278 324.256L125.939 287.149L92.6489 249.993L97.2186 251.246C75.1562 258.392 53.0693 265.44 30.9824 272.537L-35.303 293.682C-57.4146 300.681 -79.5015 307.704 -101.638 314.654L-134.829 325.091L-168.021 335.479C-212.293 349.306 -256.59 363.009 -300.961 376.589C-345.282 390.17 -389.677 403.628 -434.195 416.693Z" fill="white"/>
</g>
<g opacity="0.5">
<path opacity="0.5" d="M-438.224 430.887C-394.394 415.686 -350.441 400.877 -306.439 386.167C-262.438 371.457 -218.411 356.919 -174.335 342.479L-141.266 331.673L-108.197 320.917C-86.1351 313.746 -64.0728 306.648 -42.0104 299.502L24.2259 278.259L57.3686 267.7L90.5113 257.164L93.2138 256.305L95.0809 258.392L128.42 295.647L161.686 332.95L178.294 351.614L194.878 370.303L211.461 389.016L228.02 407.754C250.083 432.729 272.096 457.754 294.011 482.876C315.926 507.975 337.816 533.122 359.51 558.441C336.588 534.227 313.862 509.841 291.185 485.43C268.509 461.02 245.906 436.511 223.352 411.978L206.449 393.559L189.571 375.116L172.692 356.673L155.838 338.205L122.204 301.246L88.6194 264.212L93.1892 265.44L60.0711 276.098L26.9529 286.732L-39.3324 307.876C-61.4439 314.875 -83.5309 321.899 -105.667 328.849L-138.859 339.286L-172.051 349.674C-216.323 363.5 -260.619 377.204 -304.99 390.784C-349.336 404.365 -393.706 417.822 -438.224 430.887Z" fill="white"/>
</g>
<g opacity="0.5">
<path opacity="0.5" d="M-442.278 445.081C-398.448 429.88 -354.495 415.072 -310.493 400.361C-266.491 385.651 -222.465 371.113 -178.389 356.673L-145.32 345.867L-112.251 335.111C-90.1888 327.94 -68.1264 320.843 -46.0641 313.696L20.1722 292.454L53.3149 281.894L86.4576 271.359L89.1355 270.499L91.0027 272.562L124.637 309.669L158.197 346.85L174.953 365.465L191.684 384.104L208.415 402.744L225.121 421.408C247.38 446.309 269.59 471.236 291.701 496.26C313.813 521.285 335.9 546.334 357.79 571.555C334.696 547.439 311.749 523.151 288.876 498.814C266.003 474.477 243.204 450.091 220.453 425.632L203.403 407.287L186.377 388.917L169.351 370.548L152.35 352.154L118.421 315.317L84.5413 278.431L89.0864 279.635L55.9683 290.293L22.8501 300.926L-43.4352 322.071C-65.5468 329.07 -87.6337 336.093 -109.77 343.043L-142.962 353.48L-176.153 363.868C-220.426 377.694 -264.722 391.398 -309.093 404.978C-353.365 418.559 -397.76 432.017 -442.278 445.081Z" fill="white"/>
</g>
<g opacity="0.5">
<path opacity="0.5" d="M-446.307 459.251C-402.477 444.05 -358.524 429.242 -314.522 414.556C-270.52 399.846 -226.494 385.307 -182.418 370.867L-149.349 360.062L-116.28 349.305C-94.2179 342.135 -72.1555 335.037 -50.0931 327.891L16.1431 306.648L49.2858 296.088L82.4285 285.553L85.0819 284.718L86.9491 286.756L120.878 323.741L154.733 360.799L171.636 379.34L188.515 397.906L205.393 416.471L222.247 435.062C244.702 459.865 267.109 484.718 289.417 509.644C311.749 534.571 334.008 559.546 356.095 584.694C332.805 560.676 309.686 536.462 286.616 512.248C263.546 488.009 240.55 463.696 217.604 439.335L200.406 421.064L183.232 402.768L166.059 384.448L148.935 366.103L114.711 329.389L80.5859 292.65L85.1064 293.854L51.9884 304.512L18.8702 315.145L-47.4152 336.29C-69.5267 343.289 -91.6136 350.312 -113.75 357.262L-146.942 367.699L-180.133 378.087C-224.406 391.914 -268.702 405.617 -313.073 419.197C-357.394 432.753 -401.789 446.187 -446.307 459.251Z" fill="white"/>
</g>
<g opacity="0.5">
<path opacity="0.5" d="M-450.361 473.446C-406.531 458.245 -362.578 443.461 -318.576 428.751C-274.574 414.065 -230.548 399.502 -186.472 385.062L-153.403 374.257L-120.334 363.5C-98.2718 356.329 -76.2094 349.232 -54.147 342.086L12.0892 320.843L45.2319 310.283L78.3746 299.748L81.0034 298.913L82.8706 300.926L117.094 337.788L151.244 374.699L168.295 393.166L185.321 411.658L202.346 430.175L219.348 448.716C242 473.446 264.603 498.201 287.107 523.053C309.636 547.906 332.092 572.783 354.4 597.832C330.913 573.888 307.597 549.797 284.331 525.656C261.065 501.516 237.872 477.277 214.753 453.014L197.408 434.816L180.088 416.594L162.767 398.348L145.495 380.077L111.001 343.485L76.5319 306.845L81.0526 308.024L47.9344 318.682L14.8163 329.315L-51.4691 350.46C-73.5806 357.459 -95.6675 364.482 -117.804 371.432L-150.995 381.869L-184.187 392.257C-228.459 406.084 -272.756 419.787 -317.127 433.367C-361.448 446.923 -405.843 460.381 -450.361 473.446Z" fill="white"/>
</g>
<g opacity="0.5">
<path opacity="0.5" d="M-454.39 487.641C-410.56 472.439 -366.607 457.655 -322.605 442.945C-278.603 428.259 -234.577 413.697 -190.501 399.257L-157.432 388.451L-124.363 377.695C-102.301 370.524 -80.2386 363.426 -58.1762 356.28L8.06003 335.013L41.2027 324.453L74.3455 313.918L76.9742 313.083L78.8415 315.072C90.3395 327.302 101.887 339.532 113.36 351.786L147.805 388.574L182.176 425.411L199.349 443.854L216.498 462.321C239.346 486.953 262.146 511.634 284.872 536.388C307.597 561.143 330.249 585.946 352.754 610.922C329.07 587.076 305.558 563.058 282.095 539.016C258.633 514.974 235.268 490.833 211.928 466.644L194.436 448.495L176.967 430.322L142.08 393.952L107.267 357.508C95.6708 345.376 84.0991 333.171 72.5273 321.015L77.0234 322.169L43.9052 332.827L10.7871 343.461L-55.4983 364.605C-77.6098 371.604 -99.6967 378.628 -121.833 385.578L-155.025 396.015L-188.216 406.403C-232.489 420.229 -276.785 433.932 -321.156 447.513C-365.477 461.118 -409.872 474.576 -454.39 487.641Z" fill="white"/>
</g>
<g opacity="0.5">
<path opacity="0.5" d="M-458.444 501.835C-414.614 486.634 -370.661 471.85 -326.659 457.14C-282.657 442.454 -238.631 427.891 -194.555 413.451L-161.486 402.645L-128.417 391.889C-106.355 384.718 -84.2924 377.596 -62.2301 370.475L4.0062 349.207L37.1489 338.647L53.7079 333.367L70.2916 328.112L72.8958 327.277L74.763 329.242C86.3593 341.447 98.0046 353.603 109.576 365.833L144.316 402.474L179.006 439.188L196.327 457.557L213.623 475.951C236.668 500.509 259.664 525.091 282.587 549.772C305.509 574.453 328.382 599.158 351.059 624.035C327.178 600.288 303.47 576.368 279.81 552.4C256.151 528.431 232.59 504.389 209.054 480.298L191.414 462.223L173.798 444.124L138.616 407.876L103.508 371.58C91.8134 359.473 80.1434 347.341 68.4735 335.209L72.9449 336.339L56.3859 341.693L39.8268 346.997L6.70871 357.631L-59.5767 378.775C-81.6882 385.774 -103.775 392.798 -125.911 399.748L-159.103 410.185L-192.295 420.573C-236.567 434.399 -280.864 448.102 -325.234 461.683C-369.531 475.312 -413.926 488.746 -458.444 501.835Z" fill="white"/>
</g>
<g opacity="0.5">
<path opacity="0.5" d="M-462.473 516.005C-418.643 500.804 -374.69 486.02 -330.688 471.309C-286.686 456.624 -242.66 442.061 -198.584 427.621L-165.515 416.815L-132.446 406.059C-110.384 398.888 -88.3217 391.766 -66.2593 384.644L-0.0230713 363.377L33.1196 352.817L49.6786 347.537L66.2623 342.282L68.8419 341.472L70.7092 343.412C82.4037 355.568 94.1473 367.699 105.817 379.856L140.852 416.373L175.837 452.965L193.305 471.285L210.749 489.63C233.99 514.089 257.183 538.598 280.302 563.181C303.42 587.763 326.49 612.395 349.363 637.198C325.286 613.549 301.406 589.703 277.55 565.833C253.694 541.963 229.937 518.019 206.203 494.001L188.416 476L170.653 457.975L135.176 421.874L99.8226 385.725C88.0298 373.667 76.2616 361.56 64.4933 349.502L68.9648 350.632L52.4057 355.985L35.8467 361.29L2.72858 371.923L-63.5568 393.043C-85.6683 400.042 -107.755 407.066 -129.891 414.016L-163.083 424.453L-196.275 434.841C-240.547 448.667 -284.844 462.37 -329.214 475.951C-373.56 489.482 -417.955 502.94 -462.473 516.005Z" fill="white"/>
</g>
<g opacity="0.5">
<path opacity="0.5" d="M-466.502 530.199C-422.672 514.998 -378.719 500.214 -334.717 485.504C-290.716 470.818 -246.689 456.255 -202.613 441.815L-169.544 431.01L-136.476 420.253C-114.413 413.083 -92.3508 405.961 -70.2884 398.839L-4.05215 377.572L29.0906 367.012L45.6497 361.732L62.2333 356.476L64.813 355.666L66.6802 357.581C90.3149 381.771 113.876 406.01 137.412 430.298L172.693 466.742L190.308 484.988L207.899 503.259C231.337 527.645 254.726 552.056 278.042 576.565C301.357 601.074 324.623 625.607 347.717 650.337C323.444 626.786 299.367 603.038 275.315 579.266C251.262 555.494 227.308 531.624 203.378 507.704L185.444 489.777L167.533 471.825L131.786 435.823C107.955 411.83 84.1974 387.763 60.4644 363.696L64.9112 364.802L48.3522 370.155L31.7931 375.46L-1.32504 386.093L-67.6104 407.213C-89.722 414.212 -111.809 421.236 -133.945 428.186L-167.137 438.623L-200.329 449.011C-244.601 462.837 -288.897 476.54 -333.268 490.121C-377.614 503.677 -422.009 517.135 -466.502 530.199Z" fill="white"/>
</g>
<g opacity="0.5">
<path opacity="0.5" d="M-470.556 544.394C-426.726 529.217 -382.773 514.409 -338.771 499.698C-294.769 485.013 -250.743 470.45 -206.667 456.01C-184.63 448.814 -162.592 441.594 -140.529 434.448C-118.467 427.277 -96.4046 420.155 -74.3423 413.033L-8.10602 391.766L25.0367 381.206L41.5958 375.926L58.1794 370.671L60.7345 369.86L62.6017 371.751C86.433 395.867 110.191 420.008 133.924 444.197L169.499 480.519L187.261 498.691L205 516.914L222.714 535.135L240.403 553.382L275.732 589.949C299.244 614.359 322.707 638.819 345.997 663.451C321.527 639.973 297.254 616.324 273.005 592.65L236.693 557.066L218.586 539.237L200.504 521.383L182.422 503.505L164.364 485.602L128.297 449.772C104.294 425.852 80.3155 401.909 56.3859 377.891L60.8082 378.971L44.2491 384.3L27.69 389.605L-5.42804 400.239L-71.7134 421.358C-93.825 428.357 -115.912 435.381 -138.048 442.331C-160.159 449.305 -182.296 456.231 -204.432 463.156C-248.704 476.982 -293.001 490.686 -337.371 504.266C-381.643 517.871 -426.038 531.329 -470.556 544.394Z" fill="white"/>
</g>
</g>
</svg>
