<svg width="1321" height="391" viewBox="0 0 1321 391" fill="none" xmlns="http://www.w3.org/2000/svg">
<g opacity="0.2">
<g opacity="0.5">
<path opacity="0.5" d="M5.44574 7.52679C32.3972 -4.50662 59.3733 -16.4418 86.3739 -28.3278C113.374 -40.2139 140.4 -52.0508 167.449 -63.8632C194.475 -75.6756 221.549 -87.4389 248.599 -99.1776L289.21 -116.786L329.846 -134.32C384.019 -157.675 438.242 -180.98 492.513 -204.163L533.198 -221.55L573.908 -238.888C601.056 -250.455 628.204 -261.948 655.376 -273.49L657.047 -274.202L658.742 -273.515L726.109 -246.452L793.426 -219.291L860.719 -192.031L927.962 -164.674L961.572 -150.946L995.156 -137.193L1028.74 -123.416L1062.3 -109.59L1095.86 -95.7394L1129.4 -81.8396C1151.75 -72.5567 1174.09 -63.2247 1196.4 -53.8436C1173.77 -62.4143 1151.14 -71.0587 1128.56 -79.7276L1094.68 -92.7679L1060.83 -105.857L1026.97 -118.996L993.142 -132.159L959.311 -145.347L925.505 -158.583L857.918 -185.106L790.379 -211.751L722.89 -238.495L655.426 -265.337L658.791 -265.361C631.643 -253.819 604.52 -242.228 577.347 -230.735L536.613 -213.446L495.854 -196.206C441.509 -173.22 387.115 -150.356 332.696 -127.567L291.863 -110.499L251.006 -93.4801C223.76 -82.1589 196.514 -70.8377 169.243 -59.5656C141.972 -48.2934 114.701 -37.0705 87.4057 -25.872C60.1103 -14.6736 32.8149 -3.52429 5.44574 7.52679Z" fill="white"/>
</g>
<g opacity="0.5">
<path opacity="0.5" d="M5.9126 17.7426C32.6675 5.88104 59.4715 -5.8822 86.2756 -17.6209C113.104 -29.3351 139.933 -41.0246 166.786 -52.6651C193.639 -64.3056 220.492 -75.9215 247.37 -87.4883L287.687 -104.826L328.028 -122.115C381.833 -145.15 435.662 -168.112 489.565 -190.951L529.98 -208.092L570.419 -225.185C597.371 -236.604 624.347 -247.925 651.323 -259.271L653.018 -259.983L654.713 -259.296L721.023 -231.938L787.309 -204.507L853.545 -176.977L919.732 -149.325C963.857 -130.882 1007.93 -112.316 1051.98 -93.6769L1085 -79.6788L1118 -65.6317C1139.99 -56.2506 1161.98 -46.8448 1183.94 -37.3409C1161.66 -46.0099 1139.4 -54.7525 1117.14 -63.5197L1083.77 -76.7074L1050.44 -89.9441C1005.99 -107.626 961.596 -125.381 917.226 -143.235L850.695 -170.052L784.213 -196.992L717.756 -224.031L651.347 -251.143L654.738 -251.167C627.786 -239.772 600.835 -228.353 573.859 -217.032L533.395 -199.988L492.906 -182.994C438.93 -160.352 384.928 -137.808 330.878 -115.362L290.34 -98.5394L249.778 -81.7663C222.728 -70.5924 195.654 -59.4677 168.58 -48.3674C141.505 -37.2673 114.406 -26.1916 87.3075 -15.1651C60.2086 -4.13858 33.0852 6.86337 5.9126 17.7426Z" fill="white"/>
</g>
<g opacity="0.5">
<path opacity="0.5" d="M6.3548 27.9341C32.9132 16.2199 59.5453 4.62857 86.1774 -6.93823C112.809 -18.4805 139.466 -29.9981 166.123 -41.4913C192.779 -52.9598 219.461 -64.4039 246.166 -75.8233L286.213 -92.9156L326.284 -109.959C379.72 -132.65 433.181 -155.293 486.69 -177.788L526.835 -194.659L566.98 -211.506L607.149 -228.328L647.318 -245.101L649.038 -245.813L650.733 -245.101L716.011 -217.474L781.24 -189.748L846.42 -161.923L911.551 -134.001C954.963 -115.362 998.351 -96.6239 1041.69 -77.7879L1074.19 -63.6425L1106.67 -49.448C1128.32 -39.9687 1149.96 -30.4647 1171.56 -20.8871C1149.62 -29.6543 1127.7 -38.4952 1105.81 -47.3606L1072.96 -60.6956L1040.14 -74.0797C996.385 -91.9579 952.678 -109.885 909.02 -127.935L843.521 -155.047L778.071 -182.257L712.67 -209.566L647.294 -236.973H650.709L610.564 -220.126L570.395 -203.328L530.226 -186.555L490.032 -169.807C436.448 -147.483 382.791 -125.283 329.109 -103.156L288.842 -86.5797L248.55 -70.0522C221.696 -59.0502 194.819 -48.0728 167.916 -37.1445C141.038 -26.1917 114.112 -15.3125 87.2092 -4.43329C60.2823 6.42133 33.3554 17.2268 6.3548 27.9341Z" fill="white"/>
</g>
<g opacity="0.5">
<path opacity="0.5" d="M6.82166 38.1503C33.2081 26.6081 59.619 15.1886 86.0791 3.79375C112.515 -7.60114 138.975 -18.9469 165.459 -30.2436C191.944 -41.5648 218.429 -52.8369 244.938 -64.0844L284.69 -80.9312L324.466 -97.7288C377.533 -120.101 430.601 -142.4 483.742 -164.576L523.592 -181.201L563.467 -197.802L603.341 -214.355L643.24 -230.882L644.984 -231.594L646.704 -230.857L710.926 -202.935L775.098 -174.939L839.222 -146.845L903.32 -118.628C946.045 -99.7917 988.695 -80.8575 1031.35 -61.8497L1063.31 -47.5569L1095.25 -33.2397C1116.55 -23.662 1137.83 -14.0844 1159.05 -4.40862C1137.46 -13.274 1115.89 -22.2131 1094.34 -31.1768L1062.03 -44.6591L1029.72 -58.1905C986.681 -76.2406 943.662 -94.3889 900.692 -112.636L836.249 -140.018L771.855 -167.523L707.511 -195.126L643.191 -222.802L646.63 -222.778L606.756 -206.177L566.882 -189.625L526.983 -173.097L487.059 -156.594C433.844 -134.59 380.58 -112.734 327.267 -90.9509L287.294 -74.6198L247.297 -58.3379C220.615 -47.5078 193.934 -36.7023 167.228 -25.9214C140.523 -15.1404 113.817 -4.40862 87.0864 6.27409C60.3806 16.9568 33.6257 27.615 6.82166 38.1503Z" fill="white"/>
</g>
<g opacity="0.5">
<path opacity="0.5" d="M7.28839 48.3663C33.4783 36.996 59.7173 25.7239 85.9808 14.5009C112.244 3.27789 138.508 -7.92053 164.796 -19.0453C217.372 -41.3194 270.022 -63.4952 322.697 -85.5482C375.371 -107.577 428.095 -129.556 480.868 -151.388L520.448 -167.768L560.027 -184.099L599.631 -200.406L639.235 -216.688L640.98 -217.4L642.7 -216.639L705.865 -188.446L768.981 -160.155L832.072 -131.766L895.115 -103.279C937.127 -84.2712 979.089 -65.1406 1021.03 -45.9362L1052.48 -31.5207L1083.9 -17.0561C1104.83 -7.38025 1125.76 2.29558 1146.65 12.0696C1125.39 3.10599 1104.17 -5.93134 1082.96 -14.9932L1051.17 -28.6229L1019.41 -42.2771C977.05 -60.5237 934.744 -78.8439 892.461 -97.2869L829.075 -124.964L765.713 -152.739L702.401 -180.661L639.137 -208.633L642.601 -208.584L603.022 -192.253L563.417 -175.946L523.813 -159.664L484.185 -143.431C431.338 -121.771 378.442 -100.234 325.522 -78.7702C272.602 -57.3066 219.633 -35.9657 166.59 -14.7476C140.08 -4.1386 113.547 6.42131 87.0127 16.9567C60.4543 27.5166 33.8959 38.0028 7.28839 48.3663Z" fill="white"/>
</g>
<g opacity="0.5">
<path opacity="0.5" d="M7.75519 58.5824C33.7731 47.3594 59.8155 36.2592 85.8825 25.2081C111.95 14.157 138.041 3.13052 164.157 -7.84688C216.365 -29.8017 268.622 -51.6337 320.928 -73.3429C373.234 -95.0522 425.564 -116.688 477.969 -138.201C530.348 -159.738 582.777 -181.152 635.231 -202.518L636.999 -203.23L638.719 -202.444L700.828 -173.957L762.888 -145.371L824.923 -116.688L886.909 -87.9058C928.208 -68.7015 969.483 -49.3989 1010.71 -29.9981C1051.93 -10.5974 1093.14 8.85252 1134.21 28.548C1092.4 10.4242 1050.73 -7.94511 1009.06 -26.3636C967.394 -44.8066 925.776 -63.3233 884.206 -81.9382L821.852 -109.91L759.546 -137.979L697.29 -166.147L635.083 -194.389L638.596 -194.315C586.192 -172.852 533.763 -151.413 481.285 -130.121C428.832 -108.78 376.305 -87.5866 323.753 -66.4667C271.201 -45.3469 218.601 -24.3253 165.951 -3.451C139.638 6.98613 113.276 17.3987 86.9389 27.7622C60.5525 38.0519 34.1662 48.3663 7.75519 58.5824Z" fill="white"/>
</g>
<g opacity="0.5">
<path opacity="0.5" d="M8.19745 68.7985C34.0188 57.7474 59.8893 46.8191 85.7597 35.9154C111.655 25.0116 137.55 14.157 163.469 3.35153C215.309 -18.284 267.197 -39.7722 319.134 -61.1622C371.072 -82.5276 423.034 -103.844 475.045 -125.013C527.056 -146.231 579.116 -167.302 631.177 -188.348L632.97 -189.06L634.715 -188.25L695.767 -159.468L756.795 -130.612L817.773 -101.658L878.703 -72.6062C919.314 -53.2054 959.877 -33.731 1000.39 -14.1583C1040.9 5.41441 1081.39 25.0608 1121.76 44.9527C1080.65 26.6325 1039.65 8.06667 998.695 -10.5483C957.739 -29.1878 916.808 -47.9009 875.926 -66.7123L814.628 -94.9539L753.38 -123.294L692.131 -151.757L630.956 -180.293L634.494 -180.195C582.458 -159.05 530.422 -137.955 478.313 -116.982C426.228 -95.9854 374.069 -75.1111 321.91 -54.3105C269.727 -33.5099 217.52 -12.8321 165.238 7.69832C139.098 17.9881 112.957 28.2042 86.7916 38.3958C60.6263 48.5873 34.4364 58.7543 8.19745 68.7985Z" fill="white"/>
</g>
<g opacity="0.5">
<path opacity="0.5" d="M8.66425 78.9901C34.289 68.1109 59.9875 57.33 85.686 46.5982C111.384 35.8663 137.107 25.1836 162.831 14.5255C214.301 -6.76628 265.796 -27.9352 317.365 -49.006L356.036 -64.7722L394.731 -80.5138L433.426 -96.2064L472.146 -111.874C523.764 -132.749 575.456 -153.5 627.148 -174.202L628.966 -174.939L630.71 -174.104L690.706 -145.052L750.677 -115.902L810.599 -86.6533L870.472 -57.3066C910.371 -37.7339 950.221 -18.0384 990.046 1.70622C1029.85 21.4754 1069.65 41.2937 1109.3 61.3821C1068.89 42.8654 1028.59 24.1276 988.302 5.29167C948.035 -13.5443 907.816 -32.4294 867.622 -51.4372L807.356 -79.9736L747.139 -108.608L686.971 -137.341L626.853 -166.147L630.415 -166.025C578.748 -145.224 527.081 -124.448 475.364 -103.819L436.571 -88.3478L397.753 -72.9254L358.935 -57.5276L320.092 -42.1543C268.302 -21.6975 216.463 -1.33896 164.55 18.8722C138.606 28.9901 112.637 39.0589 86.6687 49.0785C60.7 59.1473 34.7067 69.1424 8.66425 78.9901Z" fill="white"/>
</g>
<g opacity="0.5">
<path opacity="0.5" d="M9.13098 89.2062C34.5838 78.4744 60.0857 67.89 85.5876 57.3055C111.09 46.7456 136.616 36.2102 162.167 25.7239C213.245 4.75142 264.396 -16.0737 315.572 -36.8006L353.972 -52.3213L392.373 -67.8173L430.797 -83.2643L469.247 -98.6621C520.496 -119.217 571.82 -139.625 623.118 -160.008L624.961 -160.745L626.705 -159.861L685.669 -130.514L744.584 -101.093L803.45 -71.5747L862.267 -41.9578C901.453 -22.1886 940.615 -2.32126 979.728 17.6198C1018.84 37.5854 1057.9 57.6002 1096.87 77.8359C1057.14 59.1228 1017.54 40.1886 977.959 21.1807C938.379 2.17284 898.849 -16.9332 859.367 -36.113L800.158 -64.944L740.997 -93.8733L681.886 -122.901L622.799 -151.953L626.386 -151.806C575.112 -131.324 523.813 -110.892 472.465 -90.5826L433.942 -75.3566L395.419 -60.1798L356.871 -45.0275L318.324 -29.8999C266.902 -9.76233 215.431 10.2524 163.912 30.1198C138.164 40.0658 112.367 49.9626 86.595 59.8349C60.7982 69.6827 34.9769 79.5058 9.13098 89.2062Z" fill="white"/>
</g>
<g opacity="0.5">
<path opacity="0.5" d="M9.59784 99.4225C34.8541 88.8626 60.1595 78.4254 85.4894 68.0128C110.819 57.6248 136.149 47.2614 161.504 36.947C212.213 16.3183 262.971 -4.18755 313.803 -24.5952L351.909 -39.8703L390.039 -55.1208L428.169 -70.3221L466.323 -85.4744C517.204 -105.686 568.134 -125.774 619.089 -145.813L620.956 -146.55L622.725 -145.641L680.633 -116.024L738.491 -86.3094L796.301 -56.496L854.061 -26.5844C892.559 -6.6188 931.009 13.4205 969.409 33.558C1007.81 53.6956 1046.19 73.9068 1084.44 94.339C1045.4 75.4294 1006.48 56.2987 967.616 37.0944C928.749 17.8901 889.906 -1.41249 851.113 -20.7887L792.959 -49.8899L734.855 -79.0893L676.8 -108.387L618.77 -137.783L622.381 -137.611C571.476 -117.473 520.546 -97.3604 469.566 -77.3948L431.338 -62.4145L393.085 -47.4832L354.832 -32.5765L316.555 -17.6944C265.502 2.09929 214.424 21.7948 163.273 41.3429C137.697 51.117 112.121 60.8419 86.5213 70.5423C60.8719 80.2427 35.2718 89.894 9.59784 99.4225Z" fill="white"/>
</g>
<g opacity="0.5">
<path opacity="0.5" d="M10.0646 109.639C35.1489 99.2506 60.2577 88.9609 85.3911 78.7202C110.525 68.4795 135.683 58.288 160.865 48.1455C211.206 27.8361 261.595 7.67401 312.034 -12.3898L349.869 -27.4193L387.729 -42.3997L425.589 -57.3555L463.473 -72.2622C488.73 -82.2081 514.01 -92.105 539.267 -102.002L615.109 -131.619L616.976 -132.355L618.745 -131.422L675.596 -101.511L732.398 -71.5254L789.151 -41.4419L845.855 -11.2602C883.641 8.87735 921.378 29.1131 959.09 49.4471C996.778 69.7811 1034.44 90.1642 1071.98 110.793C1033.63 91.6868 995.427 72.3597 957.248 52.9589C919.069 33.5581 880.939 14.0836 842.833 -5.48906L785.687 -34.8849L728.615 -64.379L671.592 -93.9714L614.618 -123.637L618.278 -123.441L542.461 -93.7504C517.18 -83.9026 491.899 -74.0058 466.594 -64.2071L428.635 -49.4724L390.677 -34.7867L352.695 -20.1256L314.712 -5.51361C264.052 13.9608 213.318 33.288 162.56 52.5169C137.181 62.119 111.778 71.6966 86.3739 81.2251C60.9702 90.7781 35.5419 100.257 10.0646 109.639Z" fill="white"/>
</g>
<g opacity="0.5">
<path opacity="0.5" d="M10.5069 119.855C35.3946 109.614 60.3315 99.5208 85.2684 89.4275C110.23 79.3587 135.191 69.3145 160.177 59.3439C210.149 39.3783 260.17 19.5109 310.216 -0.209114L347.781 -14.993L385.346 -29.7278L422.936 -44.438L460.525 -59.0991C485.585 -68.8977 510.669 -78.5981 535.753 -88.3476L611.031 -117.449L612.922 -118.186L614.716 -117.228L670.511 -87.0215L726.256 -56.7415L781.953 -26.3633L837.6 4.11308C874.674 24.4471 911.723 44.8793 948.723 65.3852C985.723 85.8911 1022.67 106.471 1059.5 127.271C1021.86 107.969 984.322 88.4451 946.831 68.8724C909.34 49.2752 871.897 29.6042 834.504 9.8351L778.439 -19.8555L722.424 -49.6197L666.457 -79.4822L610.539 -109.443L614.225 -109.222L538.972 -80.047C513.863 -70.3466 488.779 -60.6217 463.67 -50.9949L426.007 -36.5058L388.319 -22.0657L350.631 -7.65016L312.919 6.71625C262.627 25.8469 212.287 44.8547 161.897 63.7644C136.714 73.2192 111.483 82.6003 86.2756 91.9815C61.0439 101.313 35.8123 110.646 10.5069 119.855Z" fill="white"/>
</g>
<g opacity="0.5">
<path opacity="0.5" d="M10.9736 130.046C35.6648 119.977 60.4297 110.031 85.1946 100.11C109.959 90.2132 134.749 80.3409 159.538 70.5177C209.142 50.8714 258.77 31.3478 308.472 11.947L345.742 -2.56673L383.037 -17.0559L420.331 -31.5206L457.651 -45.9361C482.514 -55.5628 507.426 -65.0913 532.314 -74.6689L607.026 -103.279L608.942 -104.016L610.736 -103.009L665.474 -72.5323L720.163 -41.9577C756.598 -21.55 793.033 -1.09326 829.394 19.4372C865.78 39.9676 902.116 60.5718 938.404 81.2496C974.691 101.952 1010.93 122.703 1047.07 143.7C1010.12 124.201 973.291 104.481 936.487 84.7122C899.709 64.9185 862.954 45.0511 826.249 25.1101C789.544 5.16901 752.888 -14.8703 716.257 -34.9095L661.347 -65.0667L606.461 -95.2976L610.171 -95.0274L535.483 -66.3437C510.571 -56.8152 485.683 -47.2622 460.746 -37.7828L423.353 -23.5392L385.96 -9.34473L348.543 4.8252L311.125 18.946C261.202 37.7574 211.255 56.4215 161.234 74.9873C136.223 84.2702 111.212 93.504 86.1773 102.689C61.1422 111.873 36.0825 121.033 10.9736 130.046Z" fill="white"/>
</g>
<g opacity="0.5">
<path opacity="0.5" d="M11.4405 140.262C35.9597 130.365 60.528 120.591 85.0963 110.842C109.665 101.117 134.258 91.3919 158.875 81.7406C208.085 62.4381 257.37 43.2337 306.678 24.1768L343.678 9.90859L380.678 -4.33502L417.703 -18.5541L454.752 -32.724C479.443 -42.1789 504.159 -51.56 528.85 -60.9657L602.997 -89.0846L604.938 -89.8213L606.731 -88.7898L660.413 -58.0187L714.046 -27.1739C749.793 -6.56979 785.515 14.0589 821.164 34.7858C856.837 55.4881 892.461 76.2888 928.061 97.163C963.636 118.037 999.186 138.985 1034.59 160.154C998.326 140.459 962.186 120.567 926.095 100.577C890.004 80.5864 853.963 60.5471 817.945 40.385C781.928 20.2475 745.985 0.0362778 710.041 -20.224L656.212 -50.6268L602.383 -81.1523L606.117 -80.8576L531.995 -52.6651C507.279 -43.3085 482.563 -33.9028 457.823 -24.5953L420.724 -10.5973L383.602 3.3516L346.479 17.2514L309.332 31.1266C259.802 49.5942 210.198 67.939 160.57 86.161C135.756 95.272 110.918 104.334 86.0791 113.371C61.2159 122.409 36.3528 131.397 11.4405 140.262Z" fill="white"/>
</g>
<g opacity="0.5">
<path opacity="0.5" d="M11.9072 150.478C36.2299 140.729 60.6263 131.127 84.998 121.549C109.394 111.972 133.791 102.443 158.212 92.9391C207.054 73.9558 255.945 55.0953 304.885 36.3576L341.59 22.335L378.319 8.33697L415.049 -5.63652L451.803 -19.5363L488.558 -33.4361L525.336 -47.2868L598.968 -74.89L600.933 -75.6267L602.727 -74.5707L655.352 -43.5295L707.928 -12.39C742.963 8.41064 777.973 29.2112 812.958 50.1346C847.943 71.0334 882.855 92.0059 917.742 113.077C952.604 134.147 987.467 155.267 1022.16 176.633C986.583 156.765 951.155 136.652 915.752 116.49C880.349 96.3282 844.995 76.0678 809.69 55.7338C774.386 35.4244 739.13 14.9922 703.875 -5.44004L651.053 -36.1621L598.28 -66.9577L602.063 -66.6385L528.506 -38.9371L491.702 -25.1355L454.899 -11.3585L418.071 2.39392L381.219 16.0727L344.366 29.7269L307.514 43.3566C258.352 61.4804 209.142 79.506 159.882 97.4087C135.265 106.348 110.598 115.262 85.9562 124.128C61.2896 132.944 36.623 141.785 11.9072 150.478Z" fill="white"/>
</g>
<g opacity="0.5">
<path opacity="0.5" d="M12.3741 160.694C36.5248 151.117 60.7001 141.662 84.8999 132.256C109.1 122.851 133.324 113.469 157.573 104.162C206.046 85.498 254.569 66.9813 303.141 48.5874L339.576 34.8103L376.01 21.0579L412.47 7.33001L448.954 -6.32424L485.438 -19.9539L521.946 -33.559L594.988 -60.671L596.978 -61.4077L598.796 -60.3026L650.39 -28.9667L701.934 2.44297C736.256 23.4155 770.578 44.4371 804.851 65.5324C839.124 86.6277 873.348 107.772 907.522 129.039C941.697 150.306 975.822 171.598 1009.82 193.135C974.938 173.072 940.198 152.762 905.483 132.404C870.768 112.045 836.126 91.5883 801.51 71.0579C766.893 50.552 732.325 29.9479 697.782 9.3192L645.992 -21.6975L594.251 -52.7879L598.059 -52.4195L525.017 -25.2584L488.509 -11.7024L451.976 1.82902L415.443 15.3359L378.885 28.7691L342.327 42.1777L305.745 55.5618C256.952 73.3663 208.135 91.048 159.244 108.607C134.798 117.399 110.353 126.117 85.8827 134.81C61.388 143.504 36.8933 152.148 12.3741 160.694Z" fill="white"/>
</g>
<g opacity="0.5">
<path opacity="0.5" d="M12.8163 170.911C36.7704 161.505 60.7737 152.222 84.8015 142.964C108.829 133.73 132.857 124.521 156.91 115.36C205.014 97.0402 253.168 78.8428 301.347 60.7681L337.487 47.2367L373.651 33.7298L409.816 20.272L446.005 6.8634L482.219 -6.52069L518.433 -19.8802L590.909 -46.5011L592.924 -47.2378L594.742 -46.1081L645.279 -14.502L695.767 17.2023C729.401 38.3712 763.01 59.5648 796.571 80.8565L846.887 112.831L897.129 144.928C930.591 166.367 964.029 187.855 997.294 209.589C963.095 189.304 929.068 168.823 895.041 148.268L844.062 117.374L793.156 86.3575C759.227 65.6551 725.372 44.8546 691.517 24.0294L640.783 -7.25743L590.123 -38.6671L593.956 -38.2741L521.528 -11.5551L485.29 1.75533L449.052 15.0166L412.789 28.2534L376.501 41.441L340.214 54.6041L303.927 67.7426C255.502 85.2033 207.054 102.566 158.556 119.805C134.307 128.425 110.033 136.996 85.7597 145.518C61.4616 154.039 37.1635 162.536 12.8163 170.911Z" fill="white"/>
</g>
<g opacity="0.5">
<path opacity="0.5" d="M13.2831 181.102C37.0652 171.844 60.8719 162.733 84.7032 153.646C108.535 144.56 132.39 135.523 156.246 126.534C203.983 108.533 251.743 90.6797 299.553 72.9243L335.423 59.6384L371.317 46.4017L407.212 33.1895L443.131 20.0264L479.05 6.88792L514.993 -6.22604L586.905 -32.3311L588.968 -33.0679L590.787 -31.8891L640.267 0.011692L689.699 31.9861C722.62 53.3516 755.542 74.717 788.39 96.2052L837.649 128.45L886.835 160.817C919.585 182.453 952.31 204.113 984.887 226.019C951.401 205.537 918.037 184.859 884.722 164.108L834.775 132.919L784.926 101.608C751.709 80.7091 718.542 59.7366 685.399 38.715L635.648 7.1335L586.02 -24.5217L589.902 -24.0797L518.04 2.14822L482.096 15.2131L446.128 28.2288L410.16 41.22L374.167 54.162L338.175 67.0795L302.158 79.9724C254.126 97.1139 206.046 114.133 157.917 131.028C133.864 139.476 109.763 147.875 85.686 156.249C61.5599 164.599 37.4338 172.924 13.2831 181.102Z" fill="white"/>
</g>
<g opacity="0.5">
<path opacity="0.5" d="M13.7499 191.318C37.3355 182.232 60.9702 173.293 84.6049 164.354C108.264 155.439 131.899 146.549 155.583 137.733C202.926 120.076 250.343 102.541 297.784 85.1296L333.384 72.0893L368.984 59.0981L404.608 46.1316L440.232 33.214L475.88 20.3211L511.529 7.45276L582.875 -18.1612L584.964 -18.8979L586.782 -17.6701L635.206 14.5009L683.581 46.7701C715.815 68.3074 748.024 89.8938 780.159 111.554L828.362 144.069L876.492 176.706C908.529 198.514 940.541 220.37 972.431 242.472C939.632 221.795 906.956 200.92 874.33 179.972L825.439 148.489L776.597 116.908C744.068 95.8123 711.614 74.6433 679.159 53.4498L630.513 21.5981L581.917 -10.3518L585.824 -9.88519L514.526 15.827L478.853 28.6217L443.18 41.3919L407.482 54.1374L371.76 66.8339L336.037 79.5058L300.29 92.1286C252.628 108.926 204.941 125.626 157.18 142.202C133.299 150.478 109.419 158.73 85.514 166.908C61.6336 175.135 37.704 183.288 13.7499 191.318Z" fill="white"/>
</g>
<g opacity="0.5">
<path opacity="0.5" d="M14.2166 201.535C37.6057 192.62 61.0685 183.828 84.5067 175.061C107.969 166.318 131.432 157.6 154.92 148.931C201.894 131.593 248.918 114.403 295.991 97.3105L331.296 84.5158L366.625 71.7702L401.954 59.0492L437.308 46.3773L472.662 33.7299L508.04 21.1071L578.822 -4.0157L580.935 -4.75244L582.777 -3.49999L630.145 28.9657L677.464 61.505C708.985 83.2388 740.482 104.997 771.929 126.854L819.076 159.663L866.124 192.595C897.473 214.599 928.773 236.628 959.926 258.902C927.815 238.028 895.852 216.957 863.913 195.837L816.054 164.059L768.293 132.183C736.452 110.916 704.685 89.5256 672.943 68.1356L625.354 35.9892L577.839 3.79374L581.795 4.30945L511.062 29.5305L475.659 42.0796L440.256 54.6042L404.853 67.1042L369.426 79.5551L333.974 91.9814L298.522 104.359C251.227 120.837 203.909 137.193 156.541 153.425C132.857 161.554 109.149 169.609 85.4403 177.64C61.7073 185.67 37.9742 193.676 14.2166 201.535Z" fill="white"/>
</g>
<g opacity="0.5">
<path opacity="0.5" d="M14.6836 211.75C37.9007 203.008 61.1669 194.363 84.4331 185.768C107.699 177.197 130.99 168.627 154.305 160.13C200.912 143.135 247.567 126.264 294.247 109.516L329.281 96.991L364.315 84.4911L399.375 72.0156L434.433 59.5893L469.517 47.1875L504.601 34.8103L574.817 10.2032L576.954 9.44189L578.797 10.7434L625.108 43.5038L671.371 76.3378L694.489 92.7917L717.583 109.245L740.678 125.724L763.747 142.227L809.838 175.306L855.829 208.509C886.466 230.685 917.054 252.91 947.519 275.356C916.096 254.285 884.82 233.018 853.594 211.701L806.791 179.653L760.062 147.482L736.722 131.372L713.407 115.213L690.091 99.0539L666.801 82.8702L620.268 50.4292L573.76 17.9389L577.741 18.4792L507.549 43.2337L472.441 55.5372L437.333 67.8162L402.2 80.0706L367.043 92.2759L331.885 104.457L296.703 116.588C249.803 132.723 202.852 148.759 155.853 164.673C132.366 172.63 108.854 180.513 85.3175 188.396C61.8057 196.23 38.2692 204.039 14.6836 211.75Z" fill="white"/>
</g>
<g opacity="0.5">
<path opacity="0.5" d="M15.1257 221.967C61.1914 204.825 107.38 188.028 153.617 171.353C199.855 154.678 246.142 138.15 292.453 121.721L327.193 109.442L361.957 97.1877L396.721 84.9578L431.51 72.7771L466.299 60.6454L501.112 48.5383L570.763 24.4224L572.925 23.6611L574.768 25.0118L620.023 58.0423L665.228 91.1464L687.807 107.723L710.385 124.324L732.939 140.95L755.468 157.6L800.502 190.975L845.437 224.447C875.361 246.819 905.261 269.216 934.989 291.859C904.254 270.591 873.666 249.128 843.128 227.615L797.455 195.248L751.783 162.782L728.959 146.525L706.159 130.243L683.384 113.936L660.61 97.6051L615.109 64.8939L569.658 32.109L573.687 32.6984L504.06 56.9372L469.222 68.9951L434.384 81.0285L399.546 93.0374L364.684 104.997L329.797 116.932L294.91 128.818C248.377 144.634 201.82 160.326 155.19 175.896C108.584 191.417 61.9284 206.864 15.1257 221.967Z" fill="white"/>
</g>
<g opacity="0.5">
<path opacity="0.5" d="M15.5925 232.158C61.2896 215.336 107.11 198.882 152.954 182.527C198.823 166.171 244.717 149.987 290.66 133.877C313.631 125.847 336.603 117.816 359.598 109.835L394.092 97.8507L428.611 85.9156L463.129 74.0295L497.648 62.168L566.734 38.5433L568.945 37.782L570.788 39.1818L615.011 72.5069L659.16 105.906L681.223 122.63L703.26 139.378L725.298 156.151L747.311 172.949L791.289 206.593L835.168 240.36C864.38 262.905 893.567 285.498 922.607 308.312C892.56 286.849 862.684 265.189 832.834 243.479L788.119 210.842L743.479 178.082L721.171 161.677L698.887 145.248L676.628 128.794L654.369 112.315L609.925 79.3095L565.555 46.2299L569.609 46.8684L500.547 70.6159L466.004 82.4283L431.436 94.2162L396.869 105.979L362.276 117.694C339.231 125.503 316.137 133.239 293.067 140.999C246.903 156.471 200.715 171.844 154.477 187.07C108.289 202.296 62.0021 217.423 15.5925 232.158Z" fill="white"/>
</g>
<g opacity="0.5">
<path opacity="0.5" d="M16.0593 242.374C61.3879 225.871 106.839 209.761 152.315 193.725C197.791 177.713 243.341 161.849 288.915 146.082C311.715 138.224 334.49 130.341 357.314 122.531L391.513 110.817L425.736 99.1521L459.985 87.5116L494.233 75.8957L562.779 52.7867L565.014 52.0254L566.857 53.4743L610.024 87.0696L653.116 120.739L674.638 137.61L696.16 154.506L717.657 171.402L739.13 188.322L782.051 222.237L824.874 256.274C853.398 279.015 881.872 301.78 910.175 324.766C880.816 303.106 851.629 281.249 822.466 259.344L778.784 226.411L735.199 193.356L713.432 176.804L691.689 160.228L669.946 143.627L648.227 127.001L604.815 93.7002L561.477 60.326L565.555 61.0136L497.058 84.27L462.786 95.8368L428.513 107.379L394.24 118.897L359.942 130.365C337.069 138.003 314.196 145.591 291.298 153.18C245.528 168.332 199.708 183.361 153.839 198.268C107.994 213.175 62.0758 227.959 16.0593 242.374Z" fill="white"/>
</g>
<g opacity="0.5">
<path opacity="0.5" d="M16.5261 252.59C61.4861 236.431 106.544 220.641 151.676 204.948C196.784 189.256 241.941 173.735 287.146 158.288C309.749 150.601 332.352 142.89 354.98 135.228L388.908 123.759L422.862 112.34L456.815 100.945L490.769 89.5747L558.749 66.9568L561.034 66.1956L562.877 67.6936L604.987 101.584L647.048 135.547C661.052 146.893 675.056 158.214 689.035 169.585L710.017 186.628L730.973 203.696L772.838 237.905L814.604 272.212C842.416 295.125 870.178 318.087 897.792 341.269C869.121 319.413 840.622 297.36 812.172 275.258L769.472 242.006L726.92 208.681L705.668 191.981L684.441 175.257C670.29 164.108 656.163 152.934 642.036 141.76L599.68 108.19L557.374 74.5453L561.501 75.282L493.57 98.0472L459.592 109.368L425.589 120.665L391.586 131.913L357.559 143.111C334.883 150.601 312.181 157.993 289.48 165.434C244.078 180.243 198.651 194.953 153.151 209.516C107.699 224.054 62.174 238.519 16.5261 252.59Z" fill="white"/>
</g>
<g opacity="0.5">
<path opacity="0.5" d="M16.9684 262.807C61.5599 246.967 106.25 231.52 150.989 216.146C195.728 200.798 240.516 185.596 285.328 170.493C307.759 162.979 330.166 155.415 352.597 147.949L386.255 136.726L419.914 125.552L453.597 114.403L487.28 103.278L554.696 81.1514L557.005 80.3901L558.872 81.9373L599.926 116.097L640.931 150.331C654.566 161.775 668.251 173.17 681.861 184.639L702.302 201.829L722.719 219.044L763.527 253.524L804.236 288.101C831.335 311.21 858.41 334.344 885.312 357.699C857.353 335.645 829.542 313.396 801.78 291.097L760.136 257.576L718.64 223.956L697.905 207.109L677.193 190.238C663.386 179.015 649.603 167.718 635.82 156.446L594.521 122.581L553.271 88.6662L557.447 89.452L490.081 111.702L456.373 122.777L422.665 133.828L388.933 144.83L355.201 155.783C332.721 163.101 310.192 170.346 287.687 177.615C242.653 192.104 197.595 206.471 152.487 220.714C107.38 234.933 62.2478 249.054 16.9684 262.807Z" fill="white"/>
</g>
<g opacity="0.5">
<path opacity="0.5" d="M17.4351 273.023C61.6336 257.527 105.979 242.399 150.35 227.345C194.72 212.316 239.14 197.458 283.584 182.674C305.818 175.307 328.053 167.939 350.287 160.621L383.651 149.644L417.039 138.715L483.841 116.932L550.691 95.3214L553.05 94.5601L554.917 96.1563L594.914 130.611L634.862 165.14C648.154 176.657 661.47 188.175 674.737 199.742L694.662 217.055L714.562 234.418L754.313 269.167L793.967 304.04C820.353 327.321 846.715 350.651 872.905 374.177C845.634 351.928 818.511 329.482 791.436 306.987L750.874 273.195L710.41 239.28L690.19 222.286L670.02 205.267C656.556 193.946 643.142 182.551 629.703 171.206L589.386 137.021L549.192 102.812L553.394 103.647L486.592 125.405L419.742 147.016L386.304 157.772L352.842 168.48C330.534 175.626 308.226 182.699 285.893 189.82C241.253 203.966 196.563 218.013 151.824 231.913C107.085 245.813 62.3215 259.59 17.4351 273.023Z" fill="white"/>
</g>
<g opacity="0.5">
<path opacity="0.5" d="M17.9019 283.214C39.8414 275.724 61.8301 268.307 83.8187 260.915L116.814 249.864L149.809 238.862L182.829 227.91L215.849 216.981L248.893 206.102L281.938 195.247L348.051 173.636L414.214 152.148L480.401 130.758L546.637 109.442L549.02 108.681L550.912 110.351L570.444 127.639L589.951 144.953L609.459 162.291L628.917 179.653C641.913 191.22 654.836 202.86 667.808 214.452L687.217 231.913L706.602 249.398C732.423 272.703 758.171 296.132 783.82 319.634L803.032 337.291L822.196 354.997C834.971 366.809 847.698 378.671 860.375 390.606C847.01 379.457 833.718 368.234 820.451 356.986L800.576 340.066L780.749 323.096C754.338 300.454 728.001 277.713 701.762 254.85L682.082 237.708L662.428 220.542C649.357 209.074 636.263 197.63 623.217 186.112L603.636 168.872L584.079 151.583L564.548 134.295L545.04 116.957L549.315 117.865L483.03 138.961L416.695 159.958L350.336 180.856L283.928 201.633L250.712 211.971L217.495 222.286L184.254 232.551L151.013 242.792L117.748 252.983L84.4821 263.126C62.3214 269.879 40.1362 276.583 17.9019 283.214Z" fill="white"/>
</g>
</g>
</svg>
