<svg width="36" height="36" viewBox="0 0 36 36" fill="none" xmlns="http://www.w3.org/2000/svg">
<rect width="36" height="36" fill="#55ACEE"/>
<path d="M23.4375 15.0332C23.4375 15.1343 23.4375 15.3365 23.4375 15.4376C23.4375 17.5609 22.6041 19.6841 21.0416 21.3019C19.4791 23.1218 17.0833 24.0317 14.6875 23.9306C13.0208 23.9306 11.3542 23.4251 10 22.6162C10.2083 22.6162 10.5208 22.6162 10.7292 22.6162C12.0833 22.6162 13.4375 22.2118 14.4792 21.3019C13.8542 21.3019 13.2292 21.0996 12.7083 20.6952C12.1875 20.2908 11.875 19.7852 11.6667 19.1786C11.875 19.1786 12.0833 19.1786 12.2917 19.1786C12.6042 19.1786 12.8125 19.1786 13.125 19.0775C12.3958 18.9764 11.7708 18.6731 11.25 18.0664C10.8333 17.5609 10.5208 16.9542 10.625 16.2465C11.0417 16.4487 11.4583 16.5498 11.9792 16.5498C11.1458 16.0443 10.5208 15.1343 10.625 14.1232C10.625 13.6177 10.8333 13.1122 11.0417 12.6066C12.6042 14.5277 14.8958 15.6399 17.3958 15.741C17.2916 15.4376 17.2916 15.2354 17.2916 15.0332C17.2916 13.4155 18.6458 12 20.4166 12C21.25 12 22.0833 12.3033 22.7083 12.91C23.4375 12.8089 24.0625 12.6066 24.6875 12.2022C24.4791 12.91 23.9583 13.5166 23.3333 13.8199C23.9583 13.7188 24.4791 13.6177 25.1041 13.3144C24.5833 14.0221 24.0625 14.5277 23.4375 15.0332Z" fill="white"/>
</svg>
