<svg width="20" height="20" viewBox="0 0 20 20" fill="none" xmlns="http://www.w3.org/2000/svg">
<path d="M17.8583 14.3787V11.4225C17.8583 11.0438 17.7079 10.6806 17.4401 10.4128C17.1724 10.1451 16.8092 9.99465 16.4305 9.99465H10.7193V7.13904H12.1471C12.5257 7.13866 12.8886 6.98811 13.1563 6.72042C13.424 6.45274 13.5745 6.08979 13.5749 5.71123V1.42781C13.5745 1.04925 13.424 0.686296 13.1563 0.418613C12.8886 0.150929 12.5257 0.000377995 12.1471 0H7.86369C7.48513 0.000377995 7.12218 0.150929 6.85449 0.418613C6.58681 0.686296 6.43626 1.04925 6.43588 1.42781V5.71123C6.43626 6.08979 6.58681 6.45274 6.85449 6.72042C7.12218 6.98811 7.48513 7.13866 7.86369 7.13904H9.2915V9.99465H3.58027C3.20159 9.99465 2.83842 10.1451 2.57066 10.4128C2.30289 10.6806 2.15246 11.0438 2.15246 11.4225V14.3794C1.47949 14.5532 0.892999 14.9664 0.502913 15.5417C0.112827 16.1169 -0.0540685 16.8147 0.0335093 17.5042C0.121087 18.1937 0.457126 18.8276 0.978636 19.2871C1.50015 19.7465 2.17133 20 2.86636 20C3.5614 20 4.23258 19.7465 4.75409 19.2871C5.2756 18.8276 5.61164 18.1937 5.69922 17.5042C5.7868 16.8147 5.6199 16.1169 5.22981 15.5417C4.83973 14.9664 4.25323 14.5532 3.58027 14.3794V11.4225H9.2915V14.3794C8.61853 14.5532 8.03203 14.9664 7.64195 15.5417C7.25186 16.1169 7.08497 16.8147 7.17255 17.5042C7.26012 18.1937 7.59616 18.8276 8.11767 19.2871C8.63918 19.7465 9.31036 20 10.0054 20C10.7004 20 11.3716 19.7465 11.8931 19.2871C12.4146 18.8276 12.7507 18.1937 12.8383 17.5042C12.9258 16.8147 12.7589 16.1169 12.3689 15.5417C11.9788 14.9664 11.3923 14.5532 10.7193 14.3794V11.4225H16.4305V14.3787C15.7576 14.5525 15.1711 14.9657 14.781 15.541C14.3909 16.1162 14.224 16.814 14.3116 17.5035C14.3992 18.193 14.7352 18.8269 15.2567 19.2863C15.7782 19.7458 16.4494 19.9993 17.1444 19.9993C17.8395 19.9993 18.5107 19.7458 19.0322 19.2863C19.5537 18.8269 19.8897 18.193 19.9773 17.5035C20.0649 16.814 19.898 16.1162 19.5079 15.541C19.1178 14.9657 18.5313 14.5525 17.8583 14.3787ZM7.86369 1.42781H12.1471L12.1478 5.71123H7.86369V1.42781ZM4.29417 17.1337C4.29417 17.4161 4.21043 17.6921 4.05354 17.9269C3.89665 18.1617 3.67366 18.3447 3.41276 18.4528C3.15186 18.5609 2.86478 18.5892 2.58781 18.5341C2.31084 18.479 2.05643 18.343 1.85675 18.1433C1.65707 17.9436 1.52108 17.6892 1.46599 17.4122C1.4109 17.1353 1.43917 16.8482 1.54724 16.5873C1.65531 16.3264 1.83831 16.1034 2.07312 15.9465C2.30792 15.7896 2.58397 15.7059 2.86636 15.7059C3.24493 15.7063 3.60787 15.8568 3.87556 16.1245C4.14324 16.3922 4.29379 16.7551 4.29417 17.1337ZM11.4332 17.1337C11.4332 17.4161 11.3495 17.6921 11.1926 17.9269C11.0357 18.1617 10.8127 18.3447 10.5518 18.4528C10.2909 18.5609 10.0038 18.5892 9.72685 18.5341C9.44988 18.479 9.19547 18.343 8.99579 18.1433C8.79611 17.9436 8.66012 17.6892 8.60503 17.4122C8.54994 17.1353 8.57821 16.8482 8.68628 16.5873C8.79435 16.3264 8.97735 16.1034 9.21215 15.9465C9.44695 15.7896 9.72301 15.7059 10.0054 15.7059C10.3839 15.7064 10.7467 15.8571 11.0144 16.1247C11.282 16.3923 11.4326 16.7552 11.4332 17.1337ZM17.1444 18.5615C16.862 18.5615 16.586 18.4778 16.3512 18.3209C16.1164 18.164 15.9334 17.941 15.8253 17.6801C15.7172 17.4192 15.689 17.1321 15.7441 16.8551C15.7992 16.5782 15.9351 16.3238 16.1348 16.1241C16.3345 15.9244 16.5889 15.7884 16.8659 15.7333C17.1429 15.6782 17.4299 15.7065 17.6908 15.8146C17.9517 15.9226 18.1747 16.1056 18.3316 16.3404C18.4885 16.5752 18.5722 16.8513 18.5722 17.1337C18.5719 17.5123 18.4213 17.8752 18.1536 18.1429C17.8859 18.4106 17.523 18.5611 17.1444 18.5615Z" fill="white"/>
</svg>
