<svg width="19" height="21" viewBox="0 0 19 21" fill="none" xmlns="http://www.w3.org/2000/svg">
<g clip-path="url(#clip0)">
<path d="M16.8801 0H2.23092C1.18884 0 0.347168 0.822634 0.347168 1.84113V16.1589C0.347168 17.1774 1.18884 18 2.23092 18H5.1701V20.5005L8.73721 18H16.8801C17.9222 18 18.7638 17.1774 18.7638 16.1589V1.84113C18.7638 0.822634 17.9155 0 16.8801 0Z" fill="#41A0D7"/>
<path d="M18.7637 15.7932V12.9075C18.383 12.5223 17.8486 12.2872 17.254 12.2872H12.9655L18.757 4.57013V2.10223C18.4564 1.84108 18.069 1.69092 17.6548 1.69092H8.8974C7.73509 1.69092 6.78653 2.61148 6.78653 3.75403C6.78653 4.89658 7.72841 5.81714 8.8974 5.81714H12.5847L6.61953 13.8476C6.25214 14.3373 6.1987 14.9902 6.48594 15.5321C6.76649 16.0739 7.34097 16.4134 7.96221 16.4134H17.2607C17.8486 16.4134 18.3763 16.1784 18.7637 15.7932Z" fill="white"/>
</g>
<defs>
<clipPath id="clip0">
<rect width="18.4167" height="20.5005" fill="white" transform="translate(0.347168)"/>
</clipPath>
</defs>
</svg>
