<svg width="36" height="36" viewBox="0 0 36 36" fill="none" xmlns="http://www.w3.org/2000/svg">
<rect width="36" height="36" fill="#41A0D7"/>
<path d="M25.1588 8H10.8411C9.82263 8 9 8.82263 9 9.84112V24.1588C9 25.1773 9.82263 25.9999 10.8411 25.9999H13.7138V28.5004L17.2002 25.9999H25.1588C26.1773 25.9999 26.9999 25.1773 26.9999 24.1588V9.84112C26.9999 8.82263 26.1708 8 25.1588 8Z" fill="white"/>
<path d="M27 23.7932V20.9075C26.6279 20.5223 26.1056 20.2872 25.5245 20.2872H21.333L26.9935 12.5702V10.1023C26.6997 9.84114 26.321 9.69098 25.9162 9.69098H17.357C16.221 9.69098 15.2939 10.6115 15.2939 11.7541C15.2939 12.8966 16.2144 13.8172 17.357 13.8172H20.9609L15.1307 21.8476C14.7716 22.3373 14.7194 22.9901 15.0001 23.532C15.2743 24.0739 15.8358 24.4134 16.443 24.4134H25.531C26.1056 24.4134 26.6214 24.1784 27 23.7932Z" fill="#41A0D7"/>
</svg>
