<svg width="20" height="24" viewBox="0 0 20 24" fill="none" xmlns="http://www.w3.org/2000/svg">
<path d="M14.6809 6.2766V5C14.6809 4.88298 14.5851 4.78723 14.4681 4.78723H4.25532C4.1383 4.78723 4.04255 4.88298 4.04255 5V6.2766C4.04255 6.39362 4.1383 6.48936 4.25532 6.48936H14.4681C14.5851 6.48936 14.6809 6.39362 14.6809 6.2766ZM4.25532 8.61702C4.1383 8.61702 4.04255 8.71277 4.04255 8.82979V10.1064C4.04255 10.2234 4.1383 10.3191 4.25532 10.3191H9.14894C9.26596 10.3191 9.3617 10.2234 9.3617 10.1064V8.82979C9.3617 8.71277 9.26596 8.61702 9.14894 8.61702H4.25532ZM14.2553 11.7021C11.0824 11.7021 8.51064 14.2739 8.51064 17.4468C8.51064 20.6197 11.0824 23.1915 14.2553 23.1915C17.4282 23.1915 20 20.6197 20 17.4468C20 14.2739 17.4282 11.7021 14.2553 11.7021ZM17.1144 20.3059C16.3511 21.0691 15.3351 21.4894 14.2553 21.4894C13.1755 21.4894 12.1596 21.0691 11.3963 20.3059C10.633 19.5426 10.2128 18.5266 10.2128 17.4468C10.2128 16.367 10.633 15.3511 11.3963 14.5878C12.1596 13.8245 13.1755 13.4043 14.2553 13.4043C15.3351 13.4043 16.3511 13.8245 17.1144 14.5878C17.8777 15.3511 18.2979 16.367 18.2979 17.4468C18.2979 18.5266 17.8777 19.5426 17.1144 20.3059ZM16.6223 15.4255H15.4441C15.375 15.4255 15.3112 15.4574 15.2713 15.5133L13.5824 17.8484L12.9681 17C12.9484 16.9726 12.9224 16.9503 12.8923 16.935C12.8623 16.9198 12.8289 16.9119 12.7952 16.9122H11.6223C11.4495 16.9122 11.3484 17.109 11.4495 17.25L13.4122 19.9654C13.4973 20.0824 13.6702 20.0824 13.7553 19.9654L16.7926 15.7633C16.8963 15.6223 16.7952 15.4255 16.6223 15.4255ZM8.08511 20.6383H1.91489V1.91489H16.8085V11.0638C16.8085 11.1809 16.9043 11.2766 17.0213 11.2766H18.5106C18.6277 11.2766 18.7234 11.1809 18.7234 11.0638V0.851064C18.7234 0.380319 18.3431 0 17.8723 0H0.851064C0.380319 0 0 0.380319 0 0.851064V21.7021C0 22.1729 0.380319 22.5532 0.851064 22.5532H8.08511C8.20213 22.5532 8.29787 22.4574 8.29787 22.3404V20.8511C8.29787 20.734 8.20213 20.6383 8.08511 20.6383Z" fill="#BDBDBD"/>
</svg>
