<svg width="20" height="19" viewBox="0 0 20 19" fill="none" xmlns="http://www.w3.org/2000/svg">
<path d="M18 9V13C18 14.11 17.11 15 16 15H11.9L8.2 18.71C8 18.89 7.76 19 7.5 19H7C6.73478 19 6.48043 18.8946 6.29289 18.7071C6.10536 18.5196 6 18.2652 6 18V15H2C1.46957 15 0.960859 14.7893 0.585786 14.4142C0.210714 14.0391 0 13.5304 0 13V3C0 2.46957 0.210714 1.96086 0.585786 1.58579C0.960859 1.21071 1.46957 1 2 1H7.5C6.95 1.67 6.5 2.42 6.14 3.25L5.85 4L6.14 4.75C7.43 7.94 10.5 10 14 10C15.44 10 16.8 9.63 18 9ZM14 3C14.56 3 15 3.44 15 4C15 4.56 14.56 5 14 5C13.44 5 13 4.56 13 4C13 3.44 13.44 3 14 3ZM14 0C16.73 0 19.06 1.66 20 4C19.06 6.34 16.73 8 14 8C11.27 8 8.94 6.34 8 4C8.94 1.66 11.27 0 14 0ZM14 1.5C13.337 1.5 12.7011 1.76339 12.2322 2.23223C11.7634 2.70107 11.5 3.33696 11.5 4C11.5 4.66304 11.7634 5.29893 12.2322 5.76777C12.7011 6.23661 13.337 6.5 14 6.5C14.663 6.5 15.2989 6.23661 15.7678 5.76777C16.2366 5.29893 16.5 4.66304 16.5 4C16.5 3.33696 16.2366 2.70107 15.7678 2.23223C15.2989 1.76339 14.663 1.5 14 1.5Z" fill="#BDBDBD"/>
</svg>
