<svg width="20" height="20" viewBox="0 0 20 20" fill="none" xmlns="http://www.w3.org/2000/svg">
<path d="M18 11.575V18.575C18 18.8402 17.8946 19.0945 17.7071 19.2821C17.5196 19.4696 17.2652 19.575 17 19.575H3C2.73478 19.575 2.48043 19.4696 2.29289 19.2821C2.10536 19.0945 2 18.8402 2 18.575V11.575H18ZM12.5 0.574955C13.0906 0.574753 13.6717 0.72403 14.1892 1.00888C14.7066 1.29374 15.1435 1.7049 15.4592 2.20409C15.7749 2.70327 15.9592 3.27424 15.9948 3.86381C16.0305 4.45338 15.9163 5.04238 15.663 5.57595L19 5.57495C19.2652 5.57495 19.5196 5.68031 19.7071 5.86785C19.8946 6.05538 20 6.30974 20 6.57495V9.57495C20 9.84017 19.8946 10.0945 19.7071 10.2821C19.5196 10.4696 19.2652 10.575 19 10.575H1C0.734784 10.575 0.48043 10.4696 0.292893 10.2821C0.105357 10.0945 0 9.84017 0 9.57495V6.57495C0 6.30974 0.105357 6.05538 0.292893 5.86785C0.48043 5.68031 0.734784 5.57495 1 5.57495L4.337 5.57595C3.98076 4.82763 3.90163 3.97716 4.1137 3.17595C4.32577 2.37475 4.81529 1.6748 5.4951 1.20071C6.17491 0.726617 7.0009 0.50915 7.82603 0.587023C8.65116 0.664895 9.42189 1.03305 10.001 1.62596C10.326 1.29248 10.7147 1.02763 11.1439 0.847102C11.5732 0.66657 12.0343 0.574027 12.5 0.574955ZM7.5 2.57495C7.11478 2.57515 6.74441 2.72353 6.46561 2.98936C6.18682 3.2552 6.02099 3.6181 6.00248 4.00287C5.98396 4.38764 6.11419 4.76479 6.36618 5.05616C6.61816 5.34753 6.97258 5.53078 7.356 5.56796L7.5 5.57495H9V4.07495C8.99998 3.70207 8.86108 3.34256 8.61038 3.06654C8.35968 2.79051 8.01516 2.61775 7.644 2.58195L7.5 2.57495ZM12.5 2.57495L12.356 2.58195C12.0094 2.61516 11.6851 2.76793 11.4388 3.01406C11.1925 3.2602 11.0395 3.58436 11.006 3.93095L11 4.07495V5.57495H12.5L12.644 5.56796C13.015 5.53198 13.3594 5.35915 13.6099 5.08314C13.8605 4.80713 13.9993 4.44772 13.9993 4.07495C13.9993 3.70219 13.8605 3.34278 13.6099 3.06677C13.3594 2.79076 13.015 2.61793 12.644 2.58195L12.5 2.57495Z" fill="#BDBDBD"/>
</svg>
