<svg width="20" height="21" viewBox="0 0 20 21" fill="none" xmlns="http://www.w3.org/2000/svg">
<path d="M19.2215 6.13796C18.7197 4.94018 17.9896 3.85148 17.0719 2.93254C16.157 2.012 15.0702 1.28012 13.8732 0.778448C12.647 0.262027 11.3295 -0.00268949 9.99895 2.06e-05H9.95422C8.60092 0.00673118 7.29235 0.275154 6.05985 0.803053C4.87313 1.30987 3.79653 2.04305 2.89022 2.96162C1.98145 3.8785 1.25971 4.96339 0.765204 6.15586C0.251878 7.39589 -0.00822563 8.72607 0.000198256 10.0681C0.00690883 11.6205 0.378227 13.1617 1.07165 14.5396V17.9396C1.07165 18.5078 1.53245 18.9686 2.09837 18.9686H5.49392C6.87825 19.6671 8.40588 20.0347 9.95645 20.0423H10.0034C11.3411 20.0423 12.6362 19.7828 13.8575 19.275C15.0485 18.7793 16.1312 18.056 17.0451 17.1455C17.9666 16.2307 18.6914 15.1615 19.1991 13.9692C19.7248 12.7345 19.9932 11.4214 19.9999 10.0659C20.0044 8.70364 19.7405 7.38166 19.2215 6.13796ZM5.53418 11.0948C4.94365 11.0948 4.46273 10.6139 4.46273 10.0212C4.46273 9.42838 4.94365 8.94746 5.53418 8.94746C6.12471 8.94746 6.60564 9.42838 6.60564 10.0212C6.60564 10.6139 6.12695 11.0948 5.53418 11.0948ZM9.99895 11.0948C9.40842 11.0948 8.9275 10.6139 8.9275 10.0212C8.9275 9.42838 9.40842 8.94746 9.99895 8.94746C10.5895 8.94746 11.0704 9.42838 11.0704 10.0212C11.0704 10.6139 10.5895 11.0948 9.99895 11.0948ZM14.4637 11.0948C13.8732 11.0948 13.3923 10.6139 13.3923 10.0212C13.3923 9.42838 13.8732 8.94746 14.4637 8.94746C15.0543 8.94746 15.5352 9.42838 15.5352 10.0212C15.5352 10.6139 15.0543 11.0948 14.4637 11.0948Z" fill="#BDBDBD"/>
</svg>
