<svg width="20" height="29" viewBox="0 0 20 29" fill="none" xmlns="http://www.w3.org/2000/svg">
<path d="M17.1429 0H11.4286V5.79857C13.4733 6.02332 15.4336 6.73834 17.1429 7.88286V0ZM8.57143 0H2.85714V7.88286C4.5664 6.73834 6.52668 6.02332 8.57143 5.79857V0ZM10 28.5714C12.6522 28.5714 15.1957 27.5179 17.0711 25.6425C18.9464 23.7671 20 21.2236 20 18.5714C20 15.9193 18.9464 13.3757 17.0711 11.5004C15.1957 9.625 12.6522 8.57143 10 8.57143C7.34784 8.57143 4.8043 9.625 2.92893 11.5004C1.05357 13.3757 0 15.9193 0 18.5714C0 21.2236 1.05357 23.7671 2.92893 25.6425C4.8043 27.5179 7.34784 28.5714 10 28.5714ZM8.25 16.4014L10 12.8571L11.75 16.4014L15.6614 16.9686L12.8314 19.7286L13.5 23.6243L10 21.7857L6.50143 23.6243L7.17 19.7286L4.34 16.9686L8.25 16.4014Z" fill="#BDBDBD"/>
</svg>
