<svg width="20" height="20" viewBox="0 0 20 20" fill="none" xmlns="http://www.w3.org/2000/svg">
<path d="M6.42857 3.57143H3.57143C3.17694 3.57143 2.85714 3.89123 2.85714 4.28571V7.14286C2.85714 7.53735 3.17694 7.85714 3.57143 7.85714H6.42857C6.82306 7.85714 7.14286 7.53735 7.14286 7.14286V4.28571C7.14286 3.89123 6.82306 3.57143 6.42857 3.57143Z" fill="#BDBDBD"/>
<path d="M19.4643 3.57143H17.1429V17.1429C17.1429 17.5217 17.2934 17.8851 17.5613 18.153C17.8292 18.4209 18.1925 18.5714 18.5714 18.5714C18.9503 18.5714 19.3137 18.4209 19.5816 18.153C19.8495 17.8851 20 17.5217 20 17.1429V4.10714C20 3.96506 19.9436 3.8288 19.8431 3.72834C19.7426 3.62787 19.6064 3.57143 19.4643 3.57143Z" fill="#BDBDBD"/>
<path d="M17.8192 19.8996C17.215 19.7338 16.6818 19.3744 16.3016 18.8764C15.9214 18.3784 15.715 17.7694 15.7143 17.1429V0.535714C15.7143 0.393634 15.6578 0.257373 15.5574 0.156907C15.4569 0.0564411 15.3207 0 15.1786 0H0.535714C0.393634 0 0.257373 0.0564411 0.156907 0.156907C0.0564411 0.257373 0 0.393634 0 0.535714V17.5C0 18.163 0.263392 18.7989 0.732233 19.2678C1.20107 19.7366 1.83696 20 2.5 20H17.8058C17.8185 20.0005 17.8309 19.9962 17.8405 19.9881C17.8502 19.9799 17.8565 19.9684 17.8582 19.9559C17.8599 19.9433 17.8568 19.9306 17.8496 19.9202C17.8424 19.9097 17.8315 19.9024 17.8192 19.8996ZM2.85714 7.85714V3.57143H7.14286V7.85714H2.85714ZM12.8571 16.4286H2.85714V15H12.8571V16.4286ZM12.8571 13.5714H2.85714V12.1429H12.8571V13.5714ZM12.8571 10.7143H2.85714V9.28571H12.8571V10.7143ZM12.8571 7.85714H8.57143V6.42857H12.8571V7.85714ZM12.8571 5H8.57143V3.57143H12.8571V5Z" fill="#BDBDBD"/>
</svg>
