<svg width="20" height="16" viewBox="0 0 20 16" fill="none" xmlns="http://www.w3.org/2000/svg">
<path d="M16.2353 6.82352C16.3529 6.47057 16.4706 6.11763 16.4706 5.64704C16.4706 3.05881 14.3529 0.941162 11.7647 0.941162C10 0.941162 8.35294 1.99999 7.64706 3.5294C7.29412 3.41175 6.82353 3.2941 6.47059 3.2941C4.82353 3.2941 3.52941 4.58822 3.52941 6.23528C3.52941 6.47057 3.52941 6.70587 3.64706 6.82352C1.52941 7.17646 0 8.82352 0 10.9412C0 13.1765 1.88235 15.0588 4.11765 15.0588H15.8824C18.1176 15.0588 20 13.1765 20 10.9412C20 8.82352 18.3529 7.05881 16.2353 6.82352ZM8.82353 13.7647L5.05882 9.99999L6.70588 8.35293L8.82353 10.4706L13.2941 5.99999L14.9412 7.64704L8.82353 13.7647Z" fill="#BDBDBD"/>
</svg>
