<svg width="20" height="20" viewBox="0 0 20 20" fill="none" xmlns="http://www.w3.org/2000/svg">
<path d="M10.1399 0.000929144C4.51611 -0.0750289 -0.0750289 4.51611 0.000929144 10.1399C0.0759257 15.5334 4.46755 19.925 9.86105 20C15.4858 20.0769 20.076 15.4858 19.999 9.86201C19.925 4.46755 15.5334 0.0759257 10.1399 0.000929144ZM9.96297 7.31357C9.97307 7.25588 9.98412 7.19819 9.9971 7.14099C10.1185 6.57954 10.3891 6.06122 10.7802 5.64057C11.3999 4.98051 12.2782 4.6161 13.2537 4.6161C13.6641 4.61442 14.0717 4.6837 14.4584 4.8209C14.9392 4.99208 15.3722 5.27557 15.7214 5.64778C16.235 6.20295 16.5407 6.91873 16.5867 7.67365C16.6 7.8561 16.6 8.03926 16.5867 8.22171C16.5497 8.73876 16.416 9.24428 16.1925 9.71202C16.1681 9.76298 16.1427 9.81346 16.1161 9.86346C16.0627 9.96297 16.0055 10.0606 15.9439 10.1548C15.8215 10.3429 15.6826 10.5199 15.5291 10.6836C14.8983 11.3567 14.0907 11.7283 13.2546 11.7283C12.9412 11.7281 12.6298 11.6764 12.3331 11.5754C12.2334 11.5415 12.1355 11.5025 12.0398 11.4586C11.6391 11.2717 11.2787 11.0084 10.9788 10.6836C10.3544 10.0064 9.98113 9.13558 9.92115 8.21642C9.91249 8.09206 9.90961 7.96899 9.91249 7.8472C9.91621 7.66865 9.93308 7.49061 9.96297 7.31454V7.31357ZM2.76474 8.48371C2.78814 8.14068 2.87281 7.80462 3.01473 7.49145C3.05477 7.40423 3.09938 7.31918 3.14838 7.23665C3.24638 7.07123 3.3623 6.91711 3.49404 6.77706C3.68919 6.56887 3.91642 6.39326 4.16708 6.25689C4.29228 6.18847 4.42264 6.12996 4.55697 6.0819C5.07171 5.90187 5.62511 5.86221 6.16026 5.967C6.72731 6.07668 7.24521 6.36271 7.64 6.78427C8.10847 7.28997 8.37248 7.95162 8.38083 8.64092C8.38324 8.74235 8.38083 8.84427 8.37362 8.94763C8.34429 9.34344 8.2467 9.73119 8.08517 10.0937C8.00783 10.2683 7.91567 10.4359 7.8097 10.5947C7.6059 10.9026 7.34943 11.1723 7.05205 11.3913C6.97994 11.4427 6.90494 11.4908 6.82754 11.5389C6.67531 11.6295 6.51422 11.7044 6.34679 11.7624C6.09644 11.8499 5.83318 11.8947 5.56798 11.8951C5.52327 11.8951 5.47856 11.8951 5.43433 11.8912C5.34601 11.8864 5.25805 11.8765 5.17088 11.8614C5.08415 11.8463 4.9983 11.8266 4.91368 11.8023C4.78658 11.7656 4.66251 11.7192 4.54255 11.6634C4.50216 11.6446 4.46274 11.6249 4.42332 11.6042C3.55798 11.148 2.9056 10.2024 2.77772 9.09859C2.77196 9.04811 2.76715 8.99763 2.76378 8.94667C2.75293 8.79253 2.75325 8.63781 2.76474 8.48371ZM5.35693 17.0699C4.07692 16.2261 3.0482 15.0528 2.37918 13.6734C2.35734 13.6293 2.35323 13.5785 2.36772 13.5314C2.38221 13.4844 2.41419 13.4447 2.45707 13.4205C3.35029 12.9181 4.49111 12.6446 5.56894 12.6446C6.38621 12.6446 7.04484 12.7407 7.62125 12.9273C7.6866 12.9488 7.74498 12.9874 7.79032 13.0392C7.83565 13.0909 7.86627 13.1539 7.87898 13.2215C7.8917 13.2891 7.88605 13.3589 7.86262 13.4236C7.83919 13.4883 7.79883 13.5455 7.74577 13.5892C6.62322 14.5027 5.8997 15.6343 5.55981 16.9905C5.55472 17.0113 5.54472 17.0305 5.53065 17.0466C5.51658 17.0626 5.49885 17.0751 5.47896 17.0829C5.45907 17.0906 5.4376 17.0935 5.41636 17.0913C5.39512 17.089 5.37474 17.0816 5.35693 17.0699ZM10.0005 18.4616C8.91811 18.4627 7.8457 18.2551 6.84196 17.8501C6.80094 17.8332 6.76704 17.8026 6.74601 17.7635C6.72498 17.7244 6.71812 17.6793 6.72658 17.6357C6.74581 17.5371 6.76696 17.4472 6.78571 17.3722C7.12801 16.0055 7.97604 14.8724 9.23752 14.0945C10.3572 13.4046 11.7855 13.0248 13.2527 13.0248C14.7507 13.0248 16.1372 13.3893 17.266 14.0782C17.2947 14.0962 17.3154 14.1246 17.3235 14.1575C17.3317 14.1905 17.3268 14.2253 17.3097 14.2546C16.5653 15.5335 15.4987 16.5949 14.2163 17.333C12.9338 18.0712 11.4802 18.4603 10.0005 18.4616Z" fill="#BDBDBD"/>
<path d="M8.3741 8.94523C8.38131 8.84187 8.38372 8.73995 8.38131 8.63851C8.38388 8.73947 8.38147 8.84171 8.3741 8.94523Z" fill="#BDBDBD"/>
<path d="M2.77869 9.09618C2.90656 10.2019 3.56038 11.1456 4.42428 11.6018C3.55846 11.1456 2.90656 10.2 2.77869 9.09618Z" fill="#BDBDBD"/>
<path d="M9.92066 8.2217C9.91201 8.09735 9.90913 7.97428 9.91201 7.85249C9.90913 7.97268 9.91201 8.09575 9.92066 8.2217Z" fill="#BDBDBD"/>
</svg>
