<svg width="24" height="23" viewBox="0 0 24 23" fill="none" xmlns="http://www.w3.org/2000/svg">
<path d="M23.6292 4.53865L17.7907 8.13594L12.1922 0.668341C12.1697 0.638285 12.1405 0.613889 12.1069 0.597085C12.0733 0.580282 12.0363 0.571533 11.9987 0.571533C11.9612 0.571533 11.9241 0.580282 11.8905 0.597085C11.8569 0.613889 11.8277 0.638285 11.8052 0.668341L6.20975 8.13594L0.368276 4.53865C0.197262 4.43365 -0.0247559 4.57466 0.00224628 4.77567L2.29443 22.1951C2.32743 22.4321 2.53145 22.6151 2.77447 22.6151H21.229C21.469 22.6151 21.676 22.4351 21.706 22.1951L23.9982 4.77567C24.0222 4.57466 23.8032 4.43365 23.6292 4.53865ZM12.0002 18.2708C10.1371 18.2708 8.62194 16.7556 8.62194 14.8925C8.62194 13.0293 10.1371 11.5142 12.0002 11.5142C13.8634 11.5142 15.3785 13.0293 15.3785 14.8925C15.3785 16.7556 13.8634 18.2708 12.0002 18.2708ZM12.0002 13.4434C11.2022 13.4434 10.5541 14.0914 10.5541 14.8925C10.5541 15.6906 11.2022 16.3416 12.0002 16.3416C12.7983 16.3416 13.4463 15.6936 13.4463 14.8925C13.4463 14.0944 12.7983 13.4434 12.0002 13.4434Z" fill="#BDBDBD"/>
</svg>
