<svg width="24" height="25" viewBox="0 0 24 25" fill="none" xmlns="http://www.w3.org/2000/svg">
<path d="M12 16.3215C9.875 16.3215 8.25 14.6965 8.25 12.5715C8.25 10.4465 9.875 8.82153 12 8.82153C14.125 8.82153 15.75 10.4465 15.75 12.5715C15.75 14.6965 14.125 16.3215 12 16.3215ZM18.625 9.07153L20 6.44653L18.25 4.69653L15.625 6.07154C15.25 5.82154 14.75 5.69654 14.25 5.57154L13.25 2.57153H10.75L9.75002 5.44654C9.37502 5.57154 8.87502 5.69653 8.50002 5.94653L5.87501 4.57153L4.00001 6.44653L5.37502 9.07153C5.12502 9.44653 4.99998 9.94653 4.87498 10.3215L2 11.3215V13.8215L4.87498 14.8215C4.99998 15.3215 5.25002 15.6965 5.37502 16.1965L4.00001 18.8215L5.75 20.5715L8.37501 19.1965C8.75001 19.4465 9.25002 19.5715 9.75002 19.6965L10.75 22.5715H13.25L14.25 19.6965C14.75 19.5715 15.125 19.3215 15.625 19.1965L18.25 20.5715L20 18.8215L18.625 16.1965C18.875 15.8215 19 15.3215 19.125 14.8215L22 13.8215V11.3215L19.125 10.3215C19 9.94653 18.875 9.44653 18.625 9.07153Z" fill="#BDBDBD"/>
</svg>
