<svg width="19" height="16" viewBox="0 0 19 16" fill="none" xmlns="http://www.w3.org/2000/svg">
<path d="M18.2069 2.18125C17.5319 2.4625 16.8569 2.6875 16.0694 2.74375C16.8569 2.29375 17.4194 1.5625 17.7006 0.71875C16.9694 1.16875 16.1819 1.45 15.3381 1.61875C14.6631 0.8875 13.7069 0.4375 12.6944 0.4375C10.6694 0.4375 8.98188 2.06875 8.98188 4.15C8.98188 4.43125 9.03813 4.7125 9.09438 4.99375C6.00063 4.825 3.30063 3.3625 1.44438 1.1125C1.10688 1.675 0.938135 2.29375 0.938135 2.96875C0.938135 4.2625 1.61313 5.3875 2.56938 6.0625C1.95063 6.0625 1.38813 5.89375 0.881885 5.6125V5.66875C0.881885 7.46875 2.17563 8.93125 3.86313 9.26875C3.52563 9.325 3.24438 9.38125 2.90688 9.38125C2.68188 9.38125 2.45688 9.38125 2.23188 9.325C2.68188 10.7875 4.08813 11.8562 5.66313 11.9125C4.42563 12.925 2.79438 13.4875 1.05063 13.4875C0.769385 13.4875 0.431885 13.4875 0.150635 13.4313C1.83813 14.4438 3.80688 15.0625 5.88813 15.0625C12.6944 15.0625 16.4069 9.4375 16.4069 4.54375V4.09375C17.0819 3.53125 17.7006 2.9125 18.2069 2.18125Z" fill="#E5E5E5"/>
</svg>
